<svg id="Capa_1" enable-background="new 0 0 512 512" height="512" viewBox="0 0 512 512" width="512" xmlns="http://www.w3.org/2000/svg"><g><g><path d="m10 86h492v100h-492z" fill="#ffda8f"/><g fill="#8690a6"><path d="m502 86v100h-116l60-100z"/><path d="m366 86-60 100h-80l60-100z"/><path d="m206 86-60 100h-80l60-100z"/></g><path d="m10 246h492v100h-492z" fill="#ffda8f"/><path d="m502 246v100h-116l60-100z" fill="#8690a6"/><path d="m416 346h40v120h-40z" fill="#ff7b79"/><path d="m456 186v60c-11.898 0-27.854 0-40 0v-60z" fill="#ff7b79"/><path d="m456 46v40c-11.898 0-27.854 0-40 0v-40z" fill="#ff7b79"/><path d="m366 246-60 100h-80l60-100z" fill="#8690a6"/><path d="m310.57 426 11.43 40h-132l11.43-40z" fill="#ff7b79"/><path d="m299.14 386 11.43 40h-109.14l11.43-40z" fill="#ffda8f"/><path d="m299.14 386h-86.28c.779-2.728-4.242 14.849 17.14-60h52c21.382 74.85 16.361 57.272 17.14 60z" fill="#ff7b79"/><path d="m206 246-60 100h-80l60-100z" fill="#8690a6"/><path d="m96 346v120h-40v-120z" fill="#ff7b79"/><path d="m96 186v60h-40v-60z" fill="#ff7b79"/><path d="m56 46h40v40h-40z" fill="#ff7b79"/></g><g><path d="m502 76h-36v-30c0-5.523-4.477-10-10-10h-40c-5.523 0-10 4.477-10 10v30h-300v-30c0-5.523-4.477-10-10-10h-40c-5.523 0-10 4.477-10 10v30h-36c-5.523 0-10 4.477-10 10v100c0 5.523 4.477 10 10 10h36v40h-36c-5.523 0-10 4.477-10 10v100c0 5.523 4.477 10 10 10h36v100h-10c-5.523 0-10 4.477-10 10s4.477 10 10 10h80c5.523 0 10-4.477 10-10s-4.477-10-10-10h-10v-100h105.029l-28.572 100h-12.457c-5.523 0-10 4.477-10 10s4.477 10 10 10h41c5.523 0 10-4.477 10-10s-4.477-10-10-10h-7.743l5.714-20h94.057l5.714 20h-7.742c-5.523 0-10 4.477-10 10s4.477 10 10 10h41c5.523 0 10-4.477 10-10s-4.477-10-10-10h-12.457l-28.572-100h105.029v100h-10c-5.523 0-10 4.477-10 10s4.477 10 10 10h80c5.523 0 10-4.477 10-10s-4.477-10-10-10h-10v-100h36c5.523 0 10-4.477 10-10v-100c0-5.523-4.477-10-10-10h-36v-40h36c5.523 0 10-4.477 10-10v-100c0-5.523-4.477-10-10-10zm-178.338 260 48-80h56.677l-48 80zm-28.405 0-3.641-12.745c-1.226-4.294-5.151-7.255-9.616-7.255h-26.338l36-60h56.677l-48 80zm-57.715 0c46.354-.013 35.134-.01 36.914-.01 1.383 4.849 10.264 35.933 11.429 40.01h-59.771zm-131.542-100v-40h300v40zm-22.338 100 48-80h56.677l-48 80zm104.676-240-48 80h-56.676l48-80zm80 0-48 80h-56.677l48-80zm80 0-48 80h-56.677l48-80zm-24.676 80 48-80h56.677l-48 80zm102.338-120h20v20h-20zm-360 0h20v20h-20zm-46 40h88.338l-48 80h-40.338zm46 100.001c.005 0 .009-.001.014-.001h19.986v40h-20zm-46 59.999h88.338l-48 80h-40.338zm66 200h-20v-99.999c.005 0 .009-.001.014-.001h19.986zm77.662-120 48-80h56.677l-36 60h-2.339c-4.464 0-8.388 2.959-9.615 7.251l-3.642 12.749zm51.024 80 5.714-20h71.199l5.715 20zm231.314 40h-20v-100h20zm46-120h-88.338l48-80h40.338zm-46-100h-20v-40h20zm46-60h-88.338l48-80h40.338z"/><circle cx="256" cy="466" r="10"/></g></g></svg>