<svg viewBox="0 0 511.99975 511" xmlns="http://www.w3.org/2000/svg"><path d="m274.527344 410.671875v-379.089844c0-11.683593-9.472656-21.15625-21.15625-21.15625s-21.15625 9.472657-21.15625 21.15625v378.757813" fill="#ce8570"/><path d="m274.648438 52.519531v-20.828125c0-11.683594-9.472657-21.15625-21.15625-21.15625-11.683594 0-21.15625 9.472656-21.15625 21.15625v20.492188" fill="#ce8570"/><path d="m152.910156 52.355469h257.5625l37.734375 47.882812-37.734375 47.882813h-351.695312v-95.765625h31.570312" fill="#00cc76"/><path d="m91.71875 219.140625 348.753906-45.382813 12.359375 94.964844-348.753906 45.382813-43.59375-42.613281zm0 0" fill="#ffde55"/><path d="m80.609375 452.371094-70.976563 49.210937h492.734376l-9.105469-16.128906c-24.617188-43.613281-55.019531-83.914063-90.433594-119.867187l-71.59375 52.949218-14.019531-45.640625c-3.378906-11.003906-16.804688-15.109375-25.761719-7.878906l-48.222656 38.917969c-16.890625 13.632812-42.113281 7.570312-50.964844-12.25-3.230469-7.230469-12.253906-9.722656-18.738281-5.171875l-41.695313 29.273437" fill="#e6e6e6"/><path d="m176.730469 129.042969c3.890625 0 8.195312-1.652344 9.042969-5.363281l.941406-4.292969.945312 4.3125c.84375 3.691406 5.144532 5.34375 9.035156 5.34375 4.535157 0 8.019532-1.949219 9.097657-5.085938.003906-.015625.007812-.027343.011719-.039062l12.972656-39.777344c.167968-.496094.265625-1.09375.265625-1.644531 0-3.863282-4.796875-6.554688-9.101563-6.554688-2.886718 0-5.011718 1.386719-5.667968 3.6875l-7.222657 24.382813-2.992187-12.796875c-.617188-2.777344-3.566406-4.640625-7.339844-4.640625-3.777344 0-6.726562 1.863281-7.339844 4.613281l-2.996094 12.824219-7.21875-24.359375c-.664062-2.324219-2.785156-3.714844-5.675781-3.714844-4.304687 0-9.097656 2.695312-9.097656 6.554688 0 .550781.09375 1.152343.253906 1.628906l12.976563 39.769531c.980468 3.128906 4.558594 5.152344 9.109375 5.152344zm0 0"/><path d="m254.433594 89.832031c3.230468 0 5.578125-2.949219 5.578125-7.011719 0-4.050781-2.292969-6.882812-5.578125-6.882812h-23.226563c-4.023437 0-6.945312 2.375-6.945312 5.640625v41.429687c0 3.269532 2.921875 5.640626 6.945312 5.640626h23.226563c3.285156 0 5.578125-2.828126 5.578125-6.878907 0-4.0625-2.347657-7.011719-5.578125-7.011719h-14.976563v-6.070312h7.277344c3.660156 0 5.578125-3.199219 5.578125-6.359375 0-3.699219-2.398438-6.488281-5.578125-6.488281h-7.277344v-6.007813zm0 0"/><path d="m281.703125 115.148438c-2.691406 0-4.269531-1.210938-5.9375-2.496094-1.488281-1.148438-3.027344-2.332032-5.152344-2.332032-4.242187 0-6.949219 4.734376-6.949219 7.992188 0 5.957031 8.351563 10.988281 18.234376 10.988281 11.433593 0 18.820312-6.667969 18.820312-16.992187 0-11.722656-9.207031-15.78125-15.300781-18.46875-2.140625-.941406-5.382813-2.371094-5.382813-3.257813 0-.679687 1.410156-1.402343 4.019532-1.402343 2.605468 0 3.910156.675781 5.171874 1.328124 1.039063.539063 2.214844 1.148438 3.765626 1.148438 4.46875 0 6.554687-4.6875 6.554687-7.859375 0-7.652344-11.859375-8.25-15.496094-8.25-8.863281 0-19.210937 4.195313-19.210937 16.015625 0 10.480469 8.269531 14.324219 14.304687 17.128906 3.28125 1.523438 6.378907 2.960938 6.378907 4.660156 0 1.777344-3.78125 1.796876-3.820313 1.796876zm0 0"/><path d="m323.914062 128.648438c4.472657 0 7.597657-2.320313 7.597657-5.640626v-32.917968h6.496093c3.230469 0 5.574219-3 5.574219-7.140625 0-4.128907-2.292969-7.011719-5.574219-7.011719h-28.1875c-3.28125 0-5.574218 2.882812-5.574218 7.011719 0 4.140625 2.34375 7.140625 5.574218 7.140625h6.496094v32.917968c0 3.320313 3.125 5.640626 7.597656 5.640626zm0 0"/><path d="m210.433594 266.421875-14.851563 1.929687-.78125-6.019531 7.214844-.941406c1.8125-.234375 3.261719-1.273437 4.082031-2.925781.59375-1.195313.816406-2.652344.628906-4.097656-.207031-1.566407-.84375-3-1.800781-4.03125-1.214843-1.3125-2.835937-1.910157-4.566406-1.6875l-7.21875.941406-.773437-5.957032 14.851562-1.933593c1.761719-.230469 3.230469-1.34375 4.027344-3.054688.613281-1.320312.816406-2.914062.597656-4.617187-.523438-4.015625-3.152344-6.527344-6.417969-6.101563l-23.03125 2.996094c-1.613281.210937-3.105469.820313-4.199219 1.722656-1.480468 1.222657-2.195312 2.960938-1.960937 4.765625l5.34375 41.082032c.378906 2.894531 2.972656 4.78125 6.367187 4.78125.40625 0 .824219-.027344 1.25-.082032l23.03125-2.996094c1.84375-.242187 3.34375-1.402343 4.121094-3.183593.539063-1.246094.726563-2.792969.519532-4.359375-.523438-4.027344-3.238282-6.65625-6.433594-6.230469zm0 0"/><path d="m229.371094 277.964844c4.1875-.542969 5.039062-3.273438 5.214844-4.453125l.890624-6.472657 9.84375-1.28125 2.527344 6.058594c.460938 1.066406 1.984375 3.488282 6.171875 2.941406 3.660157-.476562 8.652344-3.527343 8.097657-7.785156-.066407-.5-.234376-.929687-.375-1.292968-.019532-.042969-.035157-.085938-.054688-.125l-17.242188-37.910157c-1.398437-3.019531-5.085937-4.527343-9.636718-3.9375-4.546875.59375-7.730469 2.996094-8.3125 6.296875l-6.898438 41.03125c-.007812.042969-.015625.101563-.019531.144532-.042969.367187-.09375.824218-.03125 1.3125v.011718c.496094 3.800782 4.992187 5.539063 8.558594 5.539063.4375 0 .863281-.023438 1.265625-.078125zm7.871094-24.113282.765624-5.570312 2.167969 5.191406zm0 0"/><path d="m278.730469 251.414062c3.449219 1.085938 6.707031 2.113282 6.925781 3.800782.230469 1.761718-3.519531 2.269531-3.554688 2.273437-2.671874.347657-4.390624-.652343-6.210937-1.710937-1.621094-.945313-3.304687-1.917969-5.410156-1.644532-4.207031.546876-6.277344 5.589844-5.859375 8.820313.671875 5.152344 7.546875 8.785156 15.796875 8.785156 1.207031 0 2.449219-.078125 3.699219-.242187 5.335937-.691406 9.710937-2.765625 12.65625-5.992188 3.175781-3.480468 4.496093-8.074218 3.816406-13.285156-1.511719-11.625-11.167969-14.464844-17.554688-16.339844-2.246094-.660156-5.644531-1.660156-5.757812-2.535156-.085938-.675781 1.214844-1.574219 3.800781-1.914062 2.585937-.332032 3.964844.167968 5.300781.652343 1.101563.398438 2.351563.855469 3.882813.652344 2.148437-.277344 3.855469-1.667969 4.800781-3.910156.730469-1.734375.832031-3.582031.683594-4.726563-.25-1.925781-1.609375-5.296875-7.886719-6.226562-3.457031-.515625-7.125-.140625-8.539063.042968-8.789062 1.144532-18.511718 6.636719-16.988281 18.359376 1.355469 10.394531 10.050781 13.136718 16.398438 15.140624zm0 0"/><path d="m302.050781 227.023438c1.210938 1.496093 2.921875 2.222656 4.699219 1.988281l6.441406-.835938 4.246094 32.640625c.375 2.898438 3.054688 4.714844 6.714844 4.714844.5 0 1.015625-.03125 1.546875-.101562 1.734375-.226563 3.339843-.824219 4.523437-1.6875 1.695313-1.234376 2.527344-3.015626 2.285156-4.886719l-4.25-32.640625 6.441407-.839844c3.203125-.417969 5.140625-3.699219 4.605469-7.800781-.203126-1.585938-.777344-3.058594-1.613282-4.144531-1.207031-1.570313-2.957031-2.328126-4.820312-2.085938l-27.949219 3.636719c-3.253906.421875-5.15625 3.578125-4.625 7.671875.226563 1.722656.832031 3.234375 1.753906 4.371094zm0 0"/><path d="m121.136719 63.226562c1.875 0 3.769531-.523437 5.457031-1.621093l.269531-.175781c4.648438-3.019532 5.96875-9.234376 2.949219-13.882813s-9.238281-5.96875-13.882812-2.949219l-.269532.171875c-4.648437 3.023438-5.96875 9.238281-2.949218 13.886719 1.921874 2.960938 5.140624 4.570312 8.425781 4.570312zm0 0"/><path d="m239.753906 417.25c3.363282-1.5 6.570313-3.433594 9.527344-5.820312l28.179688-22.742188 20.042968-16.179688c2.46875-1.992187 5.089844-1.488281 6.105469-1.179687 1.011719.308594 3.464844 1.359375 4.398437 4.394531l12.273438 39.949219-28.292969 23.296875c-4.105469 3.382812-4.691406 9.453125-1.3125 13.558594 1.90625 2.3125 4.664063 3.507812 7.441407 3.507812 2.15625 0 4.324218-.71875 6.117187-2.195312l40-32.941406 57.550781-42.558594c32.324219 33.804687 60.253906 71.394531 83.089844 111.847656l.992188 1.761719h-445.4375l45.664062-31.664063c4.371094-3.03125 5.460938-9.03125 2.429688-13.402344-3.03125-4.371093-9.03125-5.460937-13.402344-2.429687l-70.976563 49.210937c-3.460937 2.402344-4.960937 6.773438-3.703125 10.792969 1.257813 4.019531 4.980469 6.757813 9.191406 6.757813h492.734376c3.425781 0 6.59375-1.820313 8.320312-4.777344s1.75-6.609375.066406-9.589844l-9.101562-16.128906c-25.03125-44.335938-55.96875-85.347656-91.960938-121.890625-3.367187-3.417969-8.734375-3.835937-12.589844-.984375l-60.652343 44.855469-10.023438-32.632813c-2.53125-8.226562-8.953125-14.640625-17.183593-17.160156-8.226563-2.519531-17.140626-.792969-23.839844 4.613281l-.71875.578125v-57.371094l169.441406-22.050781c5.5-.714843 9.375-5.75 8.660156-11.246093l-12.359375-94.964844c-.34375-2.640625-1.722656-5.035156-3.828125-6.660156-2.109375-1.625-4.78125-2.34375-7.417968-2l-154.496094 20.101562v-25.75h125.789062c3.074219 0 5.980469-1.410156 7.882813-3.824219l37.734375-47.882812c2.867187-3.644531 2.867187-8.78125 0-12.425781l-37.734375-47.882813c-1.902344-2.417969-4.808594-3.828125-7.882813-3.828125h-125.789062v-10.621094c0-17.199218-13.992188-31.191406-31.191406-31.191406-17.199219 0-31.191407 13.992188-31.191407 31.191406v10.625h-69.390625c-5.542968 0-10.035156 4.496094-10.035156 10.039063s4.492188 10.035156 10.035156 10.035156h119.976563c.570312.101563 1.160156.164063 1.761719.164063.601562 0 1.1875-.0625 1.761718-.164063h129.195313l29.820312 37.847656-29.820312 37.847657h-336.789063v-75.695313h21.53125c5.542969 0 10.035156-4.492187 10.035156-10.035156s-4.492187-10.039063-10.035156-10.039063h-31.570312c-5.539063 0-10.035156 4.496094-10.035156 10.039063v95.765625c0 5.542968 4.496093 10.035156 10.035156 10.035156h163.523437v33.871094l-131.875 17.160156c-3.050781.394531-5.75 2.167969-7.324219 4.808594l-31.238281 52.351562c-2.378906 3.984375-1.714843 9.078125 1.601563 12.320313l43.597656 42.613281c1.886719 1.847656 4.410156 2.859375 7.015625 2.859375.429687 0 .859375-.027344 1.292969-.082031l116.929687-15.214844v92.804688c-1.769531-.019532-3.550781-.234376-5.316406-.660157-7.132813-1.714843-12.933594-6.535156-15.925781-13.230469-2.714844-6.085937-7.957032-10.589843-14.378906-12.363281-6.421876-1.773437-13.234376-.59375-18.6875 3.234375l-41.695313 29.273438c-4.351563 3.058594-5.402344 9.066406-2.347656 13.417968 3.058593 4.355469 9.066406 5.402344 13.417969 2.347657l41.695312-29.273438c.996094-.695312 1.984375-.570312 2.492188-.429687.5.136718 1.417968.535156 1.914062 1.648437 5.449219 12.199219 16.023438 20.984375 29.011719 24.109375 5.855469 1.40625 11.796875 1.550782 17.507812.53125 0 0 4.320313-.871094 9.765625-3.003906zm2.621094-385.558594c0-6.128906 4.988281-11.117187 11.117188-11.117187 6.128906 0 11.117187 4.988281 11.117187 11.117187v10.625h-22.234375zm0 126.464844h22.234375v28.363281l-22.234375 2.894531zm-169.222656 111.6875 24.691406-41.378906 333.972656-43.457032 9.765625 75.058594-208.769531 27.164063c-.160156-.003907-.316406-.023438-.476562-.023438-1.074219 0-2.109376.175781-3.082032.488281l-121.644531 15.828126zm169.222656 122.402344v-86.015625l22.234375-2.894531v70.964843zm0 0"/><path d="m106.148438 444.804688c1.875 0 3.769531-.523438 5.457031-1.621094l.269531-.171875c4.648438-3.019531 5.96875-9.238281 2.949219-13.886719s-9.238281-5.96875-13.882813-2.949219l-.269531.175781c-4.652344 3.019532-5.96875 9.238282-2.949219 13.886719 1.921875 2.957031 5.140625 4.566407 8.425782 4.566407zm0 0"/></svg>