<svg id="Layer_5" enable-background="new 0 0 64 64" height="512" viewBox="0 0 64 64" width="512" xmlns="http://www.w3.org/2000/svg"><g><g><g><path d="m55 32h-46c-.34 0-.68-.02-1-.08v28.08c0 1.1.9 2 2 2h44c1.1 0 2-.9 2-2v-28.08c-.32.06-.66.08-1 .08z" fill="#f0d0b4"/></g><g><path d="m22 54h6v4h-6z" fill="#ff826e"/></g><g><path d="m12 54h6v4h-6z" fill="#ff826e"/></g><g><path d="m26 44.64v5.36h-14v-18h4v3l2.54.81c.3 1.06.72 2.07 1.24 3.02l-1.22 2.36 4.25 4.24 2.36-1.21c.27.15.55.29.83.42z" fill="#b4dd7f"/></g><g><path d="m55 18c3.87 0 7 3.13 7 7 0 3.53-2.6 6.44-6 6.92-.32.06-.66.08-1 .08h-7v-3l-2.54-.81c-.3-1.06-.72-2.07-1.24-3.02l1.22-2.36-4.25-4.25-2.36 1.22c-.95-.52-1.96-.94-3.02-1.24l-.81-2.54h-6l-.81 2.54c-1.06.3-2.07.72-3.02 1.24l-2.36-1.22-4.25 4.25 1.22 2.36c-.52.95-.94 1.96-1.24 3.02l-2.54.81v3h-4-3c-.34 0-.68-.02-1-.08-3.4-.48-6-3.39-6-6.92 0-3.87 3.13-7 7-7h.05c-.02-.33-.05-.66-.05-1 0-8.28 6.72-15 15-15 5.85 0 10.9 3.35 13.37 8.23 1.85-1.39 4.14-2.23 6.63-2.23 5.74 0 10.44 4.4 10.95 10z" fill="#e6e9ed"/></g><g><path d="m48 32v3l-2.54.81c-.3 1.06-.72 2.07-1.24 3.02l1.22 2.36-4.25 4.24-2.36-1.21c-.95.52-1.96.94-3.02 1.24l-.81 2.54h-6l-.81-2.54c-.76-.21-1.49-.49-2.19-.82-.28-.13-.56-.27-.83-.42l-2.36 1.21-4.25-4.24 1.22-2.36c-.52-.95-.94-1.96-1.24-3.02l-2.54-.81v-3-3l2.54-.81c.3-1.06.72-2.07 1.24-3.02l-1.22-2.36 4.25-4.25 2.36 1.22c.95-.52 1.96-.94 3.02-1.24l.81-2.54h6l.81 2.54c1.06.3 2.07.72 3.02 1.24l2.36-1.22 4.25 4.25-1.22 2.36c.52.95.94 1.96 1.24 3.02l2.54.81z" fill="#fcd770"/></g><g><path d="m32 22c5.52 0 10 4.48 10 10s-4.48 10-10 10-10-4.48-10-10 4.48-10 10-10z" fill="#ffeaa7"/></g><g><path d="m37.11 30.55c.54.28.89.84.89 1.45s-.35 1.17-.89 1.45l-6.77 3.38c-.22.11-.47.17-.72.17-.9 0-1.62-.72-1.62-1.62v-6.76c0-.9.72-1.62 1.62-1.62.25 0 .5.06.72.17z" fill="#ff826e"/></g></g><g><path d="m32 43c6.065 0 11-4.935 11-11s-4.935-11-11-11-11 4.935-11 11 4.935 11 11 11zm0-20c4.963 0 9 4.037 9 9s-4.037 9-9 9-9-4.037-9-9 4.037-9 9-9z"/><path d="m29.618 38c.404 0 .81-.096 1.171-.276l6.765-3.382c.891-.447 1.446-1.345 1.446-2.342s-.555-1.895-1.447-2.342l-6.764-3.382c-.361-.18-.767-.276-1.171-.276-1.443 0-2.618 1.175-2.618 2.618v6.764c0 1.443 1.175 2.618 2.618 2.618zm-.618-9.382c0-.341.277-.618.618-.618.096 0 .191.022.276.065l6.763 3.382c.212.106.343.318.343.553s-.131.447-.342.553l-6.764 3.382c-.386.197-.894-.117-.894-.553z"/><path d="m63 25c0-4.129-3.145-7.537-7.164-7.957-.937-5.783-5.88-10.043-11.836-10.043-2.24 0-4.391.614-6.281 1.787-2.887-4.831-8.044-7.787-13.719-7.787-8.822 0-16 7.178-16 16v.063c-3.941.493-7 3.864-7 7.937 0 3.719 2.555 6.845 6 7.737v27.263c0 1.654 1.346 3 3 3h44c1.654 0 3-1.346 3-3v-27.263c3.445-.892 6-4.018 6-7.737zm-8 35c0 .552-.448 1-1 1h-44c-.552 0-1-.448-1-1v-27h2v18h16v-4.879c.132.047.26.101.395.144l.876 2.735h7.459l.876-2.734c.774-.249 1.521-.557 2.229-.919l2.549 1.311 5.274-5.273-1.312-2.549c.362-.709.67-1.455.919-2.229l2.735-.878v-2.729h6zm-37.266-23.395c.249.774.557 1.521.919 2.229l-1.312 2.549 5.274 5.273 2.385-1.224v3.568h-12v-16h2v2.729zm2.053-13.606 3.212-3.212 2.194 1.13.469-.262c.867-.486 1.809-.874 2.797-1.153l.517-.146.753-2.356h4.541l.754 2.356.517.146c.988.279 1.93.667 2.797 1.153l.469.262 2.194-1.13 3.212 3.212-1.13 2.194.262.469c.486.867.874 1.809 1.153 2.797l.146.517 2.356.753v4.541l-2.356.754-.146.517c-.28.99-.668 1.931-1.152 2.797l-.263.468 1.13 2.195-3.212 3.211-2.195-1.129-.468.263c-.866.484-1.807.872-2.797 1.152l-.517.146-.753 2.356h-4.541l-.754-2.356-.517-.146c-.99-.28-1.931-.668-2.797-1.152l-.468-.263-2.195 1.129-3.212-3.211 1.13-2.195-.263-.468c-.484-.866-.872-1.807-1.152-2.797l-.146-.517-2.356-.753v-4.541l2.356-.754.146-.517c.279-.988.667-1.93 1.153-2.797l.262-.469zm35.213 8.001h-6v-2.729l-2.734-.876c-.249-.773-.557-1.52-.919-2.229l1.312-2.549-5.274-5.274-2.549 1.312c-.71-.362-1.456-.67-2.229-.919l-.878-2.736h-7.459l-.876 2.734c-.773.249-1.52.557-2.229.919l-2.549-1.312-5.274 5.274 1.312 2.549c-.362.71-.67 1.456-.919 2.229l-2.735.878v2.729h-4-2c-3.309 0-6-2.691-6-6 0-3.308 2.69-5.999 5.993-5.999h.002l1.13.063-.089-1.304c-.017-.251-.036-.503-.036-.76 0-7.72 6.28-14 14-14 5.297 0 10.08 2.945 12.483 7.687l.541 1.068.954-.724c1.755-1.329 3.837-2.031 6.022-2.031 5.208 0 9.487 3.909 9.953 9.093l.133.907h.914c3.309 0 6 2.691 6 6s-2.691 6-6 6z"/><path d="m11 59h8v-6h-8zm2-4h4v2h-4z"/><path d="m21 59h8v-6h-8zm2-4h4v2h-4z"/><path d="m31 57h2v2h-2z"/><path d="m35 57h18v2h-18z"/><path d="m31 53h22v2h-22z"/><path d="m47 41h6v2h-6z"/><path d="m47 45h6v2h-6z"/><path d="m47 49h6v2h-6z"/><path d="m12 17h2c0-5.514 4.486-10 10-10v-2c-6.617 0-12 5.383-12 12z"/><path d="m44 11v2c3.309 0 6 2.691 6 6h2c0-4.411-3.589-8-8-8z"/></g></g></svg>