<?xml version="1.0" encoding="utf-8"?>
<!-- Generator: Adobe Illustrator 23.1.0, SVG Export Plug-In . SVG Version: 6.00 Build 0)  -->
<svg version="1.1" id="Capa_1" xmlns="http://www.w3.org/2000/svg" xmlns:xlink="http://www.w3.org/1999/xlink" x="0px" y="0px"
	 viewBox="0 0 472.56 443.73" style="enable-background:new 0 0 472.56 443.73;" xml:space="preserve">
<path style="fill:#FFFFFF;" d="M0,0c157.52,0,315.04,0,472.56,0c0,147.91,0,295.82,0,443.73c-157.52,0-315.04,0-472.56,0
	C0,295.82,0,147.91,0,0z M308.96,132.19c0-0.16-0.04-0.31,0.01-0.41c1.95-3.84,4.07-7.57,7.35-10.45c3.43-3,5.74-2.33,6.82,2.14
	c0.64,2.67,1.04,5.47,1.05,8.21c0.01,6.49-0.19,12.98-0.49,19.47c-0.34,7.35-0.85,14.69-1.37,22.03
	c-0.51,7.25-1.13,14.49-1.71,21.74c-0.49,6.21-0.98,12.42-1.5,18.63c-0.16,1.9-0.49,3.78-0.58,5.68c-0.02,0.5,0.48,1.38,0.86,1.46
	c0.52,0.11,1.25-0.29,1.73-0.67c0.31-0.25,0.41-0.85,0.47-1.31c0.35-3.01,0.74-6.01,0.96-9.03c0.85-11.57,1.63-23.14,2.44-34.71
	c0.1-1.48,0.24-2.95,0.37-4.52c0.28,0.17,0.38,0.2,0.41,0.26c0.5,0.96,0.99,1.92,1.49,2.88c4.3,8.3,9.03,16.39,11.92,25.35
	c0.2,0.61,0.52,1.2,0.89,1.72c0.86,1.22,2.15,1.18,2.94-0.1c0.38-0.62,0.65-1.32,0.95-1.99c1.61-3.59,3.2-7.19,4.82-10.78
	c0.17-0.38,0.44-0.72,0.66-1.07c0.12,0.05,0.24,0.1,0.36,0.16c-0.38,12.85-3.46,25.33-4.91,38.02c-3.12-0.76-5.87-1.5-8.66-2.09
	c-2.33-0.49-4.71-0.73-7.04-1.2c-0.88-0.18-1.68-0.41-2.05,0.62c-0.39,1.09,0.15,1.91,1.16,2.27c0.97,0.35,2,0.54,3.02,0.73
	c4,0.74,8.01,1.41,11.99,2.21c2.48,0.5,3.34,0.03,3.85-2.44c0.06-0.3,0.11-0.6,0.15-0.89c1.1-7.13,2.2-14.27,3.28-21.4
	c0.94-6.2,1.7-12.43,1.6-18.72c-0.02-1.08,0.13-2.44-1.29-2.81c-1.37-0.36-1.92,0.85-2.38,1.78c-2.11,4.17-4.14,8.37-6.19,12.57
	c-0.22,0.44-0.44,0.88-0.76,1.54c-0.26-0.56-0.43-0.86-0.54-1.17c-3.68-10.26-9.63-19.36-14.65-28.93c-0.38-0.72-0.69-1.61-0.65-2.4
	c0.34-8.04,0.79-16.08,1.15-24.12c0.24-5.24,0.22-10.48-0.71-15.66c-0.18-1.02-0.1-1.84,0.49-2.67c1.96-2.74,3.71-5.67,5.91-8.2
	c1.93-2.23,4.2-4.26,6.61-5.97c2.76-1.96,5.05-1.47,7.43,0.93c1.92,1.93,3.07,4.27,3.62,6.91c1.55,7.48,1.31,15,0.11,22.46
	c-1.4,8.75-3.13,17.45-4.69,26.17c-0.91,5.11-1.8,10.22-2.63,15.34c-0.24,1.5,0.3,2.37,1.28,2.42c1.33,0.08,1.61-0.93,1.85-1.93
	c0.06-0.25,0.08-0.51,0.12-0.77c0.39-2.35,0.76-4.7,1.16-7.04c2.07-12.1,4.28-24.18,6.15-36.31c1.01-6.52,0.82-13.12-0.34-19.65
	c-0.69-3.86-2.29-7.24-5.28-9.88c-2.95-2.6-6.16-2.98-9.55-1c-1.08,0.63-2.1,1.38-3.04,2.21c-3.9,3.47-6.84,7.67-9.29,12.25
	c-0.21,0.4-0.43,0.79-0.73,1.34c-0.32-0.56-0.53-0.93-0.74-1.3c-1.88-3.27-4.83-4.1-8.01-2.04c-1.47,0.95-2.82,2.17-3.97,3.5
	c-3.6,4.17-5.98,9.08-8.21,14.06c-4,8.96-7.36,18.16-9.36,27.76c-0.89,4.26-2.82,7.67-5.61,10.85c-3.77,4.3-7.36,8.74-10.18,13.76
	c-0.1,0.18-0.26,0.32-0.58,0.69c-0.09-0.69-0.14-1.14-0.22-1.59c-0.27-1.57-0.47-3.17-0.89-4.71c-0.13-0.49-0.83-1.07-1.34-1.14
	c-0.43-0.06-1.12,0.45-1.39,0.89c-0.39,0.64-0.6,1.44-0.73,2.2c-1.04,6.27-0.86,12.6-0.62,18.91c0.23,6.1,0.57,12.19,0.82,18.29
	c0.07,1.72,0.73,2.43,2.42,2.09c2.71-0.55,5.41-1.18,8.1-1.86c0.64-0.16,1.41-0.5,1.75-1c0.34-0.51,0.44-1.42,0.22-1.98
	c-0.14-0.35-1.06-0.47-1.65-0.55c-0.35-0.04-0.73,0.23-1.11,0.33c-2.21,0.57-4.42,1.13-6.91,1.76c-0.7-10.8-1.66-21.31-0.83-31.87
	c0.09,1.41,0.04,2.83-0.14,4.23c-0.12,0.93,0.01,1.7,0.93,2.03c0.9,0.32,1.32-0.37,1.65-1.07c0.62-1.28,1.22-2.58,1.88-3.85
	c3.12-6,7.52-11.09,11.57-16.43c0.09-0.12,0.26-0.18,0.36-0.25c-1.16,8.74-2.42,17.44-3.46,26.17c-1.05,8.77-1.99,17.56-1.23,26.56
	c-0.41-0.19-0.67-0.33-0.94-0.44c-0.59-0.24-1.18-0.46-1.77-0.69c-0.22,0.66-0.63,1.33-0.63,1.99c0.01,2.42,0.14,4.84,0.25,7.26
	c0.02,0.38,0.05,0.87,0.27,1.11c0.32,0.33,0.88,0.73,1.25,0.65c0.52-0.1,1.05-0.54,1.38-0.98c0.12-0.16-0.3-0.75-0.51-1.13
	c-0.11-0.21-0.4-0.38-0.41-0.59c-0.14-1.83-0.24-3.67-0.36-5.54c2.41,0.25,2.52,0.15,3.41-0.99c3.54-4.53,7.13-9.03,10.68-13.56
	c0.26-0.33,0.35-0.79,0.52-1.2c0.19,0.16,0.37,0.32,0.56,0.48c0,0.24,0.02,0.49,0,0.73c-0.34,4.01-0.98,8.02-0.94,12.03
	c0.03,2.95-1.24,4.29-3.67,5.36c-2.68,1.18-5.22,2.66-7.8,4.05c-0.37,0.2-0.63,0.61-0.95,0.92c0.08,0.1,0.16,0.2,0.24,0.29
	c1.76-0.78,3.51-1.61,5.3-2.31c0.59-0.23,1.31-0.16,1.97-0.16c1.45,0.01,2.93,0.21,4.36,0.03c0.62-0.08,1.21-0.85,1.69-1.42
	c0.16-0.18,0-0.74-0.17-1.03c-0.06-0.1-0.59,0.04-0.9,0.12c-0.54,0.14-1.07,0.31-1.61,0.46c-0.03-0.12-0.06-0.24-0.09-0.35
	c0.33-0.19,0.64-0.42,0.99-0.57c1.32-0.57,2.01-1.55,2.12-2.99c0.44-5.74,0.9-11.48,1.31-17.22c0.03-0.41-0.38-0.85-0.59-1.28
	c-0.25,0.29-0.5,0.58-0.75,0.87c-0.11,0.13-0.18,0.28-0.29,0.41c-2.65,2.84-5.36,5.63-7.94,8.54c-1.62,1.83-3.04,3.83-4.68,5.92
	c-0.07-0.41-0.15-0.6-0.14-0.8c0.11-3.07,0.08-6.15,0.38-9.2c0.65-6.58,1.44-13.14,2.22-19.71c1.26-10.53,3.13-20.96,5.62-31.27
	c2.23-9.2,5.33-18.09,9.13-26.76c0.59-1.33,1.51-1.63,2.7-1.77c1.12-0.13,2.03,0.35,2.49,1.29c0.76,1.54,1.43,3.14,1.98,4.77
	c0.4,1.18,0.45,2.48,0.89,3.64c0.19,0.5,1.01,1.09,1.48,1.05c0.44-0.05,1.1-0.86,1.14-1.38c0.09-1.19,0.07-2.47-0.29-3.59
	C315.54,136.85,314.63,132.35,308.96,132.19z M108.69,387.14c0.41,0.34,0.74,0.61,1.07,0.9c7.38,6.55,14.7,13.18,22.17,19.63
	c5.89,5.09,12.2,9.55,19.96,11.43c0.21,0.05,0.41,0.15,0.6,0.24c1.68,0.76,2.1,0.66,3.37-0.73c4.75-5.19,8.95-10.79,12.73-16.72
	c3.79-5.93,7.19-12.05,9.49-18.72c0.61-1.78,1.08-3.69,1.15-5.56c0.12-3.14-2.16-4.7-5.11-3.6c-1.49,0.55-2.92,1.33-4.25,2.21
	c-7.1,4.69-13.01,10.58-17.62,17.76c-0.25,0.39-0.51,0.76-0.81,1.2c-0.25-0.27-0.4-0.42-0.53-0.58
	c-9.65-12.67-20.78-23.91-33.09-33.98c-2.67-2.19-5.45-4.3-8.39-6.09c-2-1.21-4.36-1.84-6.6-2.6c-0.41-0.14-1.03,0.29-1.55,0.46
	c0.36,0.36,0.65,0.89,1.09,1.05c3.77,1.43,7.22,3.44,10.19,6.13c7.06,6.39,14.04,12.87,21,19.36c1.61,1.5,3.01,3.22,4.29,4.6
	c-2.11,2.44-4.16,4.7-6.08,7.08c-1.93,2.39-3.91,4.78-4.9,7.89c-0.46-0.39-0.87-0.71-1.25-1.05c-10.45-9.29-20.87-18.61-31.98-27.13
	c-4.32-3.31-8.11-7.17-10.69-12.06c-0.24-0.45-0.58-0.93-1-1.16c-0.48-0.27-1.22-0.51-1.63-0.32c-0.4,0.19-0.75,0.96-0.73,1.47
	c0.03,0.74,0.26,1.56,0.65,2.2c1.42,2.31,2.94,4.56,4.42,6.84c-1.06,0.31-1.39,1.25-1.54,2.4c-0.14,1.07-0.32,2.15-0.68,3.16
	c-1.59,4.46-4.09,8.39-7.24,11.91c-1.4,1.56-2.98,2.43-5.28,1.88c-2.38-0.57-3.62,0.45-4.27,2.83c-0.42,1.56-0.09,3,0.54,4.42
	c2.01,4.49,4.47,8.71,7.74,12.41c3.85,4.36,8.73,7.21,14.12,9.17c3.02,1.09,4.48-0.3,3.83-3.42c-0.42-2.03-1.02-4.02-1.54-6.03
	c-0.38-1.48-0.75-2.96-1.14-4.47C98.22,400.8,102.46,397.65,108.69,387.14z M114.85,269.97c-10.14,0.4-20.23,0.69-29.72-3.7
	c0.02-0.13,0.04-0.25,0.05-0.38c0.76,0.15,1.51,0.3,2.57,0.51c-0.36-0.46-0.51-0.66-0.71-0.91c0.52-0.16,0.99-0.2,1.32-0.44
	c0.37-0.27,0.61-0.71,0.9-1.08c-0.43-0.26-0.9-0.8-1.29-0.74c-1.66,0.23-3.35,0.5-4.93,1.03c-0.6,0.2-1.21,1.1-1.36,1.78
	c-0.28,1.19-0.08,2.48-0.32,3.68c-0.24,1.22,0.08,2.06,1.13,2.59c1.74,0.87,3.48,1.73,5.27,2.48c0.75,0.32,1.07,0.7,1.09,1.52
	c0.04,2.64,0.21,5.28,0.21,7.92c0,2.7-0.13,5.39-0.21,8.25c-0.88-0.39-1.59-0.63-2.2-1c-0.3-0.18-0.59-0.62-0.62-0.97
	c-0.14-1.81-0.12-3.63-0.3-5.43c-0.27-2.7-0.64-5.39-1.02-8.07c-0.06-0.41-0.4-0.78-0.61-1.18c-0.05,0.04-0.09,0.09-0.14,0.13
	c0.49,4.91,0.98,9.83,1.5,14.98c-0.87-0.3-1.3-0.48-1.76-0.6c-2.47-0.62-4.92-1.38-7.43-1.77c-2.4-0.38-4.76,0.1-6.74,1.68
	c-1.11,0.89-1.19,1.74-0.36,2.77c1.37-1.68,3.28-1.95,5.25-1.87c1.25,0.05,2.55,0.1,3.71,0.49c2.87,0.94,5.75,1.93,8.5,3.17
	c6.29,2.83,10.35,7.67,12.26,14.31c0.41,1.41,0.77,2.84,1.07,4.28c1.44,6.86,1.11,13.78,0.66,20.7c-0.1,1.5-0.29,3.03-0.74,4.46
	c-0.38,1.2-0.5,2.15,0.45,2.8c-3.75,1.4-7.51,2.81-11.27,4.23c-4.58,1.73-9.13,3.58-14.05,4.07c-3.59,0.35-7.24,0.48-10.56-1.21
	c-1.76-0.9-3.78-1.78-4.05-4.2c-1.51,0.02-2.08,0.9-1.37,2.15c0.27,0.48,0.66,0.91,1.04,1.32c3.53,3.91,8.25,4.71,13.08,4.46
	c9.18-0.49,17.63-3.79,25.87-7.61c1.12-0.52,2.42-1.15,2.27-2.82c-0.01-0.11,0.16-0.29,0.29-0.34c1.44-0.61,1.87-1.94,2.03-3.26
	c0.33-2.83,0.57-5.68,0.67-8.53c0.04-1.11,0.47-1.43,1.43-1.7c4.36-1.23,8.71-2.49,13.02-3.86c1.26-0.4,2.4-1.16,3.56-1.83
	c0.27-0.15,0.36-0.61,0.53-0.93c-0.22-0.1-0.47-0.33-0.65-0.28c-0.37,0.1-0.74,0.3-1.04,0.55c-0.35,0.29-0.56,0.83-0.94,0.97
	c-2.96,1.08-5.92,2.15-8.92,3.11c-2.2,0.7-4.46,1.23-6.77,1.86c0-1.89,0-3.59,0-5.29c5.75,0.26,10.9-1.83,16.19-3.3
	c-5.44,0.6-10.59,3.06-16.3,2.53c-0.05-0.53-0.08-1-0.14-1.46c-0.36-2.57-0.62-5.16-1.13-7.7c-1.63-8.12-5.31-14.88-12.88-19.01
	c-0.32-0.18-0.55-0.83-0.55-1.26c0.03-4.15,0.14-8.3,0.17-12.45c0.01-1.28-0.18-2.56-0.29-3.99c0.58,0.14,0.95,0.23,1.31,0.33
	c4.78,1.32,9.65,2.13,14.6,2.14c6.14,0.01,12.29-0.17,18.43-0.32c2.68-0.07,5.36-0.25,8.04-0.41c0.87-0.05,1.76-0.28,1.67-1.37
	c-0.09-1.01-1.01-1.08-1.8-1.07c-2.9,0.03-5.8,0.04-8.7,0.15c-7.17,0.29-14.34,1.02-21.53,0.35c-6.13-0.57-12.03-1.96-17.61-4.59
	c-1.57-0.74-1.61-0.88-1.11-2.69c1.22,0.54,2.42,1.12,3.66,1.6c6.06,2.34,12.39,3.14,18.84,3.17c7.66,0.03,15.33,0.05,22.99,0.06
	c0.48,0,0.96-0.01,1.43-0.07c1.74-0.23,2.69-1.52,2.31-3.23c-0.48-2.14-1.75-3.77-3.59-4.89c-0.62-0.38-1.47-0.36-2.21-0.52
	c-0.07,0.13-0.15,0.27-0.22,0.4c1.04,1.66,2.08,3.32,3.28,5.25c-4.05,0-7.6,0-10.99,0c0.47-3.18,1.11-6.28,1.35-9.41
	c0.88-11.49-2.57-21.81-8.96-31.2c-1.46-2.14-3.37-4.12-5.44-5.67c-4.89-3.66-11.17-3.15-15.53,1.15c-1.42,1.4-2.64,3.12-3.57,4.89
	c-2.41,4.58-2.97,9.56-2.39,14.64c0.3,2.56,0.89,5.09,1.36,7.66c-0.07,0.02-0.19,0.06-0.31,0.07c-1.69,0.15-1.83,0.35-1.53,1.97
	c0.06,0.35-0.07,0.79-0.24,1.11c-2.46,4.49-6.19,7.12-11.33,7.63c-0.66,0.07-1.34,0.01-2.11,0.01c0.11-0.35,0.11-0.49,0.19-0.57
	c2.91-3.12,4.23-7,5.28-11c1.6-6.11,1.83-12.4,2.53-18.63c0.34-3.08,1.04-6.12,1.7-9.16c0.12-0.57,0.86-1.44,1.26-1.41
	c0.58,0.05,1.33,0.67,1.62,1.24c0.75,1.5,1.29,3.11,1.93,4.66c0.2,0.48,0.45,0.95,0.78,1.63c0.26-0.42,0.46-0.6,0.45-0.76
	c-0.24-2.68-0.49-5.39-2.2-7.61c-1.56-2.02-3.97-1.96-5.26,0.23c-0.81,1.39-1.46,3-1.69,4.58c-0.6,3.97-0.96,7.98-1.34,11.99
	c-0.49,5.27-1.2,10.5-2.94,15.52c-1.05,3.02-2.46,5.8-4.96,7.94c-1.48,1.27-1.18,2.75,0.61,3.54c0.43,0.19,0.9,0.32,1.36,0.42
	c4.44,0.93,8.4-0.25,12.02-2.82c2.52-1.79,4.5-4.03,5.65-7.16c0.29,0.58,0.49,0.95,0.67,1.34c1.71,3.57,3.77,6.92,6.41,9.88
	c0.59,0.67,1.31,1.28,2.09,1.7c0.34,0.18,1.13-0.06,1.44-0.38c0.21-0.22,0.11-1-0.12-1.36c-2.09-3.32-4.5-6.47-6.31-9.93
	c-3.07-5.85-4.56-12.14-3.72-18.82c0.49-3.95,1.77-7.6,4.64-10.49c3.45-3.48,8.09-3.89,12.01-0.95c1.33,1,2.61,2.2,3.58,3.55
	c6.61,9.17,9.98,19.32,8.9,30.71C115.9,263.64,115.33,266.7,114.85,269.97z M266.19,188.72c0,6.54,0.01,12.84-0.01,19.15
	c0,0.81-0.29,1.77,0.83,2.03c1.15,0.27,1.73-0.54,1.89-1.49c0.23-1.4,0.37-2.83,0.34-4.25c-0.08-4.54-0.36-9.09-0.36-13.63
	c-0.01-6.88,0.12-13.76,0.24-20.65c0.01-0.37,0.42-0.71,0.56-1.1c0.1-0.3,0.15-0.67,0.07-0.97c-0.15-0.56-0.6-1.1-0.6-1.64
	c0.12-9.22,0.3-18.44,0.46-27.65c0.02-1.26-0.02-2.51,0.05-3.76c0.02-0.32,0.36-0.86,0.6-0.88c2.4-0.21,4.8-0.33,7.2-0.47
	c0,4.31-0.01,8.58,0,12.85c0.01,5.19,0.03,10.39,0.08,15.58c0.01,0.68,0.18,1.37,0.28,2.05c0.16,0,0.32,0,0.49-0.01
	c0.08-0.37,0.21-0.74,0.22-1.11c0.05-2.25,0.09-4.5,0.09-6.75c0-7.32-0.03-14.63,0-21.95c0-0.36,0.35-0.97,0.63-1.03
	c1.93-0.42,3.89-0.72,5.98-1.08c-0.09,1.4-0.24,2.64-0.23,3.88c0.06,8.61,0.14,17.23,0.27,25.84c0.02,1.2,0.26,2.41,0.58,3.57
	c0.11,0.37,0.82,0.79,1.25,0.79c0.34,0,0.81-0.57,0.97-0.99c0.18-0.46,0.09-1.02,0.09-1.54c-0.08-5.97-0.2-11.95-0.25-17.92
	c-0.04-4.62-0.01-9.24-0.01-14.11c0.84,0,1.87,0.04,2.9-0.01c0.89-0.05,2.31,0.38,2.34-0.9c0.03-1.26-1.43-1.23-2.37-1.16
	c-2.92,0.23-5.84,0.53-8.75,0.92c-4.78,0.64-9.55,1.38-14.4,2.09c-0.07-0.61-0.13-0.86-0.11-1.11c0.19-4.06,0.39-8.12,0.6-12.18
	c0.08-1.51,0.16-3.02,0.35-4.52c0.04-0.32,0.53-0.79,0.85-0.82c0.55-0.05,1.43,0,1.65,0.34c1.44,2.26,2.79,4.58,4.06,6.94
	c0.25,0.46,0.19,1.23,0,1.76c-0.59,1.58-1.36,3.09-1.99,4.65c-0.29,0.72-0.42,1.51-0.62,2.27c0.14,0.05,0.27,0.11,0.41,0.16
	c1.06-2.16,2.13-4.32,3.32-6.75c0.8,1.73,1.48,3.19,2.15,4.65c0.31-0.38,0.37-0.63,0.3-0.84c-0.47-1.34-1.03-2.65-1.43-4.02
	c-0.16-0.54-0.19-1.28,0.07-1.75c1.12-2.1,2.37-4.12,3.54-6.19c0.17-0.31,0.23-0.68,0.34-1.03c-0.14-0.07-0.29-0.14-0.43-0.22
	c-1.87,2.02-3.03,4.58-4.61,6.9c-1.48-2.45-2.87-4.75-4.37-7.24c8.9-0.96,17.72-0.8,26.24-2.94c0.1,0.26,0.16,0.34,0.16,0.42
	c-0.22,4.79-0.46,9.59-0.65,14.38c-0.02,0.43,0.28,0.87,0.43,1.3c0.19-0.42,0.54-0.83,0.56-1.25c0.2-3.84,0.35-7.69,0.49-11.54
	c0.04-1.18,0.01-2.36,0.01-3.71c5.33,1.13,10.29,1.42,15.33,0.27c0.03,0.52-0.05,0.87,0.08,1.1c0.33,0.58,0.66,1.45,1.16,1.59
	c0.92,0.26,1.31-0.6,1.48-1.41c0.13-0.63,0.21-1.28,0.34-1.92c0.4-2.07-0.3-2.77-2.39-2.26c-4.29,1.04-8.61,1.45-13,0.85
	c-2.87-0.39-5.73-0.69-8.6,0c-1.17,0.28-2.39,0.41-3.59,0.51c-6.38,0.54-12.77,1.04-19.15,1.57c-1.05,0.09-2.11,0.2-3.15,0.31
	c0-1.25,0.06-2.33-0.04-3.39c-0.03-0.3-0.51-0.55-0.79-0.83c-0.23,0.27-0.61,0.52-0.66,0.82c-0.1,0.68-0.14,1.39-0.02,2.06
	c0.23,1.29-0.24,1.87-1.54,1.82c-0.29-0.01-0.59,0-1.02,0c0-0.5,0.02-0.97,0-1.43c-0.17-3.45-0.3-6.91-0.54-10.35
	c-0.04-0.63-0.35-1.54-0.8-1.76c-0.73-0.36-0.64-0.76-0.6-1.32c0.15-2.54,0.28-5.09,0.39-7.64c0.03-0.83-0.44-1.15-1.17-0.75
	c-1.05,0.59-2.06,1.25-3.04,1.95c-0.27,0.19-0.37,0.61-0.54,0.93c0.38,0.12,0.78,0.37,1.13,0.31c0.65-0.1,1.26-0.39,2.04-0.65
	c0,2.61,0.01,5.03-0.01,7.45c0,0.28-0.22,0.55-0.29,0.83c-0.33,1.23-0.88,2.45-0.94,3.69c-0.13,3.15-0.04,6.31-0.04,9.68
	c-2.2,0.26-4.38,0.6-6.57,0.75c-1.78,0.12-2.38,0.48-2.79,2.24c-0.11,0.46-0.18,0.94-0.2,1.41c-0.2,4.84-0.39,9.69-0.56,14.53
	c-0.22,6.36-0.47,12.72-0.61,19.08c-0.38,17-1.77,33.99-0.88,51.02c0.19,3.62,0.63,7.24,1.02,10.85c0.04,0.39,0.56,0.73,0.86,1.09
	c0.26-0.37,0.74-0.74,0.75-1.12c0.09-3.24,0.1-6.48,0.11-9.72c0.01-3.67,0-7.33,0-10.9C255.4,190.48,260.64,189.62,266.19,188.72z
	 M308.18,244.68c-1.29-0.81-2.17-0.24-2.99,0.09c-5.34,2.21-10.13,5.28-14.21,9.37c-0.88,0.88-1.66,1.89-2.31,2.96
	c-1.49,2.45-1.27,4.83,0.72,6.89c1.04,1.08,2.23,2.11,3.54,2.8c4.02,2.11,8.03,4.27,12.22,5.99c9.08,3.73,18.32,7.09,27.41,10.8
	c7.38,3.01,14.63,6.39,20.92,11.39c2.27,1.81,4.37,3.97,6.1,6.3c2.66,3.59,2.67,7.6,0.2,11.3c-1.47,2.2-3.28,4.26-5.26,6.02
	c-4.87,4.32-10.6,7.32-16.46,10.05c-13.07,6.11-26.64,10.97-40.21,15.79c-17.58,6.24-35.17,12.47-52.23,20.06
	c-11.87,5.28-23.5,11.05-34.43,18.13c-2.27,1.47-4.32,3.3-6.39,5.08c-0.69,0.6-1.22,1.47-1.61,2.32c-0.52,1.14,0.02,1.85,0.95,1.93
	c0.57-0.71,0.94-1.32,1.45-1.77c0.65-0.57,1.4-1.01,2.13-1.48c12.38-8.02,25.42-14.81,38.86-20.85
	c17.27-7.75,35.08-14.13,52.87-20.55c13.55-4.89,27.1-9.79,40.11-16.05c5.87-2.82,11.53-5.98,16.53-10.2
	c2.57-2.16,4.84-4.59,6.41-7.59c2.38-4.52,2.34-9.05-0.52-13.29c-1.41-2.09-3.16-4.03-5.06-5.69c-5.49-4.82-11.91-8.21-18.6-10.99
	c-9.03-3.74-18.23-7.06-27.29-10.73c-5.41-2.19-10.7-4.66-16-7.09c-1.24-0.57-2.38-1.43-3.44-2.3c-2.35-1.92-2.58-3.74-0.84-6.2
	c0.6-0.84,1.29-1.64,2.02-2.37c3.99-4.01,8.69-6.97,13.8-9.34C307.02,245.26,307.46,245.03,308.18,244.68z M298.84,242.73
	c-0.02-0.12-0.03-0.25-0.05-0.37c-0.65,0.05-1.35-0.01-1.95,0.18c-1.06,0.34-2.11,0.77-3.1,1.29c-6.9,3.58-13.38,7.8-19.38,12.74
	c-2.75,2.26-5.36,4.67-7.12,7.84c-1.53,2.76-1.22,5.38,1.05,7.58c1.04,1.01,2.23,2,3.53,2.61c3.72,1.74,7.48,3.4,11.3,4.88
	c7.51,2.9,15.15,5.44,22.58,8.54c4,1.67,7.84,3.9,11.43,6.35c4.1,2.79,3.98,5.05-0.1,7.88c-2.16,1.49-4.51,2.75-6.9,3.84
	c-9.05,4.11-18.56,6.94-28.05,9.8c-16.37,4.94-32.8,9.64-49.15,14.66c-14.07,4.32-27.91,9.35-41.17,15.78
	c-3.72,1.8-7.28,3.99-10.72,6.3c-1.47,0.99-2.65,2.61-3.58,4.18c-1.03,1.73-1.01,3.75,0.44,5.34c2.23,2.44,5.26,2.51,8.3,2.48
	c-0.24-0.35-0.55-0.52-0.86-0.66c-1.22-0.55-2.49-1.01-3.65-1.66c-2.56-1.43-2.96-3.31-0.97-5.48c1.24-1.35,2.71-2.58,4.29-3.52
	c3.12-1.86,6.32-3.61,9.6-5.16c15.11-7.11,30.86-12.51,46.8-17.41c17.09-5.25,34.23-10.32,51.32-15.59
	c7.49-2.31,14.94-4.79,21.85-8.56c2.18-1.19,4.27-2.68,6.05-4.4c2.53-2.45,2.43-5.31-0.1-7.76c-1.51-1.46-3.24-2.76-5.03-3.86
	c-6.01-3.69-12.52-6.29-19.13-8.67c-6.59-2.38-13.24-4.59-19.78-7.1c-2.35-0.9-4.58-2.27-6.63-3.74c-2.37-1.7-2.7-3.82-1.08-6.24
	c1.27-1.89,2.74-3.7,4.41-5.25c6.63-6.16,14.1-11.16,22.03-15.48C296.38,243.48,297.65,243.17,298.84,242.73z M58.58,311.58
	c-0.1-0.06-0.19-0.11-0.29-0.17c-0.79,0.36-1.55,0.83-2.38,1.06c-3.53,0.97-7.15,1.06-10.79,1.09c-1.42,0.01-1.66-0.49-1.56-1.72
	c0.7-9.07,3.29-17.46,8.41-25.07c1.29-1.91,2.88-2.86,4.98-3.34c3.9-0.9,6.71,0.55,8.14,4.29c0.25,0.64,0.46,1.31,0.59,1.98
	c0.09,0.46,0.14,1.01-0.04,1.41c-2.63,5.71-3.78,11.77-4.03,18c-0.19,4.83,1.33,8.89,5.67,11.65c2.51,1.6,4.93,3.39,7.2,5.33
	c1.28,1.09,2.23,2.59,3.2,3.99c0.31,0.45,0.24,1.18,0.34,1.78c-0.12,0.1-0.24,0.2-0.36,0.3c-1.04-0.47-2.17-0.82-3.1-1.45
	c-1.31-0.9-2.46-2.03-3.71-3.02c-0.74-0.58-1.6-1.05-2.48-0.36c-0.84,0.66-0.52,1.55-0.21,2.38c1.22,3.24,2.44,6.48,3.64,9.73
	c0.23,0.63,0.38,1.29,0.66,2.28c-0.65-0.44-1.03-0.63-1.33-0.91c-2.14-2.02-4.27-4.04-6.38-6.09c-1.09-1.05-2.08-2.2-3.21-3.21
	c-0.35-0.31-1.17-0.54-1.47-0.34c-0.39,0.26-0.66,0.99-0.63,1.5c0.05,0.75,0.46,1.48,0.63,2.23c0.35,1.6,0.69,3.2,0.93,4.81
	c0.06,0.44-0.28,0.93-0.43,1.4c-0.42-0.18-0.91-0.28-1.25-0.56c-2.32-1.92-4.02-4.28-4.97-7.15c-0.19-0.57-0.31-1.23-0.67-1.67
	c-0.34-0.42-0.97-0.87-1.44-0.83c-0.47,0.03-1.02,0.57-1.31,1.03c-0.29,0.46-0.3,1.1-0.47,1.85c-0.55-0.85-0.91-1.6-1.45-2.18
	c-0.54-0.58-1.21-1.16-1.93-1.4c-0.48-0.16-1.35,0.12-1.68,0.51c-0.26,0.31-0.15,1.19,0.11,1.64c0.87,1.54,1.83,3.04,2.85,4.49
	c1.66,2.38,2.81,2.55,5.04,0.82c0.4,0.56,0.74,1.19,1.22,1.67c1.33,1.35,2.58,2.84,4.11,3.91c2.13,1.5,4.52,0.3,4.89-2.28
	c0.12-0.81,0.07-1.64,0.03-2.46c-0.04-0.7-0.18-1.39-0.32-2.42c0.57,0.6,0.86,0.96,1.21,1.27c2.47,2.22,4.92,4.48,7.48,6.61
	c0.48,0.4,1.56,0.51,2.12,0.24c0.48-0.24,0.68-1.18,0.86-1.85c0.1-0.39-0.01-0.87-0.14-1.27c-0.75-2.44-1.54-4.86-2.31-7.3
	c-0.14-0.45-0.26-0.92-0.46-1.61c1.16,0.63,2,1.16,2.9,1.57c1.6,0.73,3.31,1.51,4.84,0.06c1.58-1.5,1.04-3.35,0.36-5.08
	c-0.83-2.12-2.33-3.74-4.11-5.09c-2.76-2.09-5.55-4.14-8.36-6.16c-1.63-1.18-2.66-2.72-3.03-4.67c-0.24-1.27-0.47-2.57-0.44-3.86
	c0.13-5.09,0.92-10.09,2.73-14.87c1.6-4.23,3.6-8.25,6.97-11.42c0.16-0.15,0.3-0.53,0.22-0.65c-0.14-0.21-0.53-0.48-0.7-0.42
	c-0.63,0.23-1.38,0.44-1.79,0.91c-1.44,1.67-2.75,3.44-4.1,5.17c-0.22,0.28-0.41,0.58-0.61,0.86c-1.92-4.03-4.22-7.48-9.08-8.42
	c0.3-0.41,0.67-0.63,0.98-0.91c5.12-4.54,11.26-7.02,17.77-8.73c0.96-0.25,1.94-0.47,2.87-0.81c0.38-0.14,0.67-0.57,0.99-0.86
	c-0.39-0.16-0.8-0.49-1.18-0.45c-1.24,0.11-2.48,0.32-3.71,0.56c-8.54,1.69-15.82,5.63-21.75,12.06
	c-8.56,9.28-12.46,20.41-13.16,32.81c-0.24,4.23,0.33,8.39,2.01,12.33c0.35,0.81,0.89,1.58,1.49,2.23c0.23,0.25,0.95,0.33,1.28,0.16
	c0.33-0.17,0.64-0.76,0.61-1.14c-0.06-0.76-0.34-1.51-0.56-2.25c-0.52-1.81-1.05-3.61-1.61-5.54c0.95-0.16,1.63-0.23,2.29-0.39
	c1.97-0.49,3.93-0.99,5.87-1.58c0.3-0.09,0.46-0.67,0.69-1.02c-0.37,0.03-0.78-0.02-1.11,0.11c-2.48,1.03-5.05,1.58-7.87,1.77
	c-0.09-1.47-0.17-2.78-0.26-4.17c2.27,0,4.32,0.18,6.31-0.05c2.38-0.28,4.73-0.85,7.06-1.43C57.54,312.66,58.03,312,58.58,311.58z
	 M117.36,417.91c3.25-0.31,8.16-0.77,13.06-1.23c0.73-0.07,1.45-0.16,1.52-1.07c0.07-0.99-0.7-1.24-1.46-1.3
	c-0.99-0.08-1.99-0.08-2.98-0.02c-7.95,0.42-15.9,0.84-23.85,1.3c-8.98,0.52-17.96,1.08-26.94,1.64c-0.73,0.05-1.46,0.18-2.18,0.35
	c-0.91,0.22-1.6,0.73-1.61,1.76c-0.02,1.04,0.65,1.57,1.57,1.79c0.63,0.15,1.28,0.28,1.92,0.3c4.93,0.18,9.86,0.49,14.78,0.46
	c15.06-0.09,30.11-0.3,45.17-0.49c1.86-0.02,3.72-0.12,5.57-0.25c0.55-0.04,1.12-0.2,1.61-0.44c0.82-0.4,1.22-1.12,0.96-2.04
	c-0.28-0.97-1.02-1.2-1.94-1.08c-0.86,0.11-1.72,0.29-2.58,0.3C131.9,417.92,123.81,417.91,117.36,417.91z M263.82,211.83
	c-1.58-0.96-2.97-0.82-4.31-0.51c-1.89,0.45-3.76,0.99-5.61,1.61c-10.81,3.59-20.96,8.66-30.84,14.21
	c-15.95,8.96-31.78,18.14-47.64,27.26c-0.44,0.25-0.68,0.86-1.02,1.3c0.56,0.03,1.16,0.21,1.68,0.08c4.74-1.26,8.91-3.74,13.13-6.14
	c10.91-6.2,21.78-12.45,32.76-18.53c12.28-6.8,24.91-12.86,38.39-16.97c0.74-0.22,1.46-0.56,2.11-0.98
	C262.95,212.87,263.29,212.37,263.82,211.83z M160.04,315.61c-2.1-1.25-4.02-2.31-5.84-3.52c-1.73-1.15-3.28-2.57-5.03-3.67
	c-0.75-0.47-2.34-0.88-2.62-0.54c-0.81,0.97-0.04,2.07,0.77,2.81c1.6,1.45,3.25,2.86,4.96,4.18c4.52,3.48,9.68,5.22,15.37,4.99
	c3.71-0.15,7.41-0.63,11.1-1.05c6.7-0.75,12.04-3.76,15.62-9.61c0.61-1,0.93-1.92,0.02-2.95c-0.19-0.21-0.11-0.77,0-1.12
	c0.33-1.07,0.85-2.09,1.09-3.18c0.44-2.07-0.65-3.45-2.77-3.67c-0.41-0.04-0.82-0.06-1.4-0.1c0.3-0.5,0.52-0.86,0.73-1.22
	c0.55-0.93,1.22-1.81,1.62-2.8c0.77-1.92-0.14-3.24-2.16-3.17c-2.82,0.1-5.31,1.15-7.46,2.96c-0.35,0.3-0.52,0.82-0.77,1.24
	c0.1,0.1,0.2,0.2,0.3,0.3c2.45-0.8,4.9-1.6,7.35-2.4c0.07,0.14,0.15,0.28,0.22,0.41c-0.69,1.03-1.43,2.03-2.07,3.09
	c-1.53,2.54-0.63,4.19,2.31,4.32c0.41,0.02,0.82,0.05,1.32,0.09c-0.27,2.45-2.67,4.44-0.97,6.92c-2.96,3.63-6.44,6.32-11.07,7.12
	c-3.15,0.55-6.33,1-9.51,1.33c-3.19,0.33-6.4,0.27-9.55-0.53c-0.72-0.18-1.06-0.47-1.09-1.29c-0.14-3.25,0.58-6.32,1.7-9.33
	c0.12-0.31,0.2-0.63,0.3-0.94c-0.14-0.03-0.28-0.06-0.43-0.09C160.45,307.63,159.64,311.26,160.04,315.61z M420.95,238.85
	c0.07-0.2,0.14-0.4,0.2-0.59c-1.23-0.77-2.39-1.69-3.7-2.29c-8.01-3.7-15.96-7.55-24.1-10.93c-8.63-3.58-17.44-6.72-26.19-10
	c-3.07-1.15-6.19-2.18-9.31-3.21c-0.77-0.25-1.61-0.39-2.42-0.38c-0.43,0-1.15,0.36-1.21,0.66c-0.09,0.43,0.18,1.15,0.54,1.4
	c0.65,0.47,1.47,0.71,2.23,1c2.55,0.96,5.12,1.87,7.65,2.86c4.35,1.69,8.69,3.43,13.03,5.16c8.96,3.57,17.93,7.14,26.89,10.7
	c4.3,1.71,8.58,3.44,12.91,5.06C418.56,238.69,419.79,238.68,420.95,238.85z M141.2,284.13c4.97,9.75,11.01,18.03,22.65,19.78
	c-0.16,1.87-0.41,3.71-0.46,5.56c-0.13,4.64-0.09,4.64,0.62,5.25c0.18-3.58,0.35-7.23,0.53-10.81c1.5-0.24,2.71-0.38,3.88-0.65
	c1.23-0.28,2.6-0.54,2.07-2.4c-0.04-0.13,0.08-0.33,0.17-0.48c1.72-2.92,3.58-5.74,6.21-7.93c1.58-1.32,2.87-0.96,3.62,0.98
	c0.88,2.26,0.88,4.58,0.19,6.88c-0.15,0.49-0.6,0.89-0.91,1.33c-0.34-0.35-0.65-0.73-1.03-1.03c-0.41-0.32-0.88-0.55-1.33-0.82
	c-0.24,0.51-0.67,1-0.7,1.52c-0.08,1.38,0.9,2.57,2.17,2.85c1.27,0.28,2.64-0.38,3.26-1.79c1.31-2.99,1.32-6.07,0.25-9.12
	c-1.32-3.73-4.24-4.39-7.11-1.66c-2.32,2.21-4.07,4.86-5.3,7.78c-0.53,1.25-1.32,1.51-2.44,1.68c-4.73,0.71-8.9-0.66-12.72-3.33
	c-4.17-2.92-7.29-6.8-9.6-11.27c-2.05-3.95-3.72-8.1-5.61-12.13c-0.64-1.36-1.34-2.73-2.24-3.93c-0.46-0.62-1.39-0.92-2.15-1.26
	c-0.18-0.08-0.62,0.22-0.79,0.45c-0.08,0.11,0.18,0.5,0.34,0.73c0.67,0.93,1.55,1.76,1.99,2.78c1.18,2.69,2.18,5.47,3.24,8.21
	c0.04,0.1-0.01,0.24-0.01,0.35c-3.31,1.85-6.33,6.74-5.43,8.89c1.42-3.12,2.63-6.35,5.99-8.07c0.09,0.42,0.13,0.93-0.1,1.13
	c-2.24,1.95-3.62,4.49-4.89,7.1c-0.17,0.36-0.16,0.8-0.23,1.21C137.5,289.48,138.72,286.47,141.2,284.13z M128.84,313.91
	c-0.25,11.86-0.46,20.73-0.6,29.6c-0.01,0.48,0.45,1.25,0.86,1.39c0.5,0.16,1.39-0.01,1.72-0.38c0.48-0.54,0.76-1.36,0.84-2.1
	c0.16-1.33,0.13-2.68,0.15-4.02c0.12-11.12,0.28-22.25,0.31-33.37c0.01-4.8-0.23-9.6-0.42-14.4c-0.08-1.94-0.72-3.75-1.93-5.29
	c-0.28-0.36-1.02-0.68-1.4-0.55c-0.38,0.13-0.69,0.79-0.82,1.28c-0.1,0.37,0.12,0.84,0.19,1.26c0.36,1.94,1.01,3.88,1.04,5.83
	C128.91,301.06,128.84,308.98,128.84,313.91z M174.99,186.34c0.85,0.19,1.56,0.48,2.26,0.46c0.74-0.02,1.47-0.48,2.22-0.51
	c5.92-0.24,11.83-0.43,17.75-0.62c3.2-0.1,6.4-0.13,9.6-0.3c0.65-0.04,1.72,0.09,1.74-1.03c0-0.12-1.25-0.47-1.85-0.34
	c-1.05,0.23-1.55-0.08-1.79-1.06c-0.08-0.34-0.23-0.65-0.32-0.99c-0.94-3.25-3.1-3.77-5.49-2.19c-0.13,0.09-0.3,0.12-0.47,0.18
	c-0.23-0.93-0.39-1.82-0.68-2.66c-0.87-2.46-2.96-3.38-5.27-2.15c-1.24,0.66-2.31,1.64-3.41,2.54c-0.82,0.67-1.56,1.43-2.32,2.14
	c-1.91-1.86-3.35-2.13-5.16-0.68C179.27,181.13,176.84,183.27,174.99,186.34z M387.17,146.16c-0.01,0.2-0.02,0.4-0.03,0.6
	c0.61,0.09,1.22,0.25,1.83,0.25c9,0.01,17.99,0.01,26.99,0c0.22,0,0.45,0.06,0.64-0.02c0.34-0.13,0.64-0.33,0.96-0.51
	c-0.2-0.28-0.34-0.66-0.62-0.82c-0.78-0.45-1.59-0.87-2.43-1.2c-1.19-0.46-1.83-1.22-1.71-2.55c0.06-0.64,0.05-1.3,0-1.94
	c-0.14-1.91-1.54-2.69-3.18-1.69c-0.99,0.6-1.82,1.45-2.73,2.18c-0.41,0.33-0.84,0.65-1.27,0.98c-1.4-2.17-2.45-2.69-4.77-1.88
	c-2.77,0.97-5.46,2.15-8.13,3.36c-1.09,0.49-1.41,1.54-1.13,2.83c0.25-0.13,0.43-0.24,0.61-0.32c3.1-1.48,6.19-3,9.32-4.42
	c1.13-0.52,2.05-0.2,2.61,1.09c0.53,1.23,1.29,1.42,2.38,0.65c0.88-0.62,1.65-1.4,2.51-2.05c0.62-0.47,1.3-0.87,2.08-1.38
	c0.73,2.39-0.11,5.16,3.04,6.27C404.9,145.78,396.04,145.97,387.17,146.16z M429.39,32.81c-0.11-0.16-0.22-0.32-0.33-0.48
	c-0.19,0.05-0.39,0.08-0.57,0.15c-3.68,1.62-7.57,2.5-11.55,2.77c-5.27,0.36-7.97-2.92-6.77-8.04c0.7-3,2.1-5.66,4.05-8.04
	c0.35-0.43,0.64-0.9,0.96-1.35c-0.36-0.11-0.52-0.06-0.65,0.02c-0.22,0.13-0.46,0.24-0.65,0.41c-3.08,2.77-5.26,6.13-5.98,10.23
	c-0.96,5.45,2.26,9.26,7.81,9.32c3.74,0.04,7.31-0.89,10.61-2.62C427.46,34.6,428.38,33.61,429.39,32.81z M63.58,342.68
	c-0.12,0.09-0.24,0.18-0.36,0.26c0.33,0.56,0.52,1.32,1.01,1.64c1.49,0.99,3.01,2.06,4.68,2.65c3.25,1.15,6.65,0.87,10.01,0.38
	c5.04-0.73,9.92-2.03,14.42-4.47c1.23-0.67,2.33-1.63,3.38-2.57c0.25-0.23,0.08-0.92,0.1-1.4c-0.46,0.02-1.06-0.13-1.37,0.1
	c-3.9,2.79-8.28,4.48-12.87,5.67c-1.76,0.45-3.55,0.82-5.34,1.05C72.3,346.61,67.43,346.79,63.58,342.68z M308.04,230.18
	c-0.01-0.14-0.02-0.29-0.02-0.43c0.11-0.12,0.3-0.23,0.33-0.37c0.12-0.52,0.19-1.06,0.28-1.59c-0.58-0.01-1.22-0.16-1.73,0.03
	c-0.48,0.18-0.86,0.7-1.22,1.13c-1.34,1.57-1.04,2.99,0.96,3.35c4.11,0.75,8.27,1.28,12.42,1.78c1.3,0.16,2.05-0.8,1.7-2.1
	c-0.29-1.06-0.8-2.11-1.43-3.01c-0.52-0.74-1.33-1.32-2.11-1.8c-0.29-0.18-1.03-0.04-1.28,0.23c-0.22,0.23-0.17,0.89-0.01,1.27
	c0.34,0.82,0.82,1.58,1.44,2.74C314.02,230.97,311.03,230.58,308.04,230.18z M105.17,287.75c0,1.75,0.05,3.39-0.01,5.02
	c-0.11,3.02-0.3,6.04-0.39,9.06c-0.02,0.8,0.03,1.82,1.15,1.84c1.03,0.03,1.05-0.97,1.26-1.7c0.04-0.12,0.05-0.26,0.06-0.38
	c0.19-2.32,0.45-4.65,0.54-6.97c0.09-2.4,0.02-4.8,0.02-7.24c1.31-0.44,2.94-0.33,4.21-1.88c-3.17-0.46-6.01-0.2-8.85,0.17
	c-0.26,0.03-0.64,0.65-0.61,0.95c0.03,0.32,0.44,0.74,0.78,0.86C103.87,287.68,104.49,287.66,105.17,287.75z M434.36,29.13
	c-0.05-0.1-0.1-0.21-0.15-0.31c-0.25,0-0.5-0.01-0.75,0c-2.24,0.11-4.49,0.43-6.71,0.28c-6.48-0.42-10.73-6.64-8.62-12.38
	c0.14-0.39-0.02-0.88-0.03-1.32c-0.46,0.23-1.18,0.34-1.32,0.7c-0.46,1.1-0.83,2.27-1,3.45c-0.57,3.92,1.46,8.48,4.64,10.17
	c4.21,2.23,8.53,2.31,12.82,0.15C433.65,29.68,433.99,29.38,434.36,29.13z M114.65,297.33c-0.21,0.01-0.41,0.03-0.62,0.04
	c-0.48-1.46-0.92-2.93-1.47-4.36c-0.2-0.52-0.65-0.95-0.99-1.42c-0.33,0.54-0.96,1.07-0.95,1.61c0.04,2.58,0.93,4.92,2.51,6.95
	c0.97,1.24,2.48,1.16,3.42-0.09c0.33-0.44,0.66-0.95,0.78-1.48c0.6-2.48,1.14-4.96,1.65-7.46c0.1-0.49,0.12-1.14-0.12-1.52
	c-0.33-0.52-0.95-1.16-1.45-1.16c-0.49,0-1.15,0.64-1.43,1.16c-0.31,0.58-0.26,1.34-0.38,2.02
	C115.29,293.53,114.97,295.43,114.65,297.33z M92.38,305.87c0.1-0.09,0.21-0.17,0.31-0.26c-0.47-0.63-0.95-1.24-1.41-1.88
	c-2.76-3.82-6.25-6.31-11.21-5.97c-0.66,0.05-1.3,0.45-1.95,0.68c0.25,0.61,0.36,1.34,0.77,1.82c3.58,4.26,5.66,9.22,7.2,14.5
	c0.64,2.22,1.47,4.44,2.59,6.45c1.38,2.48,3.22,2.39,4.76-0.01c3.67-5.72,0.62-12.46-3.16-15.42c-0.41-0.32-0.99-0.42-1.49-0.62
	c2.62,2.14,4.16,4.83,5.09,7.89c0.88,2.88,0.23,5.55-1.44,7.98c-0.9,1.31-1.67,1.32-2.68,0.13c-0.39-0.46-0.76-0.97-0.98-1.52
	c-0.7-1.72-1.41-3.43-1.95-5.2c-1.62-5.32-3.58-10.46-7.3-14.73c-0.25-0.29-0.39-0.69-0.61-1.1c4.46-0.62,7.9,0.71,10.68,3.99
	C90.5,303.73,91.45,304.79,92.38,305.87z M98.06,252.69c0.22-0.72,1.01-1.52-0.22-1.55c-0.57-0.01-1.31,0.62-1.67,1.16
	c-0.2,0.3,0.04,1.17,0.36,1.52c3.13,3.37,9.82,3.74,13.33,0.78c0.26-0.22,0.61-0.46,0.68-0.76c0.12-0.5,0.24-1.15,0.01-1.54
	c-0.16-0.27-0.93-0.33-1.37-0.22c-0.57,0.14-1.07,0.55-1.61,0.82C104.38,254.47,101.25,254.23,98.06,252.69z M101.84,246.93
	c0.11-0.02,0.22-0.05,0.33-0.07c-0.82-3.92-1.62-7.85-2.46-11.77c-0.16-0.73-0.53-1.49-1.49-1.26c-0.92,0.22-0.75,1.02-0.65,1.71
	c0.39,2.69,0.79,5.39,1.16,8.08c0.23,1.67,0.36,3.36,0.7,5c0.09,0.43,0.81,1.03,1.21,1c0.41-0.03,0.89-0.68,1.1-1.16
	C101.93,248.03,101.81,247.45,101.84,246.93z M108.16,245.02c-0.16-1.7-0.2-3.04-0.43-4.36c-0.46-2.59-0.96-5.18-1.59-7.73
	c-0.12-0.48-0.93-0.78-1.42-1.16c-0.2,0.54-0.62,1.11-0.56,1.63c0.43,3.99,0.95,7.98,1.47,11.97c0.1,0.76,0.28,1.53,0.56,2.25
	c0.11,0.3,0.59,0.69,0.84,0.64c0.34-0.06,0.81-0.45,0.88-0.77C108.08,246.57,108.1,245.61,108.16,245.02z M275.3,133.89
	c-0.14-0.02-0.27-0.04-0.41-0.06c-0.09,0.63-0.26,1.26-0.25,1.89c0.18,9.12,0.37,18.24,0.58,27.36c0.01,0.6,0.1,1.21,0.21,1.8
	c0.04,0.24,0.25,0.44,0.43,0.74C276.66,164.19,276.06,135.12,275.3,133.89z M262.7,205.12c0.19-0.19,0.37-0.39,0.56-0.58
	c-1.26-1.33-2.53-2.66-3.89-4.09c1.81-1.36,3.55-2.67,5.29-3.98c-0.1-0.13-0.19-0.26-0.29-0.4c-2.47,0.26-4.05,2.2-6.55,3.72
	c-2.12-2.18-4.32-4.44-6.53-6.71c1.35,2.93,3.88,4.95,5.84,7.12c-1.2,1.3-2.29,2.47-3.37,3.66c-1.06,1.17-2.33,2.22-2.8,3.79
	c0.14,0.13,0.28,0.27,0.42,0.4c2.3-2.24,4.6-4.48,6.88-6.7C259.85,202.71,261.27,203.91,262.7,205.12z M127.88,349.27
	c0-0.64,0.08-0.97-0.02-1.23c-0.14-0.36-0.45-0.95-0.64-0.93c-0.38,0.04-0.83,0.35-1.06,0.68c-0.26,0.37-0.29,0.89-0.44,1.34
	c-1.22,3.63-2.45,7.26-3.67,10.9c-0.29,0.86-1.12,1.96-0.08,2.56c1.21,0.7,1.81-0.6,2.32-1.45
	C126.55,357.38,127.34,353.19,127.88,349.27z M328.4,163.37c0,0.18-0.01,0.36-0.01,0.54c0.34,0.08,0.69,0.26,1,0.22
	c1.62-0.23,3.24-0.47,4.84-0.81c0.42-0.09,0.76-0.58,1.14-0.88c-0.31-0.37-0.57-0.84-0.95-1.1c-0.53-0.36-1.16-0.56-1.75-0.84
	c-0.59-0.28-1.17-0.57-2.04-0.99c1.47-0.29,2.58-0.45,3.65-0.74c0.4-0.11,1.04-0.54,1.01-0.77c-0.05-0.42-0.42-0.97-0.8-1.14
	c-1.34-0.6-2.72-1.12-4.12-1.55c-0.43-0.13-0.98,0.12-1.48,0.2c0.31,0.42,0.54,0.99,0.96,1.21c0.85,0.46,1.8,0.74,2.97,1.19
	c-0.49,0.15-0.71,0.27-0.94,0.29c-0.95,0.06-1.9,0.05-2.84,0.16c-0.41,0.05-0.79,0.34-1.19,0.51c0.28,0.34,0.5,0.8,0.86,0.99
	c0.99,0.52,2.04,0.93,3.07,1.38c0.72,0.31,1.43,0.61,2.15,0.92c-0.02,0.13-0.03,0.25-0.05,0.38
	C332.07,162.81,330.24,163.09,328.4,163.37z M339.97,125.81c-0.9,0.87-0.28,1.53,0.37,1.86c1.37,0.7,2.81,1.32,4.28,1.79
	c1.9,0.61,3.26,0.33,3.65-0.63c0.61-1.52-0.29-2.62-1.33-3.5c-1.1-0.92-2.07-1.75-1.63-3.42c0.07-0.27-0.61-0.74-0.95-1.11
	c-0.34,0.32-0.95,0.61-0.99,0.96c-0.11,1.15-0.09,2.34,0.06,3.49c0.04,0.31,0.7,0.79,1.05,0.77c1.34-0.07,2.17,0.58,2.41,2.32
	C344.31,128.13,341.95,127.6,339.97,125.81z M32.91,313.04c0.14-0.09,0.27-0.18,0.41-0.27c-0.16-0.92-0.37-1.84-0.46-2.77
	c-0.31-3.34-0.38-6.65,1.21-9.77c0.2-0.38,0.14-0.9,0.2-1.35c-0.54,0.11-1.12,0.15-1.62,0.36c-0.28,0.12-0.49,0.48-0.66,0.78
	c-1.91,3.5-2.27,7.14-0.7,10.84C31.63,311.67,32.36,312.32,32.91,313.04z M338.7,93.55c0.39,0.63,0.6,1.21,1.01,1.53
	c0.17,0.14,1.02-0.15,1.13-0.42c1.13-2.71,2.24-5.43,3.19-8.2c0.16-0.47-0.48-1.21-0.75-1.82c-0.6,0.31-1.55,0.48-1.74,0.95
	C340.5,88.18,339.64,90.85,338.7,93.55z M344.64,135.88c0.03,0.11,0.06,0.22,0.09,0.34c-0.93,0.52-1.87,1-2.77,1.57
	c-0.71,0.45-1.24,1.07-0.47,1.89c0.64,0.68,3.68,0.88,4.46,0.33c0.14-0.1,0.18-0.35,0.32-0.65c-0.89-0.22-1.68-0.41-2.43-0.6
	c1.09-0.95,2.19-1.72,3.06-2.71c0.78-0.89,0.34-1.76-0.84-1.91c-1.45-0.19-2.92-0.39-4.38-0.43c-0.48-0.01-0.98,0.46-1.47,0.71
	c0.41,0.36,0.77,0.93,1.24,1.04C342.49,135.72,343.57,135.76,344.64,135.88z M345.44,156.13c0.02-0.12,0.04-0.24,0.05-0.35
	c-0.41-0.16-0.8-0.38-1.23-0.47c-1.1-0.23-2.21-0.39-3.31-0.61c-1.52-0.31-2.28-1.54-1.73-3.02c0.16-0.45,0.86-1.04,1.23-0.98
	c0.5,0.07,1.02,0.63,1.33,1.12c0.18,0.29-0.02,0.83-0.05,1.26c-0.08,1.15,0.46,1.54,1.49,1.07c1.19-0.55,2.14-2.07,2.04-3.37
	c-0.03-0.39-0.29-0.76-0.55-1.42c-0.68,1.17-1.17,2.02-1.83,3.15c-0.16-0.56-0.2-0.72-0.24-0.88c-0.33-1.35-1.44-2.26-2.66-2.17
	c-1.24,0.1-2.12,1.18-2.12,2.67c0,0.56,0.24,1.13,0.17,1.67c-0.14,1.04,0.47,1.42,1.28,1.59c1.6,0.34,3.22,0.63,4.84,0.88
	C344.56,156.33,345.01,156.18,345.44,156.13z M283.01,114.37c-0.14,0-0.27,0.01-0.41,0.01c0.05,0.48-0.03,1.03,0.18,1.43
	c0.74,1.5,1.53,2.99,2.4,4.43c0.37,0.62,0.48,1.09,0.2,1.77c-0.39,0.95-0.62,1.97-0.92,2.96c0.13,0.05,0.25,0.1,0.38,0.15
	c0.51-0.98,1.02-1.96,1.56-3c0.89,1.13,1.7,2.15,2.51,3.18c0.14-0.09,0.27-0.18,0.41-0.27c-0.5-0.92-0.9-1.92-1.54-2.73
	c-0.76-0.95-0.64-1.69-0.06-2.65c1.49-2.47,2.87-5,4.33-7.58c-0.26-0.06-0.53-0.17-0.57-0.11c-1.79,2.55-3.56,5.12-5.43,7.81
	C285.05,118.01,284.03,116.19,283.01,114.37z M122.55,229.23c2.46-0.44,4.68-0.84,6.89-1.25c0.29-0.05,0.67-0.17,0.8-0.38
	c0.31-0.51,0.74-1.14,0.66-1.64c-0.07-0.38-0.94-0.99-1.31-0.9c-2.5,0.6-4.98,1.33-7.43,2.12c-0.34,0.11-0.78,0.89-0.68,1.2
	C121.61,228.77,122.24,229,122.55,229.23z M338.87,167.18c1.15,0.23,1.89,0.45,2.64,0.51c0.4,0.03,0.82-0.24,1.22-0.37
	c-0.3-0.31-0.55-0.79-0.91-0.9c-1.44-0.44-2.91-0.82-4.39-1.09c-0.6-0.11-1.26,0.12-1.9,0.19c0.4,0.49,0.7,1.12,1.21,1.43
	c1.21,0.74,2.07,1.63,2.17,3.28c-0.74-0.09-1.4-0.24-2.06-0.23c-0.36,0-0.71,0.27-1.06,0.43c0.31,0.24,0.59,0.62,0.94,0.69
	c1.28,0.29,2.66,0.26,3.6,1.45c0.12,0.15,0.68-0.04,1.04-0.08c-0.04-0.31-0.01-0.65-0.15-0.91
	C340.52,170.2,339.77,168.85,338.87,167.18z M336.99,136.8c0.03-0.25,0.07-0.5,0.1-0.76c-1.67-0.29-3.34-0.62-5.01-0.86
	c-0.86-0.13-1.49-0.46-1.67-1.34c-0.15-0.7-0.79-1.72,0.23-2.01c0.93-0.27,0.95,0.86,1.13,1.53c0.32,1.18,0.91,1.48,2.01,0.9
	c0.88-0.46,1.73-0.98,2.54-1.55c0.34-0.23,0.54-0.65,0.81-0.99c-0.43-0.06-0.91-0.26-1.28-0.13c-0.6,0.2-1.13,0.61-1.68,0.94
	c-0.46,0.28-0.92,0.58-1.46,0.92c-0.37-0.71-0.55-1.4-0.99-1.81c-0.45-0.41-1.25-0.83-1.73-0.69c-0.47,0.14-0.98,0.95-1.03,1.52
	c-0.18,1.9,0.99,3.36,2.91,3.68C333.56,136.44,335.28,136.59,336.99,136.8z M117.85,221.69c0.17,0.3,0.29,0.78,0.55,0.89
	c0.26,0.11,0.82-0.03,1.01-0.26c1.49-1.78,2.97-3.58,4.35-5.45c0.46-0.62,0.68-1.63-0.23-2.01c-0.47-0.19-1.49,0.17-1.84,0.62
	c-1.2,1.51-2.24,3.17-3.29,4.79C118.16,220.66,118.06,221.15,117.85,221.69z M354.83,90.76c0.05-1.49-0.91-2.1-1.92-1.38
	c-2.09,1.49-3.76,3.41-4.88,5.74c-0.13,0.27,0.07,0.7,0.12,1.06c0.31-0.08,0.69-0.08,0.92-0.26c1.64-1.26,3.28-2.52,4.86-3.85
	C354.4,91.68,354.64,91.04,354.83,90.76z M333.25,94.44c-0.51-1.49-0.81-2.82-1.41-3.99c-0.6-1.17-1.45-2.21-2.31-3.22
	c-0.22-0.26-1.06-0.4-1.23-0.22c-0.28,0.3-0.47,0.99-0.32,1.34c0.91,2.04,1.9,4.05,2.96,6.02c0.2,0.37,0.8,0.66,1.25,0.71
	C332.51,95.12,332.87,94.68,333.25,94.44z M110.9,217.72c0.09,0.67,0.05,1.05,0.2,1.34c0.22,0.42,0.58,0.76,0.89,1.14
	c0.26-0.39,0.64-0.75,0.76-1.18c0.52-1.87,0.99-3.74,1.42-5.63c0.18-0.79,0.3-1.62,0.23-2.42c-0.03-0.38-0.51-0.89-0.89-1.02
	c-0.22-0.07-0.87,0.44-0.96,0.78C111.92,213.14,111.39,215.58,110.9,217.72z M330.53,124.31c-1.84,1.81-1.84,2.67-0.05,3.69
	c1.38,0.79,2.86,1.43,4.36,1.94c1.31,0.45,2.17-0.01,2.41-0.98c0.32-1.29-0.41-2.67-1.68-3.04c0.1,0.49,0.28,0.96,0.25,1.4
	c-0.03,0.44-0.27,0.88-0.42,1.31c-0.55-0.31-1.18-0.53-1.63-0.95c-0.26-0.25-0.18-0.83-0.36-1.22c-0.17-0.38-0.47-0.69-0.71-1.03
	c-0.11,0.03-0.22,0.07-0.33,0.11c-0.12,0.59-0.24,1.17-0.36,1.73C330.19,127.09,330.57,125.68,330.53,124.31z M336.83,139.55
	c-0.5-0.31-0.61-0.43-0.72-0.43c-1.89-0.02-3.78-0.12-5.67-0.01c-0.87,0.05-1.06,1.07-0.28,1.64c1.43,1.04,2.96,1.94,4.47,2.86
	c0.22,0.13,0.6-0.01,0.91-0.02c-0.1-0.26-0.16-0.53-0.29-0.76c-0.74-1.24-0.44-2.33,0.8-2.91
	C336.21,139.84,336.37,139.76,336.83,139.55z M334.15,150.22c0.07,0.55,0.2,0.98,0.17,1.39c-0.03,0.37-0.22,0.73-0.34,1.1
	c-0.3-0.27-0.74-0.49-0.87-0.83c-0.26-0.63-0.49-0.79-1.13-0.43c-0.31,0.17-1.01,0.21-1.15,0.02c-0.41-0.54-0.62-1.23-1.03-2.11
	c-0.3,0.28-0.93,0.61-0.99,1.01c-0.08,0.55,0.11,1.35,0.5,1.7c1.37,1.26,3.07,1.9,4.93,1.98c1,0.04,1.64-0.46,1.7-1.53
	C336,151.25,335.37,150.37,334.15,150.22z M304.53,225.03c0.3,1.08,0.57,1.39,1.68,1.67c3.74,0.91,7.27,0.32,10.56-1.65
	c0.3-0.18,0.52-0.53,0.73-0.83c0.02-0.04-0.28-0.42-0.38-0.4c-0.44,0.08-0.91,0.19-1.3,0.41c-0.56,0.31-1.01,0.9-1.59,1.06
	c-3,0.83-6.02,1.07-8.98-0.26C305.09,224.97,304.86,225.03,304.53,225.03z M28.85,308.6c0.14-2.43,0.3-4.44,0.34-6.44
	c0.01-0.49-0.35-0.99-0.54-1.49c-0.46,0.31-1.19,0.52-1.34,0.95c-0.63,1.73-0.85,3.56-0.02,5.29
	C27.59,307.52,28.25,307.96,28.85,308.6z M92.14,326.3c-1.71-0.29-3.02,1.15-2.43,2.71c0.16,0.43,1.23,0.99,1.4,0.86
	c0.73-0.56,1.48-1.27,1.86-2.09c0.46-0.99,0.33-2.1-0.61-3.22C92.26,325.29,92.2,325.75,92.14,326.3z M315.1,156.02
	c-0.16-0.22-0.36-0.77-0.63-0.81c-0.37-0.05-1.02,0.18-1.16,0.48c-0.42,0.88-0.76,1.84-0.9,2.8c-0.05,0.38,0.51,1.18,0.82,1.19
	c0.44,0.02,1.16-0.4,1.32-0.81C314.88,158.04,314.91,157.1,315.1,156.02z M316.21,150.39c-0.09-0.47-0.11-0.96-0.28-1.38
	c-0.34-0.81-1.23-0.92-1.57-0.13c-0.39,0.88-0.58,1.89-0.64,2.85c-0.02,0.33,0.6,0.98,0.93,0.99c0.42,0.01,0.97-0.42,1.23-0.81
	C316.14,151.5,316.11,150.91,316.21,150.39z M343.36,146.5c0-0.02,0-0.05,0.01-0.07c0.43,0,0.88,0.08,1.29-0.02
	c0.38-0.09,0.7-0.38,1.05-0.59c-0.35-0.26-0.67-0.68-1.05-0.73c-1.32-0.18-2.66-0.26-3.99-0.3c-0.34-0.01-0.69,0.3-1.04,0.46
	c0.3,0.31,0.56,0.8,0.92,0.89C341.47,146.35,342.42,146.39,343.36,146.5z M342.57,160.62c-1.81-0.35-3.39-0.65-5.24-1.01
	C338.12,161.38,341.22,161.93,342.57,160.62z M104.89,252.63c1.02-0.46,1.97-0.84,2.87-1.32c0.21-0.11,0.26-0.57,0.32-0.88
	c0.01-0.06-0.36-0.29-0.5-0.25c-1.03,0.3-2.06,0.61-3.06,1.01c-0.22,0.09-0.44,0.56-0.39,0.81
	C104.17,252.23,104.57,252.38,104.89,252.63z"/>
<path style="fill:#CC0022;" d="M308.96,132.19c5.67,0.15,6.58,4.66,7.88,8.72c0.36,1.12,0.37,2.4,0.29,3.59
	c-0.04,0.52-0.7,1.33-1.14,1.38c-0.47,0.05-1.29-0.55-1.48-1.05c-0.44-1.16-0.48-2.46-0.89-3.64c-0.56-1.63-1.22-3.23-1.98-4.77
	c-0.47-0.94-1.37-1.42-2.49-1.29c-1.19,0.14-2.12,0.44-2.7,1.77c-3.81,8.66-6.91,17.56-9.13,26.76
	c-2.49,10.31-4.36,20.73-5.62,31.27c-0.79,6.56-1.57,13.13-2.22,19.71c-0.3,3.05-0.27,6.13-0.38,9.2c-0.01,0.19,0.07,0.39,0.14,0.8
	c1.64-2.09,3.06-4.09,4.68-5.92c2.58-2.91,5.29-5.7,7.94-8.54c0.11-0.12,0.19-0.28,0.29-0.41c0.24-0.29,0.5-0.58,0.75-0.87
	c0.21,0.43,0.62,0.87,0.59,1.28c-0.4,5.74-0.87,11.48-1.31,17.22c-0.11,1.44-0.79,2.42-2.12,2.99c-0.35,0.15-0.66,0.38-0.99,0.57
	c0.03,0.12,0.06,0.24,0.09,0.35c0.54-0.16,1.07-0.33,1.61-0.46c0.31-0.08,0.84-0.22,0.9-0.12c0.17,0.3,0.33,0.85,0.17,1.03
	c-0.48,0.56-1.07,1.34-1.69,1.42c-1.43,0.18-2.9-0.02-4.36-0.03c-0.66,0-1.38-0.07-1.97,0.16c-1.79,0.7-3.54,1.53-5.3,2.31
	c-0.08-0.1-0.16-0.2-0.24-0.29c0.31-0.31,0.57-0.72,0.95-0.92c2.58-1.39,5.13-2.87,7.8-4.05c2.43-1.07,3.71-2.42,3.67-5.36
	c-0.05-4.01,0.59-8.02,0.94-12.03c0.02-0.24,0-0.49,0-0.73c-0.19-0.16-0.37-0.32-0.56-0.48c-0.17,0.4-0.26,0.86-0.52,1.2
	c-3.55,4.53-7.14,9.02-10.68,13.56c-0.89,1.14-0.99,1.24-3.41,0.99c0.11,1.87,0.21,3.7,0.36,5.54c0.02,0.2,0.3,0.38,0.41,0.59
	c0.2,0.38,0.63,0.97,0.51,1.13c-0.33,0.44-0.86,0.88-1.38,0.98c-0.37,0.07-0.93-0.32-1.25-0.65c-0.23-0.24-0.26-0.73-0.27-1.11
	c-0.11-2.42-0.25-4.84-0.25-7.26c0-0.66,0.41-1.33,0.63-1.99c0.59,0.23,1.18,0.46,1.77,0.69c0.27,0.11,0.53,0.24,0.94,0.44
	c-0.76-9,0.18-17.79,1.23-26.56c1.04-8.73,2.3-17.43,3.46-26.17c-0.1,0.07-0.26,0.13-0.36,0.25c-4.06,5.34-8.45,10.44-11.57,16.43
	c-0.66,1.27-1.26,2.56-1.88,3.85c-0.34,0.7-0.75,1.39-1.65,1.07c-0.92-0.33-1.05-1.11-0.93-2.03c0.18-1.4,0.23-2.82,0.14-4.23
	c-0.83,10.56,0.13,21.07,0.83,31.87c2.49-0.63,4.7-1.19,6.91-1.76c0.38-0.1,0.76-0.37,1.11-0.33c0.59,0.07,1.51,0.19,1.65,0.55
	c0.22,0.56,0.12,1.47-0.22,1.98c-0.34,0.5-1.1,0.84-1.75,1c-2.69,0.68-5.38,1.31-8.1,1.86c-1.69,0.34-2.35-0.38-2.42-2.09
	c-0.25-6.1-0.59-12.19-0.82-18.29c-0.24-6.32-0.43-12.64,0.62-18.91c0.13-0.76,0.33-1.55,0.73-2.2c0.27-0.44,0.96-0.95,1.39-0.89
	c0.5,0.07,1.2,0.65,1.34,1.14c0.42,1.54,0.62,3.13,0.89,4.71c0.08,0.45,0.12,0.9,0.22,1.59c0.32-0.38,0.48-0.52,0.58-0.69
	c2.82-5.01,6.41-9.46,10.18-13.76c2.79-3.18,4.72-6.59,5.61-10.85c2-9.6,5.37-18.8,9.36-27.76c2.22-4.99,4.61-9.9,8.21-14.06
	c1.14-1.33,2.5-2.54,3.97-3.5c3.18-2.06,6.12-1.23,8.01,2.04c0.21,0.37,0.42,0.74,0.74,1.3c0.3-0.55,0.51-0.95,0.73-1.34
	c2.45-4.57,5.39-8.78,9.29-12.25c0.93-0.83,1.96-1.58,3.04-2.21c3.39-1.98,6.6-1.61,9.55,1c2.99,2.64,4.59,6.01,5.28,9.88
	c1.16,6.53,1.35,13.13,0.34,19.65c-1.88,12.13-4.09,24.21-6.15,36.31c-0.4,2.34-0.78,4.69-1.16,7.04c-0.04,0.26-0.06,0.52-0.12,0.77
	c-0.24,1-0.52,2.01-1.85,1.93c-0.99-0.06-1.52-0.93-1.28-2.42c0.83-5.12,1.72-10.24,2.63-15.34c1.56-8.72,3.28-17.42,4.69-26.17
	c1.2-7.47,1.44-14.98-0.11-22.46c-0.55-2.65-1.7-4.98-3.62-6.91c-2.38-2.4-4.67-2.89-7.43-0.93c-2.41,1.71-4.68,3.74-6.61,5.97
	c-2.2,2.54-3.95,5.46-5.91,8.2c-0.59,0.83-0.67,1.65-0.49,2.67c0.93,5.18,0.95,10.42,0.71,15.66c-0.37,8.04-0.81,16.08-1.15,24.12
	c-0.03,0.79,0.27,1.68,0.65,2.4c5.02,9.57,10.97,18.68,14.65,28.93c0.11,0.32,0.28,0.61,0.54,1.17c0.32-0.65,0.54-1.09,0.76-1.54
	c2.06-4.19,4.09-8.4,6.19-12.57c0.47-0.92,1.01-2.14,2.38-1.78c1.42,0.37,1.28,1.73,1.29,2.81c0.1,6.29-0.66,12.52-1.6,18.72
	c-1.09,7.14-2.19,14.27-3.28,21.4c-0.05,0.3-0.09,0.6-0.15,0.89c-0.51,2.47-1.37,2.94-3.85,2.44c-3.98-0.8-8-1.46-11.99-2.21
	c-1.02-0.19-2.05-0.38-3.02-0.73c-1.01-0.37-1.55-1.19-1.16-2.27c0.37-1.03,1.18-0.79,2.05-0.62c2.33,0.47,4.71,0.71,7.04,1.2
	c2.79,0.58,5.54,1.33,8.66,2.09c1.46-12.69,4.53-25.18,4.91-38.02c-0.12-0.05-0.24-0.1-0.36-0.16c-0.22,0.36-0.49,0.69-0.66,1.07
	c-1.61,3.59-3.21,7.19-4.82,10.78c-0.3,0.67-0.56,1.37-0.95,1.99c-0.79,1.28-2.08,1.32-2.94,0.1c-0.37-0.52-0.7-1.11-0.89-1.72
	c-2.89-8.96-7.62-17.05-11.92-25.35c-0.5-0.96-0.99-1.92-1.49-2.88c-0.03-0.06-0.14-0.09-0.41-0.26c-0.13,1.58-0.26,3.05-0.37,4.52
	c-0.81,11.57-1.6,23.14-2.44,34.71c-0.22,3.02-0.62,6.02-0.96,9.03c-0.05,0.46-0.16,1.06-0.47,1.31c-0.48,0.38-1.21,0.78-1.73,0.67
	c-0.39-0.08-0.89-0.96-0.86-1.46c0.09-1.9,0.42-3.78,0.58-5.68c0.52-6.21,1-12.42,1.5-18.63c0.58-7.25,1.19-14.49,1.71-21.74
	c0.52-7.34,1.02-14.68,1.37-22.03c0.3-6.48,0.5-12.98,0.49-19.47c0-2.74-0.4-5.54-1.05-8.21c-1.08-4.47-3.39-5.14-6.82-2.14
	c-3.28,2.88-5.41,6.61-7.35,10.45C308.91,131.88,308.96,132.03,308.96,132.19z"/>
<path d="M108.69,387.14c-6.22,10.51-10.47,13.66-19.51,14.39c0.38,1.51,0.76,2.99,1.14,4.47c0.52,2.01,1.12,4,1.54,6.03
	c0.65,3.12-0.81,4.51-3.83,3.42c-5.39-1.95-10.27-4.81-14.12-9.17c-3.26-3.7-5.73-7.91-7.74-12.41c-0.63-1.41-0.96-2.86-0.54-4.42
	c0.64-2.39,1.89-3.4,4.27-2.83c2.3,0.55,3.89-0.32,5.28-1.88c3.15-3.51,5.65-7.45,7.24-11.91c0.36-1.01,0.54-2.09,0.68-3.16
	c0.15-1.15,0.48-2.1,1.54-2.4c-1.48-2.27-3-4.53-4.42-6.84c-0.39-0.64-0.63-1.45-0.65-2.2c-0.02-0.5,0.33-1.27,0.73-1.47
	c0.41-0.2,1.15,0.05,1.63,0.32c0.42,0.23,0.76,0.72,1,1.16c2.59,4.89,6.37,8.75,10.69,12.06c11.11,8.52,21.53,17.84,31.98,27.13
	c0.38,0.34,0.79,0.66,1.25,1.05c0.99-3.11,2.97-5.5,4.9-7.89c1.92-2.37,3.98-4.64,6.08-7.08c-1.28-1.38-2.68-3.1-4.29-4.6
	c-6.96-6.5-13.94-12.98-21-19.36c-2.97-2.69-6.42-4.7-10.19-6.13c-0.43-0.16-0.73-0.69-1.09-1.05c0.52-0.17,1.13-0.6,1.55-0.46
	c2.24,0.77,4.6,1.39,6.6,2.6c2.95,1.79,5.72,3.9,8.39,6.09c12.32,10.07,23.45,21.3,33.09,33.98c0.13,0.17,0.29,0.32,0.53,0.58
	c0.3-0.44,0.56-0.81,0.81-1.2c4.61-7.17,10.52-13.07,17.62-17.76c1.33-0.88,2.76-1.66,4.25-2.21c2.94-1.1,5.23,0.46,5.11,3.6
	c-0.07,1.87-0.53,3.78-1.15,5.56c-2.3,6.67-5.7,12.79-9.49,18.72c-3.78,5.93-7.98,11.53-12.73,16.72c-1.27,1.39-1.69,1.49-3.37,0.73
	c-0.2-0.09-0.39-0.19-0.6-0.24c-7.76-1.88-14.07-6.34-19.96-11.43c-7.47-6.45-14.79-13.08-22.17-19.63
	C109.43,387.75,109.09,387.48,108.69,387.14z M170.34,392.09c0.14,0.02,0.28,0.04,0.43,0.05c1.13-2.47,2.37-4.9,3.37-7.42
	c0.81-2.04,1.38-4.18,1.97-6.3c0.12-0.45-0.1-0.99-0.17-1.49c-0.49,0.08-0.99,0.1-1.45,0.25c-0.45,0.14-0.87,0.38-1.27,0.64
	c-8.46,5.42-15.44,12.22-20.02,21.29c-0.25,0.5-0.94,1.09-1.42,1.08c-0.55-0.01-1.21-0.53-1.6-1.02c-0.73-0.9-1.21-2-1.93-2.9
	c-2.92-3.65-5.89-7.26-8.84-10.89c-0.19-0.23-0.3-0.52-0.48-0.82c-0.72,0.57-1.17,0.93-1.8,1.43c0.42,0.17,0.7,0.28,0.78,0.31
	c-2.59,3.63-5.03,7.04-7.46,10.45c-0.15-0.1-0.3-0.2-0.45-0.3c1.37-2.23,2.74-4.46,4.11-6.69c-0.08-0.06-0.17-0.12-0.25-0.18
	c-2.22,3.06-4.43,6.13-6.64,9.17c2.08,1.86,3.94,3.41,5.69,5.09c4.52,4.33,9.77,7.58,15.3,10.4c1.55,0.79,3.34,1.13,5.04,1.6
	c0.27,0.07,0.75-0.17,0.96-0.41c2.62-3.17,5.21-6.35,7.79-9.56c0.18-0.22,0.29-0.64,0.2-0.89c-0.5-1.49-1.07-2.95-1.66-4.52
	c-1.33,2.13-0.16,4.2,0.32,6.62c-1.53-1.01-1.39-2.42-1.73-3.54c-1.84,1.79-0.78,3.81-0.39,5.78c-0.12,0.02-0.24,0.05-0.36,0.07
	c-0.34-0.68-0.68-1.35-1.1-2.2c-0.71,1.93-1.35,3.67-1.99,5.42c-0.27-0.43-0.35-0.87-0.26-1.27c1.03-4.91,3.3-9.36,5.78-13.61
	c2.83-4.84,6.19-9.37,9.37-14c1-1.46,2.15-2.82,3.27-4.19c0.37-0.45,0.86-0.91,1.32-0.28c-0.43,0.55-0.83,1-1.17,1.48
	c-2.79,3.91-5.57,7.82-8.34,11.74c-0.17,0.24-0.41,0.57-0.35,0.79c0.47,1.93,1,3.85,1.51,5.79c1.51-1.64,1.56-2.02,1.2-3.99
	c-0.24-1.33-0.28-2.71-0.4-4.06c0.22-0.03,0.44-0.05,0.65-0.08c0.24,1.47,0.49,2.94,0.75,4.49c1.29-1.52,1.27-1.61,0.9-3.3
	c-0.33-1.51-0.72-3.04-0.1-4.6c0.32,0.7,0.47,1.41,0.58,2.14C170.12,390.49,170.22,391.29,170.34,392.09z M84.36,377.72
	c-0.96,1.57-1.88,3.4-3.11,4.99c-1.66,2.14-3.43,4.23-5.39,6.09c-1.48,1.4-3.42,1.98-5.55,1.48c-1.45-0.34-1.79,0.04-1.4,1.48
	c0.09,0.33,0.22,0.66,0.36,0.97c3.59,8.49,9.21,15.1,17.74,18.97c0.53,0.24,1.08,0.43,1.8,0.71c-0.07-0.49-0.08-0.74-0.14-0.98
	c-0.98-3.72-2.02-7.43-2.93-11.16c-0.16-0.66-0.07-1.77,0.34-2.08c0.5-0.38,1.48-0.18,2.24-0.13c1.15,0.08,2.31,0.46,3.42,0.33
	c2.71-0.31,5.15-1.42,7.33-3.08c3-2.29,5.34-5.15,7.33-8.34c0.62-0.98,0.51-1.49-0.37-2.2c-6.3-5.08-12.56-10.21-18.84-15.32
	c-0.09-0.07-0.23-0.08-0.28-0.1c-0.3,1.41-0.66,2.78-0.86,4.18c-0.11,0.72-0.19,1.61,0.13,2.21c0.98,1.87,1.95,3.81,3.29,5.41
	c2.05,2.44,4.42,4.62,6.63,6.92c0.33,0.35,0.57,0.78,0.85,1.18c-0.16,0.13-0.31,0.25-0.47,0.38
	C92.21,385.95,87.99,382.2,84.36,377.72z M164.29,402.32c1.12-1.17,1.61-2.04,1.17-3.38c-0.49-1.51-0.71-3.12-1.04-4.68
	c-0.11-0.02-0.22-0.03-0.33-0.05c-0.24,0.57-0.72,1.16-0.67,1.7C163.6,397.93,163.95,399.95,164.29,402.32z M162.5,397.04
	c-2.13,2.66-0.03,4.95,0.37,7.39c0.45-0.48,0.97-1.04,0.9-1.5C163.45,401,162.96,399.1,162.5,397.04z"/>
<path d="M114.85,269.97c0.47-3.26,1.04-6.33,1.34-9.42c1.08-11.39-2.29-21.55-8.9-30.71c-0.97-1.35-2.24-2.55-3.58-3.55
	c-3.91-2.94-8.56-2.53-12.01,0.95c-2.87,2.9-4.14,6.55-4.64,10.49c-0.83,6.67,0.66,12.96,3.72,18.82c1.81,3.46,4.22,6.61,6.31,9.93
	c0.23,0.36,0.33,1.14,0.12,1.36c-0.31,0.32-1.1,0.57-1.44,0.38c-0.78-0.42-1.49-1.03-2.09-1.7c-2.64-2.96-4.7-6.31-6.41-9.88
	c-0.18-0.38-0.38-0.76-0.67-1.34c-1.15,3.13-3.13,5.37-5.65,7.16c-3.62,2.57-7.57,3.75-12.02,2.82c-0.46-0.1-0.93-0.23-1.36-0.42
	c-1.79-0.79-2.1-2.27-0.61-3.54c2.5-2.14,3.91-4.92,4.96-7.94c1.75-5.03,2.45-10.25,2.94-15.52c0.38-4,0.74-8.01,1.34-11.99
	c0.24-1.58,0.88-3.19,1.69-4.58c1.28-2.19,3.7-2.25,5.26-0.23c1.71,2.23,1.96,4.93,2.2,7.61c0.01,0.16-0.19,0.34-0.45,0.76
	c-0.33-0.68-0.58-1.14-0.78-1.63c-0.64-1.56-1.17-3.17-1.93-4.66c-0.29-0.57-1.04-1.19-1.62-1.24c-0.39-0.03-1.13,0.84-1.26,1.41
	c-0.66,3.03-1.35,6.08-1.7,9.16c-0.7,6.23-0.93,12.52-2.53,18.63c-1.05,4.01-2.37,7.89-5.28,11c-0.07,0.08-0.08,0.22-0.19,0.57
	c0.77,0,1.45,0.06,2.11-0.01c5.14-0.52,8.87-3.15,11.33-7.63c0.18-0.32,0.31-0.76,0.24-1.11c-0.29-1.61-0.16-1.82,1.53-1.97
	c0.12-0.01,0.24-0.05,0.31-0.07c-0.47-2.57-1.07-5.1-1.36-7.66c-0.59-5.09-0.02-10.06,2.39-14.64c0.93-1.77,2.15-3.49,3.57-4.89
	c4.35-4.3,10.64-4.81,15.53-1.15c2.07,1.55,3.98,3.53,5.44,5.67c6.39,9.39,9.84,19.71,8.96,31.2c-0.24,3.13-0.88,6.23-1.35,9.41
	c3.39,0,6.95,0,10.99,0c-1.2-1.93-2.24-3.59-3.28-5.25c0.07-0.13,0.15-0.27,0.22-0.4c0.75,0.16,1.6,0.15,2.21,0.52
	c1.84,1.12,3.11,2.75,3.59,4.89c0.38,1.71-0.57,3-2.31,3.23c-0.47,0.06-0.95,0.07-1.43,0.07c-7.66-0.02-15.33-0.03-22.99-0.06
	c-6.45-0.03-12.78-0.82-18.84-3.17c-1.24-0.48-2.44-1.07-3.66-1.6c-0.5,1.81-0.46,1.95,1.11,2.69c5.58,2.63,11.48,4.03,17.61,4.59
	c7.19,0.66,14.35-0.07,21.53-0.35c2.9-0.12,5.8-0.13,8.7-0.15c0.79-0.01,1.71,0.06,1.8,1.07c0.09,1.09-0.8,1.32-1.67,1.37
	c-2.68,0.15-5.36,0.34-8.04,0.41c-6.14,0.15-12.29,0.33-18.43,0.32c-4.95-0.01-9.82-0.82-14.6-2.14c-0.37-0.1-0.74-0.19-1.31-0.33
	c0.11,1.44,0.29,2.72,0.29,3.99c-0.03,4.15-0.14,8.3-0.17,12.45c0,0.43,0.22,1.08,0.55,1.26c7.57,4.13,11.25,10.89,12.88,19.01
	c0.51,2.54,0.76,5.13,1.13,7.7c0.07,0.46,0.09,0.93,0.14,1.46c5.71,0.54,10.86-1.92,16.3-2.53c-5.29,1.47-10.44,3.56-16.19,3.3
	c0,1.7,0,3.4,0,5.29c2.31-0.63,4.57-1.16,6.77-1.86c3-0.96,5.96-2.03,8.92-3.11c0.38-0.14,0.59-0.69,0.94-0.97
	c0.3-0.24,0.67-0.45,1.04-0.55c0.18-0.05,0.43,0.18,0.65,0.28c-0.17,0.32-0.26,0.78-0.53,0.93c-1.15,0.67-2.3,1.43-3.56,1.83
	c-4.31,1.37-8.67,2.63-13.02,3.86c-0.95,0.27-1.39,0.6-1.43,1.7c-0.11,2.85-0.34,5.7-0.67,8.53c-0.16,1.32-0.59,2.65-2.03,3.26
	c-0.13,0.05-0.3,0.24-0.29,0.34c0.15,1.67-1.15,2.3-2.27,2.82c-8.24,3.82-16.69,7.12-25.87,7.61c-4.83,0.26-9.55-0.55-13.08-4.46
	c-0.38-0.42-0.77-0.84-1.04-1.32c-0.71-1.26-0.14-2.13,1.37-2.15c0.28,2.42,2.29,3.3,4.05,4.2c3.33,1.69,6.97,1.57,10.56,1.21
	c4.92-0.48,9.48-2.34,14.05-4.07c3.76-1.42,7.53-2.82,11.27-4.23c-0.95-0.65-0.83-1.6-0.45-2.8c0.45-1.42,0.65-2.96,0.74-4.46
	c0.45-6.92,0.78-13.84-0.66-20.7c-0.3-1.44-0.67-2.87-1.07-4.28c-1.9-6.63-5.97-11.47-12.26-14.31c-2.75-1.24-5.63-2.22-8.5-3.17
	c-1.17-0.38-2.47-0.44-3.71-0.49c-1.97-0.07-3.88,0.19-5.25,1.87c-0.83-1.04-0.74-1.89,0.36-2.77c1.98-1.58,4.34-2.06,6.74-1.68
	c2.51,0.4,4.96,1.16,7.43,1.77c0.45,0.11,0.89,0.3,1.76,0.6c-0.52-5.15-1.01-10.07-1.5-14.98c0.05-0.04,0.09-0.09,0.14-0.13
	c0.21,0.39,0.55,0.76,0.61,1.18c0.38,2.69,0.75,5.37,1.02,8.07c0.18,1.8,0.16,3.63,0.3,5.43c0.03,0.34,0.32,0.78,0.62,0.97
	c0.61,0.38,1.32,0.61,2.2,1c0.08-2.86,0.21-5.55,0.21-8.25c0-2.64-0.17-5.28-0.21-7.92c-0.01-0.82-0.33-1.2-1.09-1.52
	c-1.79-0.75-3.54-1.61-5.27-2.48c-1.05-0.53-1.38-1.37-1.13-2.59c0.24-1.2,0.04-2.49,0.32-3.68c0.16-0.68,0.76-1.58,1.36-1.78
	c1.58-0.53,3.27-0.81,4.93-1.03c0.39-0.05,0.86,0.48,1.29,0.74c-0.29,0.37-0.53,0.82-0.9,1.08c-0.33,0.24-0.8,0.28-1.32,0.44
	c0.2,0.25,0.35,0.45,0.71,0.91c-1.06-0.21-1.81-0.36-2.57-0.51c-0.02,0.13-0.04,0.25-0.05,0.38
	C94.62,270.65,104.71,270.36,114.85,269.97z"/>
<path d="M266.19,188.72c-5.56,0.91-10.79,1.76-16.1,2.63c0,3.57,0.01,7.23,0,10.9c-0.01,3.24-0.02,6.48-0.11,9.72
	c-0.01,0.38-0.49,0.75-0.75,1.12c-0.3-0.36-0.82-0.7-0.86-1.09c-0.39-3.61-0.83-7.22-1.02-10.85c-0.89-17.02,0.5-34.01,0.88-51.02
	c0.14-6.36,0.39-12.72,0.61-19.08c0.17-4.84,0.36-9.69,0.56-14.53c0.02-0.47,0.09-0.95,0.2-1.41c0.41-1.76,1.01-2.12,2.79-2.24
	c2.19-0.15,4.36-0.49,6.57-0.75c0-3.37-0.09-6.53,0.04-9.68c0.05-1.24,0.6-2.46,0.94-3.69c0.08-0.28,0.29-0.55,0.29-0.83
	c0.02-2.42,0.01-4.84,0.01-7.45c-0.78,0.26-1.39,0.55-2.04,0.65c-0.35,0.06-0.75-0.2-1.13-0.31c0.18-0.32,0.27-0.74,0.54-0.93
	c0.98-0.7,1.99-1.36,3.04-1.95c0.72-0.41,1.2-0.09,1.17,0.75c-0.11,2.55-0.24,5.09-0.39,7.64c-0.03,0.56-0.12,0.96,0.6,1.32
	c0.46,0.22,0.76,1.14,0.8,1.76c0.24,3.45,0.38,6.9,0.54,10.35c0.02,0.47,0,0.93,0,1.43c0.44,0,0.73-0.01,1.02,0
	c1.29,0.05,1.76-0.53,1.54-1.82c-0.12-0.67-0.08-1.39,0.02-2.06c0.05-0.3,0.43-0.55,0.66-0.82c0.27,0.28,0.76,0.53,0.79,0.83
	c0.1,1.06,0.04,2.14,0.04,3.39c1.04-0.1,2.09-0.22,3.15-0.31c6.38-0.52,12.77-1.03,19.15-1.57c1.21-0.1,2.42-0.23,3.59-0.51
	c2.88-0.69,5.74-0.4,8.6,0c4.39,0.6,8.71,0.19,13-0.85c2.09-0.51,2.79,0.19,2.39,2.26c-0.12,0.64-0.21,1.28-0.34,1.92
	c-0.17,0.82-0.56,1.67-1.48,1.41c-0.5-0.14-0.83-1-1.16-1.59c-0.13-0.23-0.05-0.58-0.08-1.1c-5.04,1.15-10,0.86-15.33-0.27
	c0,1.36,0.04,2.54-0.01,3.71c-0.14,3.85-0.29,7.69-0.49,11.54c-0.02,0.43-0.36,0.83-0.56,1.25c-0.15-0.43-0.45-0.87-0.43-1.3
	c0.19-4.79,0.43-9.59,0.65-14.38c0-0.08-0.06-0.16-0.16-0.42c-8.52,2.14-17.34,1.97-26.24,2.94c1.5,2.48,2.89,4.79,4.37,7.24
	c1.58-2.33,2.73-4.88,4.61-6.9c0.14,0.07,0.29,0.14,0.43,0.22c-0.11,0.34-0.16,0.72-0.34,1.03c-1.18,2.07-2.43,4.09-3.54,6.19
	c-0.25,0.47-0.22,1.21-0.07,1.75c0.4,1.36,0.96,2.67,1.43,4.02c0.07,0.21,0.01,0.47-0.3,0.84c-0.68-1.46-1.35-2.92-2.15-4.65
	c-1.2,2.43-2.26,4.59-3.32,6.75c-0.14-0.05-0.27-0.11-0.41-0.16c0.2-0.76,0.33-1.54,0.62-2.27c0.63-1.57,1.39-3.08,1.99-4.65
	c0.2-0.52,0.25-1.3,0-1.76c-1.27-2.36-2.62-4.69-4.06-6.94c-0.22-0.34-1.09-0.39-1.65-0.34c-0.32,0.03-0.81,0.5-0.85,0.82
	c-0.19,1.5-0.27,3.01-0.35,4.52c-0.21,4.06-0.41,8.12-0.6,12.18c-0.01,0.25,0.05,0.5,0.11,1.11c4.86-0.71,9.62-1.45,14.4-2.09
	c2.9-0.39,5.82-0.7,8.75-0.92c0.93-0.07,2.39-0.1,2.37,1.16c-0.03,1.28-1.45,0.85-2.34,0.9c-1.03,0.05-2.06,0.01-2.9,0.01
	c0,4.87-0.03,9.49,0.01,14.11c0.05,5.97,0.17,11.95,0.25,17.92c0.01,0.52,0.09,1.09-0.09,1.54c-0.16,0.42-0.63,0.99-0.97,0.99
	c-0.43,0-1.14-0.42-1.25-0.79c-0.33-1.15-0.57-2.37-0.58-3.57c-0.13-8.61-0.2-17.23-0.27-25.84c-0.01-1.24,0.14-2.48,0.23-3.88
	c-2.09,0.36-4.05,0.66-5.98,1.08c-0.28,0.06-0.63,0.67-0.63,1.03c-0.03,7.32,0,14.63,0,21.95c0,2.25-0.04,4.5-0.09,6.75
	c-0.01,0.37-0.15,0.74-0.22,1.11c-0.16,0-0.32,0-0.49,0.01c-0.1-0.68-0.27-1.37-0.28-2.05c-0.05-5.19-0.07-10.39-0.08-15.58
	c-0.01-4.27,0-8.54,0-12.85c-2.4,0.15-4.81,0.27-7.2,0.47c-0.23,0.02-0.58,0.56-0.6,0.88c-0.08,1.25-0.03,2.51-0.05,3.76
	c-0.16,9.22-0.34,18.44-0.46,27.65c-0.01,0.54,0.45,1.08,0.6,1.64c0.08,0.3,0.03,0.67-0.07,0.97c-0.13,0.39-0.55,0.73-0.56,1.1
	c-0.11,6.88-0.25,13.76-0.24,20.65c0.01,4.54,0.29,9.09,0.36,13.63c0.02,1.42-0.12,2.85-0.34,4.25c-0.15,0.95-0.74,1.76-1.89,1.49
	c-1.12-0.26-0.83-1.22-0.83-2.03C266.2,201.56,266.19,195.26,266.19,188.72z M266.68,132.21c0.23-6.11,0.46-12.09,0.69-18.23
	c-4.9,0.77-9.71,1.53-14.72,2.32c-0.61,17.73-1.22,35.52-1.84,53.32c5.28-0.72,10.44-1.43,15.69-2.15
	c0.21-5.85,0.41-11.69,0.62-17.47c-2.73-0.13-5.24-0.18-7.73-0.39c-2.47-0.21-4.93-0.57-7.39-0.87c0.02-0.23,0.03-0.46,0.05-0.7
	c1.03,0,2.06,0.05,3.09-0.02c0.4-0.03,0.97-0.2,1.14-0.5c1.01-1.7,1.92-3.46,2.88-5.24c-1.58-2.11-3.64-3.94-4.76-6.39
	c0.17-0.13,0.34-0.26,0.52-0.4c1.61,1.91,3.22,3.82,4.91,5.84c0.72-1.22,1.31-2.32,1.99-3.36c0.65-1,1-2.29,2.33-2.74
	c0.06,0.41-0.02,0.73-0.17,1.01c-0.68,1.3-1.36,2.61-2.07,3.89c-1.46,2.63-1.45,2.67,1.11,4.42c0.05,0.03,0.03,0.15,0.13,0.7
	c-1.2-0.68-2.14-1.21-3.18-1.79c-1.03,1.51-2.1,3.08-3.31,4.85c3.63,0.24,6.97,0.46,10.49,0.69c0-0.73-0.01-1.28,0-1.83
	c0.09-3.81,0.16-7.61,0.3-11.42c0.07-1.84,0.14-1.82-1.57-2.19c-0.31-0.07-0.56-0.4-0.84-0.6c0.24-0.21,0.46-0.47,0.74-0.62
	C266.01,132.24,266.29,132.26,266.68,132.21z M266.14,174.58c-2.35,1.65-4.52,3.17-6.63,4.66c0.55,1.77,2.49,2.73,2.16,5.04
	c-1.16-1.52-2.11-2.77-3.1-4.08c-2.44,2.13-4.78,4.16-7.12,6.2c-0.15-0.16-0.31-0.32-0.46-0.47c1.88-2.63,4.38-4.71,6.67-6.91
	c-0.77-1.48-1.51-2.89-2.25-4.3c0.16-0.09,0.32-0.18,0.47-0.28c0.9,1.26,1.81,2.52,2.7,3.77c2.55-1.66,4.65-3.83,7.78-4.3
	c0-1.64,0-3.26,0-5c-0.83,0.09-1.59,0.17-2.36,0.26c-4.08,0.46-8.15,0.92-12.23,1.38c-0.64,0.07-1.08,0.23-1.11,1.08
	c-0.18,5.71-0.42,11.42-0.63,17.13c-0.01,0.32,0.06,0.65,0.11,1.07c0.57-0.04,1.05-0.04,1.51-0.11c3.89-0.6,7.78-1.2,11.67-1.82
	c2.8-0.44,2.8-0.45,2.81-3.36C266.15,181.33,266.14,178.14,266.14,174.58z M260.01,111.7c2.45-0.09,2.57-0.17,2.53-1.32
	c-0.08-2.37-0.13-4.74-0.26-7.11c-0.09-1.64-0.29-3.28-0.46-5.13c-1.29,0.87-1.78,1.87-1.79,3.01
	C259.98,104.64,260.01,108.12,260.01,111.7z"/>
<path d="M308.18,244.68c-0.72,0.35-1.16,0.58-1.61,0.78c-5.1,2.37-9.81,5.33-13.8,9.34c-0.73,0.73-1.42,1.53-2.02,2.37
	c-1.74,2.46-1.51,4.28,0.84,6.2c1.07,0.87,2.2,1.73,3.44,2.3c5.3,2.44,10.59,4.91,16,7.09c9.06,3.67,18.26,6.99,27.29,10.73
	c6.69,2.77,13.1,6.17,18.6,10.99c1.9,1.66,3.65,3.6,5.06,5.69c2.86,4.24,2.9,8.77,0.52,13.29c-1.58,3-3.84,5.43-6.41,7.59
	c-5.01,4.22-10.67,7.38-16.53,10.2c-13.01,6.25-26.56,11.16-40.11,16.05c-17.79,6.41-35.6,12.79-52.87,20.55
	c-13.44,6.04-26.48,12.83-38.86,20.85c-0.73,0.47-1.48,0.92-2.13,1.48c-0.51,0.45-0.88,1.06-1.45,1.77
	c-0.93-0.08-1.47-0.79-0.95-1.93c0.39-0.85,0.92-1.72,1.61-2.32c2.06-1.77,4.11-3.61,6.39-5.08c10.92-7.08,22.55-12.85,34.43-18.13
	c17.06-7.59,34.65-13.82,52.23-20.06c13.58-4.82,27.14-9.68,40.21-15.79c5.86-2.74,11.59-5.73,16.46-10.05
	c1.98-1.76,3.8-3.82,5.26-6.02c2.47-3.7,2.46-7.71-0.2-11.3c-1.73-2.33-3.82-4.49-6.1-6.3c-6.29-5-13.54-8.38-20.92-11.39
	c-9.09-3.71-18.33-7.07-27.41-10.8c-4.19-1.72-8.2-3.88-12.22-5.99c-1.31-0.69-2.5-1.73-3.54-2.8c-1.99-2.06-2.21-4.45-0.72-6.89
	c0.65-1.06,1.43-2.08,2.31-2.96c4.09-4.1,8.88-7.17,14.21-9.37C306.01,244.44,306.89,243.87,308.18,244.68z"/>
<path d="M298.84,242.73c-1.19,0.44-2.46,0.75-3.56,1.35c-7.93,4.32-15.4,9.32-22.03,15.48c-1.66,1.55-3.14,3.36-4.41,5.25
	c-1.62,2.41-1.29,4.53,1.08,6.24c2.05,1.48,4.29,2.84,6.63,3.74c6.54,2.51,13.19,4.72,19.78,7.1c6.61,2.38,13.12,4.98,19.13,8.67
	c1.79,1.1,3.52,2.4,5.03,3.86c2.53,2.45,2.63,5.31,0.1,7.76c-1.78,1.72-3.87,3.22-6.05,4.4c-6.91,3.77-14.36,6.25-21.85,8.56
	c-17.08,5.26-34.23,10.34-51.32,15.59c-15.93,4.89-31.69,10.29-46.8,17.41c-3.28,1.55-6.48,3.3-9.6,5.16
	c-1.58,0.94-3.05,2.16-4.29,3.52c-1.99,2.17-1.59,4.06,0.97,5.48c1.16,0.65,2.43,1.11,3.65,1.66c0.32,0.14,0.63,0.31,0.86,0.66
	c-3.03,0.03-6.06-0.05-8.3-2.48c-1.45-1.58-1.47-3.6-0.44-5.34c0.93-1.56,2.11-3.19,3.58-4.18c3.44-2.31,7-4.5,10.72-6.3
	c13.27-6.43,27.1-11.46,41.17-15.78c16.34-5.01,32.78-9.72,49.15-14.66c9.49-2.86,19-5.69,28.05-9.8c2.39-1.09,4.74-2.35,6.9-3.84
	c4.08-2.82,4.2-5.08,0.1-7.88c-3.59-2.45-7.43-4.68-11.43-6.35c-7.42-3.09-15.07-5.64-22.58-8.54c-3.83-1.48-7.59-3.14-11.3-4.88
	c-1.3-0.61-2.48-1.59-3.53-2.61c-2.26-2.2-2.58-4.82-1.05-7.58c1.76-3.16,4.38-5.58,7.12-7.84c6-4.94,12.48-9.16,19.38-12.74
	c0.99-0.51,2.04-0.95,3.1-1.29c0.61-0.2,1.3-0.13,1.95-0.18C298.8,242.48,298.82,242.61,298.84,242.73z"/>
<path d="M58.58,311.58c-0.55,0.42-1.04,1.08-1.66,1.23c-2.33,0.58-4.68,1.15-7.06,1.43c-2,0.23-4.04,0.05-6.31,0.05
	c0.09,1.39,0.17,2.7,0.26,4.17c2.81-0.19,5.39-0.74,7.87-1.77c0.33-0.14,0.74-0.08,1.11-0.11c-0.23,0.35-0.39,0.93-0.69,1.02
	c-1.94,0.59-3.91,1.08-5.87,1.58c-0.66,0.17-1.34,0.23-2.29,0.39c0.56,1.92,1.09,3.73,1.61,5.54c0.21,0.75,0.5,1.49,0.56,2.25
	c0.03,0.38-0.28,0.97-0.61,1.14c-0.33,0.17-1.05,0.1-1.28-0.16c-0.6-0.66-1.14-1.42-1.49-2.23c-1.68-3.94-2.25-8.1-2.01-12.33
	c0.7-12.4,4.6-23.54,13.16-32.81c5.93-6.43,13.21-10.37,21.75-12.06c1.23-0.24,2.46-0.44,3.71-0.56c0.38-0.03,0.79,0.29,1.18,0.45
	c-0.33,0.3-0.61,0.72-0.99,0.86c-0.93,0.34-1.91,0.55-2.87,0.81c-6.51,1.71-12.65,4.18-17.77,8.73c-0.31,0.28-0.68,0.5-0.98,0.91
	c4.87,0.94,7.16,4.4,9.08,8.42c0.2-0.28,0.39-0.58,0.61-0.86c1.35-1.73,2.67-3.51,4.1-5.17c0.41-0.47,1.16-0.68,1.79-0.91
	c0.17-0.06,0.56,0.21,0.7,0.42c0.08,0.12-0.06,0.51-0.22,0.65c-3.37,3.17-5.37,7.19-6.97,11.42c-1.81,4.78-2.6,9.78-2.73,14.87
	c-0.03,1.28,0.2,2.59,0.44,3.86c0.37,1.95,1.4,3.5,3.03,4.67c2.81,2.02,5.6,4.07,8.36,6.16c1.78,1.35,3.28,2.97,4.11,5.09
	c0.68,1.73,1.23,3.59-0.36,5.08c-1.53,1.45-3.25,0.67-4.84-0.06c-0.9-0.41-1.74-0.94-2.9-1.57c0.2,0.69,0.31,1.15,0.46,1.61
	c0.77,2.43,1.56,4.86,2.31,7.3c0.13,0.41,0.24,0.89,0.14,1.27c-0.18,0.67-0.38,1.61-0.86,1.85c-0.55,0.27-1.64,0.16-2.12-0.24
	c-2.56-2.12-5-4.38-7.48-6.61c-0.34-0.31-0.64-0.67-1.21-1.27c0.14,1.03,0.28,1.72,0.32,2.42c0.04,0.82,0.09,1.66-0.03,2.46
	c-0.37,2.58-2.76,3.78-4.89,2.28c-1.53-1.07-2.78-2.56-4.11-3.91c-0.48-0.49-0.82-1.11-1.22-1.67c-2.23,1.73-3.38,1.57-5.04-0.82
	c-1.01-1.45-1.97-2.95-2.85-4.49c-0.26-0.45-0.37-1.33-0.11-1.64c0.33-0.39,1.2-0.66,1.68-0.51c0.72,0.24,1.39,0.82,1.93,1.4
	c0.54,0.58,0.9,1.34,1.45,2.18c0.17-0.75,0.18-1.38,0.47-1.85c0.29-0.46,0.84-1,1.31-1.03c0.47-0.03,1.1,0.41,1.44,0.83
	c0.36,0.45,0.48,1.1,0.67,1.67c0.95,2.88,2.65,5.24,4.97,7.15c0.34,0.28,0.83,0.38,1.25,0.56c0.16-0.47,0.5-0.96,0.43-1.4
	c-0.23-1.61-0.57-3.22-0.93-4.81c-0.17-0.76-0.58-1.48-0.63-2.23c-0.03-0.51,0.24-1.24,0.63-1.5c0.29-0.2,1.12,0.03,1.47,0.34
	c1.13,1,2.13,2.15,3.21,3.21c2.11,2.05,4.24,4.07,6.38,6.09c0.3,0.28,0.68,0.47,1.33,0.91c-0.28-0.99-0.43-1.65-0.66-2.28
	c-1.2-3.25-2.42-6.49-3.64-9.73c-0.32-0.84-0.63-1.72,0.21-2.38c0.88-0.69,1.74-0.23,2.48,0.36c1.25,0.99,2.4,2.13,3.71,3.02
	c0.93,0.63,2.06,0.98,3.1,1.45c0.12-0.1,0.24-0.2,0.36-0.3c-0.1-0.6-0.03-1.33-0.34-1.78c-0.97-1.4-1.92-2.91-3.2-3.99
	c-2.27-1.93-4.68-3.73-7.2-5.33c-4.33-2.76-5.86-6.82-5.67-11.65c0.25-6.23,1.4-12.28,4.03-18c0.18-0.4,0.13-0.95,0.04-1.41
	c-0.13-0.67-0.35-1.34-0.59-1.98c-1.43-3.73-4.24-5.19-8.14-4.29c-2.1,0.48-3.69,1.43-4.98,3.34c-5.12,7.61-7.71,16-8.41,25.07
	c-0.1,1.24,0.14,1.74,1.56,1.72c3.64-0.04,7.26-0.12,10.79-1.09c0.83-0.23,1.59-0.7,2.38-1.06
	C58.39,311.47,58.49,311.52,58.58,311.58z M60.36,282.11c-2.5-1.66-3.82-1.47-4.87,0.63C57.1,282.54,58.74,282.33,60.36,282.11z"/>
<path d="M117.36,417.91c6.45,0,14.54,0.01,22.63-0.01c0.86,0,1.72-0.19,2.58-0.3c0.92-0.12,1.66,0.12,1.94,1.08
	c0.27,0.92-0.13,1.64-0.96,2.04c-0.49,0.24-1.06,0.4-1.61,0.44c-1.85,0.12-3.71,0.22-5.57,0.25c-15.06,0.18-30.11,0.4-45.17,0.49
	c-4.93,0.03-9.86-0.28-14.78-0.46c-0.64-0.02-1.29-0.15-1.92-0.3c-0.92-0.22-1.58-0.75-1.57-1.79c0.02-1.03,0.7-1.55,1.61-1.76
	c0.71-0.17,1.44-0.31,2.18-0.35c8.98-0.56,17.96-1.12,26.94-1.64c7.95-0.46,15.9-0.88,23.85-1.3c0.99-0.05,1.99-0.05,2.98,0.02
	c0.76,0.06,1.53,0.31,1.46,1.3c-0.06,0.9-0.79,1-1.52,1.07C125.52,417.14,120.61,417.61,117.36,417.91z"/>
<path d="M263.82,211.83c-0.52,0.54-0.87,1.04-1.35,1.34c-0.65,0.41-1.37,0.75-2.11,0.98c-13.48,4.11-26.11,10.18-38.39,16.97
	c-10.98,6.08-21.85,12.33-32.76,18.53c-4.22,2.4-8.39,4.88-13.13,6.14c-0.52,0.14-1.12-0.04-1.68-0.08c0.33-0.44,0.58-1.05,1.02-1.3
	c15.86-9.12,31.69-18.3,47.64-27.26c9.89-5.55,20.04-10.62,30.84-14.21c1.84-0.61,3.72-1.16,5.61-1.61
	C260.84,211.01,262.24,210.87,263.82,211.83z"/>
<path d="M160.04,315.61c-0.39-4.36,0.41-7.98,2.05-11.43c0.14,0.03,0.28,0.06,0.43,0.09c-0.1,0.31-0.19,0.63-0.3,0.94
	c-1.13,3.01-1.84,6.08-1.7,9.33c0.03,0.82,0.37,1.11,1.09,1.29c3.15,0.8,6.35,0.86,9.55,0.53c3.18-0.33,6.36-0.78,9.51-1.33
	c4.63-0.81,8.1-3.5,11.07-7.12c-1.7-2.48,0.7-4.48,0.97-6.92c-0.5-0.03-0.91-0.07-1.32-0.09c-2.94-0.13-3.84-1.78-2.31-4.32
	c0.64-1.06,1.38-2.06,2.07-3.09c-0.07-0.14-0.15-0.28-0.22-0.41c-2.45,0.8-4.9,1.6-7.35,2.4c-0.1-0.1-0.2-0.2-0.3-0.3
	c0.25-0.42,0.42-0.94,0.77-1.24c2.15-1.81,4.64-2.85,7.46-2.96c2.02-0.07,2.94,1.24,2.16,3.17c-0.4,0.99-1.07,1.87-1.62,2.8
	c-0.21,0.36-0.43,0.72-0.73,1.22c0.58,0.04,0.99,0.06,1.4,0.1c2.12,0.22,3.22,1.6,2.77,3.67c-0.23,1.09-0.76,2.11-1.09,3.18
	c-0.11,0.35-0.19,0.91,0,1.12c0.91,1.03,0.59,1.95-0.02,2.95c-3.58,5.85-8.92,8.86-15.62,9.61c-3.69,0.42-7.39,0.9-11.1,1.05
	c-5.69,0.23-10.85-1.5-15.37-4.99c-1.71-1.32-3.36-2.72-4.96-4.18c-0.81-0.74-1.58-1.84-0.77-2.81c0.28-0.34,1.88,0.07,2.62,0.54
	c1.75,1.1,3.31,2.52,5.03,3.67C156.01,313.31,157.94,314.36,160.04,315.61z"/>
<path d="M420.95,238.85c-1.16-0.18-2.39-0.16-3.47-0.56c-4.33-1.62-8.62-3.35-12.91-5.06c-8.97-3.56-17.93-7.14-26.89-10.7
	c-4.34-1.73-8.68-3.46-13.03-5.16c-2.54-0.99-5.11-1.89-7.65-2.86c-0.77-0.29-1.58-0.53-2.23-1c-0.36-0.26-0.62-0.97-0.54-1.4
	c0.06-0.3,0.78-0.66,1.21-0.66c0.81-0.01,1.65,0.13,2.42,0.38c3.12,1.03,6.24,2.06,9.31,3.21c8.75,3.28,17.56,6.42,26.19,10
	c8.14,3.38,16.09,7.23,24.1,10.93c1.31,0.6,2.47,1.52,3.7,2.29C421.08,238.46,421.02,238.65,420.95,238.85z"/>
<path d="M141.2,284.13c-2.48,2.34-3.7,5.35-5.86,7.82c0.07-0.41,0.06-0.85,0.23-1.21c1.27-2.61,2.65-5.15,4.89-7.1
	c0.23-0.2,0.19-0.7,0.1-1.13c-3.36,1.72-4.57,4.95-5.99,8.07c-0.9-2.15,2.12-7.04,5.43-8.89c0.01-0.11,0.05-0.24,0.01-0.35
	c-1.06-2.74-2.06-5.52-3.24-8.21c-0.45-1.02-1.33-1.85-1.99-2.78c-0.16-0.23-0.42-0.62-0.34-0.73c0.17-0.23,0.61-0.53,0.79-0.45
	c0.76,0.34,1.69,0.64,2.15,1.26c0.89,1.2,1.6,2.56,2.24,3.93c1.89,4.03,3.56,8.18,5.61,12.13c2.31,4.46,5.42,8.35,9.6,11.27
	c3.82,2.67,8,4.04,12.72,3.33c1.11-0.17,1.91-0.43,2.44-1.68c1.23-2.92,2.98-5.57,5.3-7.78c2.87-2.73,5.79-2.07,7.11,1.66
	c1.08,3.04,1.06,6.13-0.25,9.12c-0.62,1.41-1.99,2.08-3.26,1.79c-1.27-0.28-2.25-1.47-2.17-2.85c0.03-0.52,0.45-1.02,0.7-1.52
	c0.45,0.27,0.92,0.5,1.33,0.82c0.38,0.3,0.69,0.68,1.03,1.03c0.31-0.44,0.76-0.84,0.91-1.33c0.69-2.3,0.69-4.62-0.19-6.88
	c-0.75-1.94-2.04-2.31-3.62-0.98c-2.63,2.2-4.49,5.02-6.21,7.93c-0.09,0.15-0.21,0.34-0.17,0.48c0.53,1.86-0.83,2.12-2.07,2.4
	c-1.17,0.27-2.38,0.4-3.88,0.65c-0.18,3.59-0.35,7.23-0.53,10.81c-0.72-0.61-0.75-0.61-0.62-5.25c0.05-1.85,0.3-3.68,0.46-5.56
	C152.21,302.16,146.17,293.88,141.2,284.13z"/>
<path d="M128.84,313.91c0-4.92,0.07-12.84-0.05-20.76c-0.03-1.95-0.68-3.89-1.04-5.83c-0.08-0.42-0.3-0.88-0.19-1.26
	c0.13-0.49,0.44-1.15,0.82-1.28c0.38-0.12,1.12,0.19,1.4,0.55c1.2,1.54,1.85,3.35,1.93,5.29c0.19,4.8,0.43,9.6,0.42,14.4
	c-0.03,11.12-0.19,22.25-0.31,33.37c-0.01,1.34,0.01,2.69-0.15,4.02c-0.09,0.74-0.37,1.56-0.84,2.1c-0.33,0.37-1.22,0.55-1.72,0.38
	c-0.41-0.13-0.86-0.9-0.86-1.39C128.38,334.64,128.59,325.77,128.84,313.91z"/>
<path d="M174.99,186.34c1.85-3.07,4.28-5.21,6.8-7.22c1.81-1.45,3.25-1.18,5.16,0.68c0.76-0.71,1.5-1.47,2.32-2.14
	c1.1-0.9,2.17-1.88,3.41-2.54c2.31-1.23,4.4-0.31,5.27,2.15c0.3,0.84,0.45,1.74,0.68,2.66c0.17-0.06,0.34-0.09,0.47-0.18
	c2.39-1.57,4.55-1.06,5.49,2.19c0.1,0.33,0.24,0.65,0.32,0.99c0.24,0.98,0.74,1.29,1.79,1.06c0.59-0.13,1.85,0.22,1.85,0.34
	c-0.02,1.12-1.09,0.99-1.74,1.03c-3.19,0.17-6.4,0.2-9.6,0.3c-5.92,0.19-11.84,0.38-17.75,0.62c-0.74,0.03-1.47,0.49-2.22,0.51
	C176.55,186.82,175.85,186.53,174.99,186.34z M179.04,185c8.55-0.3,16.71-0.58,24.88-0.86c-0.62-3.73-1.85-4.38-4.8-2.61
	c-0.07,0.04-0.14,0.1-0.22,0.14c-0.89,0.41-1.51,0.21-1.77-0.78c-0.1-0.38-0.15-0.76-0.23-1.14c-0.26-1.23-0.39-2.6-1.77-3.1
	c-1.33-0.48-2.31,0.47-3.21,1.24c-1.34,1.16-2.55,2.45-3.88,3.62c-1.12,0.99-1.94,0.89-2.8-0.34c-0.61-0.87-1.3-1.07-2.04-0.37
	C181.83,182.08,180.55,183.45,179.04,185z"/>
<path d="M387.17,146.16c8.86-0.19,17.73-0.38,26.95-0.57c-3.15-1.11-2.31-3.89-3.04-6.27c-0.78,0.51-1.46,0.9-2.08,1.38
	c-0.86,0.66-1.62,1.43-2.51,2.05c-1.09,0.76-1.85,0.58-2.38-0.65c-0.55-1.29-1.47-1.6-2.61-1.09c-3.13,1.42-6.22,2.94-9.32,4.42
	c-0.18,0.09-0.36,0.19-0.61,0.32c-0.27-1.29,0.04-2.34,1.13-2.83c2.67-1.21,5.37-2.4,8.13-3.36c2.32-0.81,3.37-0.29,4.77,1.88
	c0.43-0.33,0.86-0.65,1.27-0.98c0.91-0.73,1.74-1.58,2.73-2.18c1.65-1,3.04-0.21,3.18,1.69c0.05,0.65,0.06,1.3,0,1.94
	c-0.12,1.33,0.52,2.09,1.71,2.55c0.84,0.33,1.65,0.74,2.43,1.2c0.27,0.16,0.42,0.54,0.62,0.82c-0.32,0.17-0.62,0.38-0.96,0.51
	c-0.19,0.07-0.43,0.02-0.64,0.02c-9,0-17.99,0.01-26.99,0c-0.61,0-1.22-0.16-1.83-0.25C387.15,146.56,387.16,146.36,387.17,146.16z"
	/>
<path d="M429.39,32.81c-1.02,0.81-1.94,1.8-3.07,2.38c-3.31,1.72-6.88,2.66-10.61,2.62c-5.56-0.06-8.77-3.87-7.81-9.32
	c0.72-4.1,2.9-7.46,5.98-10.23c0.19-0.17,0.43-0.29,0.65-0.41c0.14-0.08,0.29-0.13,0.65-0.02c-0.32,0.45-0.61,0.93-0.96,1.35
	c-1.95,2.38-3.34,5.04-4.05,8.04c-1.2,5.12,1.5,8.4,6.77,8.04c3.99-0.27,7.87-1.15,11.55-2.77c0.18-0.08,0.38-0.1,0.57-0.15
	C429.18,32.49,429.29,32.65,429.39,32.81z"/>
<path d="M63.58,342.68c3.85,4.11,8.72,3.93,13.66,3.3c1.8-0.23,3.59-0.59,5.34-1.05c4.59-1.18,8.97-2.87,12.87-5.67
	c0.32-0.23,0.91-0.07,1.37-0.1c-0.02,0.48,0.15,1.18-0.1,1.4c-1.05,0.94-2.15,1.9-3.38,2.57c-4.5,2.44-9.38,3.74-14.42,4.47
	c-3.36,0.48-6.76,0.77-10.01-0.38c-1.67-0.59-3.18-1.66-4.68-2.65c-0.48-0.32-0.68-1.08-1.01-1.64
	C63.35,342.86,63.46,342.77,63.58,342.68z"/>
<path style="fill:#CC0022;" d="M308.04,230.18c2.99,0.39,5.98,0.79,9.34,1.23c-0.63-1.16-1.11-1.92-1.44-2.74
	c-0.16-0.38-0.21-1.04,0.01-1.27c0.25-0.26,0.99-0.41,1.28-0.23c0.78,0.49,1.58,1.07,2.11,1.8c0.64,0.9,1.15,1.95,1.43,3.01
	c0.35,1.3-0.41,2.25-1.7,2.1c-4.15-0.5-8.31-1.03-12.42-1.78c-2-0.36-2.3-1.78-0.96-3.35c0.36-0.42,0.74-0.95,1.22-1.13
	c0.51-0.19,1.15-0.03,1.73-0.03c-0.09,0.53-0.16,1.06-0.28,1.59c-0.03,0.14-0.22,0.25-0.33,0.37
	C308.02,229.9,308.03,230.04,308.04,230.18z"/>
<path d="M105.17,287.75c-0.67-0.08-1.3-0.07-1.85-0.27c-0.34-0.12-0.75-0.54-0.78-0.86c-0.03-0.31,0.35-0.92,0.61-0.95
	c2.84-0.37,5.69-0.63,8.85-0.17c-1.27,1.56-2.89,1.44-4.21,1.88c0,2.44,0.07,4.84-0.02,7.24c-0.09,2.33-0.35,4.65-0.54,6.97
	c-0.01,0.13-0.02,0.26-0.06,0.38c-0.22,0.72-0.23,1.72-1.26,1.7c-1.13-0.03-1.18-1.04-1.15-1.84c0.09-3.02,0.29-6.04,0.39-9.06
	C105.21,291.13,105.17,289.5,105.17,287.75z"/>
<path d="M434.36,29.13c-0.37,0.25-0.71,0.55-1.11,0.74c-4.3,2.15-8.62,2.08-12.82-0.15c-3.19-1.69-5.21-6.25-4.64-10.17
	c0.17-1.18,0.54-2.35,1-3.45c0.15-0.36,0.87-0.47,1.32-0.7c0.02,0.44,0.17,0.94,0.03,1.32c-2.1,5.74,2.14,11.96,8.62,12.38
	c2.22,0.15,4.47-0.18,6.71-0.28c0.25-0.01,0.5,0,0.75,0C434.26,28.92,434.31,29.03,434.36,29.13z"/>
<path d="M114.65,297.33c0.32-1.9,0.64-3.8,0.96-5.7c0.11-0.68,0.07-1.45,0.38-2.02c0.28-0.52,0.94-1.17,1.43-1.16
	c0.5,0,1.12,0.65,1.45,1.16c0.24,0.38,0.22,1.03,0.12,1.52c-0.51,2.49-1.06,4.98-1.65,7.46c-0.13,0.53-0.45,1.04-0.78,1.48
	c-0.94,1.25-2.45,1.33-3.42,0.09c-1.59-2.03-2.48-4.37-2.51-6.95c-0.01-0.53,0.62-1.07,0.95-1.61c0.34,0.47,0.79,0.9,0.99,1.42
	c0.55,1.43,0.99,2.91,1.47,4.36C114.24,297.36,114.45,297.35,114.65,297.33z"/>
<path d="M92.38,305.87c-0.93-1.08-1.88-2.15-2.8-3.24c-2.77-3.28-6.22-4.61-10.68-3.99c0.22,0.41,0.36,0.81,0.61,1.1
	c3.72,4.28,5.68,9.41,7.3,14.73c0.54,1.77,1.25,3.49,1.95,5.2c0.22,0.55,0.6,1.06,0.98,1.52c1.01,1.19,1.78,1.18,2.68-0.13
	c1.67-2.43,2.32-5.1,1.44-7.98c-0.94-3.07-2.47-5.76-5.09-7.89c0.5,0.2,1.09,0.3,1.49,0.62c3.79,2.96,6.84,9.7,3.16,15.42
	c-1.54,2.39-3.38,2.49-4.76,0.01c-1.12-2.01-1.94-4.24-2.59-6.45c-1.53-5.28-3.62-10.24-7.2-14.5c-0.41-0.48-0.52-1.21-0.77-1.82
	c0.65-0.24,1.29-0.64,1.95-0.68c4.96-0.34,8.44,2.14,11.21,5.97c0.46,0.63,0.94,1.25,1.41,1.88
	C92.59,305.7,92.48,305.79,92.38,305.87z"/>
<path d="M98.06,252.69c3.19,1.54,6.32,1.79,9.51,0.21c0.54-0.27,1.04-0.68,1.61-0.82c0.44-0.11,1.21-0.04,1.37,0.22
	c0.23,0.38,0.11,1.04-0.01,1.54c-0.07,0.29-0.42,0.54-0.68,0.76c-3.51,2.96-10.2,2.59-13.33-0.78c-0.32-0.35-0.56-1.21-0.36-1.52
	c0.36-0.54,1.1-1.17,1.67-1.16C99.07,251.16,98.28,251.97,98.06,252.69z"/>
<path d="M101.84,246.93c-0.02,0.52,0.09,1.1-0.11,1.54c-0.22,0.48-0.7,1.13-1.1,1.16c-0.39,0.03-1.12-0.58-1.21-1
	c-0.34-1.64-0.46-3.33-0.7-5c-0.38-2.7-0.78-5.39-1.16-8.08c-0.1-0.69-0.27-1.49,0.65-1.71c0.96-0.23,1.33,0.53,1.49,1.26
	c0.85,3.92,1.65,7.84,2.46,11.77C102.06,246.88,101.95,246.91,101.84,246.93z"/>
<path d="M108.16,245.02c-0.06,0.59-0.08,1.55-0.28,2.46c-0.07,0.32-0.54,0.71-0.88,0.77c-0.24,0.04-0.73-0.35-0.84-0.64
	c-0.27-0.72-0.46-1.49-0.56-2.25c-0.52-3.98-1.03-7.97-1.47-11.97c-0.06-0.52,0.36-1.08,0.56-1.63c0.49,0.38,1.31,0.69,1.42,1.16
	c0.63,2.55,1.14,5.14,1.59,7.73C107.96,241.98,108,243.33,108.16,245.02z"/>
<path d="M275.3,133.89c0.76,1.23,1.36,30.29,0.56,31.73c-0.18-0.3-0.39-0.5-0.43-0.74c-0.11-0.59-0.2-1.2-0.21-1.8
	c-0.21-9.12-0.4-18.24-0.58-27.36c-0.01-0.63,0.16-1.26,0.25-1.89C275.03,133.86,275.16,133.87,275.3,133.89z"/>
<path d="M262.7,205.12c-1.43-1.21-2.85-2.41-4.45-3.76c-2.27,2.22-4.58,4.46-6.88,6.7c-0.14-0.13-0.28-0.27-0.42-0.4
	c0.47-1.57,1.74-2.62,2.8-3.79c1.07-1.19,2.17-2.36,3.37-3.66c-1.96-2.17-4.48-4.19-5.84-7.12c2.21,2.27,4.41,4.53,6.53,6.71
	c2.5-1.51,4.08-3.45,6.55-3.72c0.1,0.13,0.19,0.26,0.29,0.4c-1.74,1.31-3.48,2.62-5.29,3.98c1.36,1.43,2.62,2.76,3.89,4.09
	C263.07,204.73,262.88,204.93,262.7,205.12z"/>
<path d="M127.88,349.27c-0.54,3.92-1.33,8.11-3.59,11.86c-0.52,0.85-1.11,2.15-2.32,1.45c-1.04-0.6-0.21-1.7,0.08-2.56
	c1.22-3.63,2.45-7.26,3.67-10.9c0.15-0.45,0.18-0.97,0.44-1.34c0.23-0.33,0.68-0.64,1.06-0.68c0.18-0.02,0.5,0.57,0.64,0.93
	C127.96,348.29,127.88,348.63,127.88,349.27z"/>
<path style="fill:#CC0022;" d="M328.4,163.37c1.83-0.28,3.66-0.56,5.5-0.83c0.02-0.13,0.03-0.25,0.05-0.38
	c-0.72-0.31-1.44-0.61-2.15-0.92c-1.03-0.45-2.08-0.86-3.07-1.38c-0.36-0.19-0.58-0.65-0.86-0.99c0.39-0.18,0.78-0.47,1.19-0.51
	c0.94-0.11,1.9-0.1,2.84-0.16c0.23-0.02,0.45-0.13,0.94-0.29c-1.17-0.45-2.12-0.73-2.97-1.19c-0.42-0.23-0.65-0.8-0.96-1.21
	c0.5-0.08,1.05-0.33,1.48-0.2c1.4,0.43,2.78,0.95,4.12,1.55c0.38,0.17,0.75,0.72,0.8,1.14c0.03,0.22-0.61,0.66-1.01,0.77
	c-1.07,0.29-2.17,0.45-3.65,0.74c0.87,0.42,1.45,0.71,2.04,0.99c0.59,0.28,1.22,0.48,1.75,0.84c0.39,0.26,0.64,0.73,0.95,1.1
	c-0.38,0.31-0.72,0.79-1.14,0.88c-1.6,0.35-3.22,0.59-4.84,0.81c-0.32,0.04-0.67-0.14-1-0.22
	C328.4,163.72,328.4,163.55,328.4,163.37z"/>
<path style="fill:#CC0022;" d="M339.97,125.81c1.99,1.79,4.34,2.32,6.91,2.54c-0.23-1.74-1.07-2.4-2.41-2.32
	c-0.35,0.02-1.01-0.46-1.05-0.77c-0.14-1.15-0.17-2.33-0.06-3.49c0.03-0.35,0.64-0.64,0.99-0.96c0.34,0.38,1.02,0.84,0.95,1.11
	c-0.44,1.67,0.53,2.49,1.63,3.42c1.04,0.87,1.94,1.97,1.33,3.5c-0.39,0.97-1.75,1.24-3.65,0.63c-1.47-0.47-2.91-1.09-4.28-1.79
	C339.69,127.34,339.07,126.68,339.97,125.81z"/>
<path d="M32.91,313.04c-0.55-0.72-1.28-1.37-1.62-2.18c-1.56-3.71-1.2-7.34,0.7-10.84c0.16-0.3,0.38-0.67,0.66-0.78
	c0.5-0.21,1.08-0.25,1.62-0.36c-0.06,0.45,0,0.97-0.2,1.35c-1.59,3.12-1.52,6.43-1.21,9.77c0.09,0.93,0.3,1.85,0.46,2.77
	C33.19,312.86,33.05,312.95,32.91,313.04z"/>
<path style="fill:#CC0022;" d="M338.7,93.55c0.94-2.7,1.8-5.37,2.84-7.97c0.19-0.47,1.14-0.64,1.74-0.95
	c0.27,0.61,0.91,1.35,0.75,1.82c-0.95,2.77-2.06,5.5-3.19,8.2c-0.11,0.27-0.96,0.56-1.13,0.42C339.3,94.76,339.09,94.18,338.7,93.55
	z"/>
<path style="fill:#CC0022;" d="M344.64,135.88c-1.07-0.12-2.15-0.16-3.19-0.41c-0.47-0.12-0.83-0.68-1.24-1.04
	c0.49-0.25,0.99-0.72,1.47-0.71c1.46,0.04,2.93,0.23,4.38,0.43c1.18,0.16,1.62,1.03,0.84,1.91c-0.86,0.98-1.96,1.76-3.06,2.71
	c0.75,0.19,1.54,0.38,2.43,0.6c-0.14,0.3-0.18,0.55-0.32,0.65c-0.78,0.55-3.83,0.36-4.46-0.33c-0.77-0.82-0.24-1.44,0.47-1.89
	c0.89-0.57,1.84-1.05,2.77-1.57C344.7,136.1,344.67,135.99,344.64,135.88z"/>
<path style="fill:#CC0022;" d="M345.44,156.13c-0.43,0.05-0.88,0.2-1.3,0.13c-1.62-0.25-3.23-0.55-4.84-0.88
	c-0.81-0.17-1.42-0.55-1.28-1.59c0.07-0.54-0.17-1.11-0.17-1.67c0-1.49,0.89-2.57,2.12-2.67c1.22-0.09,2.34,0.81,2.66,2.17
	c0.04,0.16,0.09,0.31,0.24,0.88c0.65-1.13,1.15-1.98,1.83-3.15c0.26,0.66,0.52,1.03,0.55,1.42c0.11,1.3-0.85,2.82-2.04,3.37
	c-1.02,0.47-1.57,0.08-1.49-1.07c0.03-0.43,0.23-0.97,0.05-1.26c-0.31-0.48-0.83-1.05-1.33-1.12c-0.37-0.05-1.07,0.54-1.23,0.98
	c-0.55,1.48,0.21,2.71,1.73,3.02c1.1,0.22,2.21,0.38,3.31,0.61c0.42,0.09,0.82,0.31,1.23,0.47
	C345.48,155.9,345.46,156.01,345.44,156.13z"/>
<path d="M283.01,114.37c1.02,1.82,2.04,3.64,3.04,5.4c1.87-2.7,3.64-5.26,5.43-7.81c0.04-0.05,0.31,0.06,0.57,0.11
	c-1.46,2.58-2.84,5.11-4.33,7.58c-0.58,0.97-0.7,1.7,0.06,2.65c0.64,0.81,1.04,1.81,1.54,2.73c-0.14,0.09-0.27,0.18-0.41,0.27
	c-0.81-1.02-1.62-2.05-2.51-3.18c-0.54,1.04-1.05,2.02-1.56,3c-0.13-0.05-0.25-0.1-0.38-0.15c0.3-0.99,0.53-2.01,0.92-2.96
	c0.28-0.68,0.18-1.15-0.2-1.77c-0.87-1.43-1.66-2.92-2.4-4.43c-0.2-0.41-0.12-0.95-0.18-1.43
	C282.73,114.38,282.87,114.37,283.01,114.37z"/>
<path d="M122.55,229.23c-0.31-0.22-0.94-0.45-1.07-0.85c-0.1-0.31,0.33-1.09,0.68-1.2c2.45-0.79,4.93-1.52,7.43-2.12
	c0.37-0.09,1.24,0.51,1.31,0.9c0.09,0.5-0.35,1.13-0.66,1.64c-0.13,0.21-0.51,0.33-0.8,0.38
	C127.23,228.39,125.01,228.78,122.55,229.23z"/>
<path style="fill:#CC0022;" d="M338.87,167.18c0.9,1.67,1.65,3.02,2.35,4.39c0.13,0.26,0.1,0.61,0.15,0.91
	c-0.36,0.03-0.92,0.23-1.04,0.08c-0.95-1.19-2.32-1.16-3.6-1.45c-0.35-0.08-0.63-0.45-0.94-0.69c0.35-0.15,0.71-0.42,1.06-0.43
	c0.66-0.01,1.33,0.14,2.06,0.23c-0.09-1.65-0.96-2.54-2.17-3.28c-0.51-0.31-0.81-0.95-1.21-1.43c0.63-0.07,1.3-0.3,1.9-0.19
	c1.48,0.27,2.94,0.66,4.39,1.09c0.36,0.11,0.61,0.59,0.91,0.9c-0.41,0.13-0.83,0.4-1.22,0.37
	C340.76,167.64,340.02,167.42,338.87,167.18z"/>
<path style="fill:#CC0022;" d="M336.99,136.8c-1.71-0.21-3.43-0.36-5.13-0.65c-1.92-0.33-3.09-1.79-2.91-3.68
	c0.05-0.56,0.57-1.38,1.03-1.52c0.48-0.14,1.28,0.28,1.73,0.69c0.44,0.4,0.62,1.1,0.99,1.81c0.54-0.34,0.99-0.64,1.46-0.92
	c0.55-0.33,1.08-0.74,1.68-0.94c0.37-0.12,0.85,0.08,1.28,0.13c-0.27,0.34-0.47,0.76-0.81,0.99c-0.81,0.57-1.66,1.09-2.54,1.55
	c-1.1,0.58-1.68,0.28-2.01-0.9c-0.18-0.67-0.2-1.8-1.13-1.53c-1.02,0.29-0.38,1.31-0.23,2.01c0.18,0.88,0.81,1.21,1.67,1.34
	c1.68,0.25,3.34,0.57,5.01,0.86C337.06,136.29,337.03,136.55,336.99,136.8z"/>
<path d="M117.85,221.69c0.21-0.54,0.3-1.03,0.55-1.41c1.06-1.62,2.09-3.28,3.29-4.79c0.35-0.45,1.37-0.81,1.84-0.62
	c0.91,0.38,0.69,1.38,0.23,2.01c-1.38,1.87-2.86,3.67-4.35,5.45c-0.19,0.23-0.75,0.37-1.01,0.26
	C118.14,222.47,118.03,221.99,117.85,221.69z"/>
<path style="fill:#CC0022;" d="M354.83,90.76c-0.18,0.28-0.43,0.92-0.89,1.3c-1.58,1.34-3.22,2.6-4.86,3.85
	c-0.24,0.18-0.61,0.18-0.92,0.26c-0.05-0.36-0.25-0.79-0.12-1.06c1.12-2.34,2.79-4.25,4.88-5.74
	C353.92,88.66,354.88,89.27,354.83,90.76z"/>
<path style="fill:#CC0022;" d="M333.25,94.44c-0.38,0.25-0.74,0.68-1.05,0.64c-0.45-0.06-1.06-0.34-1.25-0.71
	c-1.06-1.97-2.05-3.98-2.96-6.02c-0.16-0.35,0.03-1.04,0.32-1.34c0.17-0.18,1.01-0.04,1.23,0.22c0.85,1.01,1.71,2.06,2.31,3.22
	C332.44,91.62,332.74,92.95,333.25,94.44z"/>
<path d="M110.9,217.72c0.49-2.14,1.02-4.58,1.65-7c0.09-0.34,0.74-0.86,0.96-0.78c0.38,0.13,0.86,0.64,0.89,1.02
	c0.07,0.8-0.05,1.63-0.23,2.42c-0.43,1.89-0.9,3.77-1.42,5.63c-0.12,0.43-0.5,0.79-0.76,1.18c-0.3-0.38-0.66-0.72-0.89-1.14
	C110.95,218.78,110.99,218.39,110.9,217.72z"/>
<path style="fill:#CC0022;" d="M330.53,124.31c0.03,1.37-0.34,2.78,1.47,2.96c0.12-0.56,0.24-1.15,0.36-1.73
	c0.11-0.04,0.22-0.07,0.33-0.11c0.24,0.34,0.54,0.66,0.71,1.03c0.18,0.39,0.09,0.97,0.36,1.22c0.44,0.42,1.07,0.65,1.63,0.95
	c0.15-0.44,0.39-0.87,0.42-1.31c0.03-0.45-0.15-0.91-0.25-1.4c1.27,0.37,2,1.74,1.68,3.04c-0.24,0.97-1.1,1.43-2.41,0.98
	c-1.5-0.52-2.98-1.16-4.36-1.94C328.69,126.98,328.69,126.12,330.53,124.31z"/>
<path style="fill:#CC0022;" d="M336.83,139.55c-0.46,0.21-0.61,0.29-0.77,0.36c-1.25,0.57-1.54,1.67-0.8,2.91
	c0.14,0.23,0.2,0.51,0.29,0.76c-0.31,0.01-0.69,0.16-0.91,0.02c-1.52-0.91-3.04-1.82-4.47-2.86c-0.79-0.57-0.59-1.59,0.28-1.64
	c1.88-0.11,3.78-0.02,5.67,0.01C336.22,139.12,336.33,139.25,336.83,139.55z M333.92,140.27c-0.65,0.05-1.18,0.1-1.72,0.14
	c-0.02,0.11-0.03,0.22-0.05,0.34c0.54,0.34,1.09,0.68,1.77,1.12C333.92,141.22,333.92,140.81,333.92,140.27z"/>
<path style="fill:#CC0022;" d="M334.15,150.22c1.21,0.15,1.85,1.03,1.78,2.3c-0.06,1.07-0.7,1.57-1.7,1.53
	c-1.86-0.08-3.56-0.72-4.93-1.98c-0.39-0.36-0.57-1.16-0.5-1.7c0.05-0.4,0.69-0.72,0.99-1.01c0.41,0.88,0.62,1.57,1.03,2.11
	c0.14,0.19,0.84,0.15,1.15-0.02c0.64-0.36,0.87-0.21,1.13,0.43c0.14,0.34,0.57,0.56,0.87,0.83c0.12-0.36,0.32-0.72,0.34-1.1
	C334.35,151.19,334.23,150.77,334.15,150.22z"/>
<path style="fill:#CC0022;" d="M304.53,225.03c0.33,0,0.56-0.07,0.73,0.01c2.96,1.33,5.97,1.09,8.98,0.26
	c0.58-0.16,1.03-0.75,1.59-1.06c0.39-0.22,0.85-0.33,1.3-0.41c0.1-0.02,0.41,0.37,0.38,0.4c-0.21,0.3-0.43,0.65-0.73,0.83
	c-3.29,1.97-6.82,2.55-10.56,1.65C305.1,226.43,304.83,226.12,304.53,225.03z"/>
<path d="M28.85,308.6c-0.6-0.64-1.27-1.08-1.56-1.7c-0.82-1.73-0.6-3.55,0.02-5.29c0.15-0.42,0.88-0.64,1.34-0.95
	c0.19,0.5,0.55,1,0.54,1.49C29.15,304.17,28.99,306.17,28.85,308.6z"/>
<path d="M92.14,326.3c0.07-0.55,0.12-1.01,0.21-1.74c0.94,1.12,1.06,2.23,0.61,3.22c-0.38,0.82-1.13,1.53-1.86,2.09
	c-0.17,0.13-1.24-0.43-1.4-0.86C89.12,327.45,90.43,326,92.14,326.3z"/>
<path style="fill:#CC0022;" d="M315.1,156.02c-0.19,1.09-0.22,2.03-0.55,2.85c-0.16,0.41-0.88,0.83-1.32,0.81
	c-0.31-0.01-0.87-0.81-0.82-1.19c0.13-0.96,0.48-1.92,0.9-2.8c0.14-0.3,0.79-0.53,1.16-0.48
	C314.74,155.24,314.94,155.79,315.1,156.02z"/>
<path style="fill:#CC0022;" d="M316.21,150.39c-0.1,0.52-0.07,1.11-0.33,1.51c-0.26,0.39-0.81,0.82-1.23,0.81
	c-0.33,0-0.95-0.66-0.93-0.99c0.06-0.96,0.26-1.97,0.64-2.85c0.34-0.78,1.23-0.67,1.57,0.13
	C316.1,149.43,316.12,149.92,316.21,150.39z"/>
<path style="fill:#CC0022;" d="M343.36,146.5c-0.94-0.11-1.9-0.15-2.81-0.36c-0.36-0.09-0.62-0.58-0.92-0.89
	c0.35-0.16,0.7-0.47,1.04-0.46c1.33,0.03,2.67,0.12,3.99,0.3c0.38,0.05,0.7,0.48,1.05,0.73c-0.35,0.2-0.68,0.49-1.05,0.59
	c-0.41,0.1-0.86,0.02-1.29,0.02C343.37,146.45,343.37,146.47,343.36,146.5z"/>
<path style="fill:#CC0022;" d="M342.57,160.62c-1.35,1.31-4.45,0.76-5.24-1.01C339.18,159.97,340.77,160.28,342.57,160.62z"/>
<path d="M104.89,252.63c-0.32-0.25-0.72-0.4-0.76-0.63c-0.05-0.25,0.17-0.72,0.39-0.81c1-0.4,2.03-0.71,3.06-1.01
	c0.14-0.04,0.51,0.19,0.5,0.25c-0.05,0.31-0.11,0.77-0.32,0.88C106.87,251.79,105.91,252.17,104.89,252.63z"/>
<path style="fill:#FFFFFF;" d="M170.34,392.09c-0.12-0.8-0.22-1.6-0.35-2.4c-0.12-0.72-0.26-1.44-0.58-2.14
	c-0.61,1.57-0.23,3.1,0.1,4.6c0.37,1.69,0.39,1.78-0.9,3.3c-0.26-1.55-0.5-3.02-0.75-4.49c-0.22,0.03-0.44,0.05-0.65,0.08
	c0.13,1.36,0.16,2.73,0.4,4.06c0.36,1.97,0.31,2.35-1.2,3.99c-0.52-1.94-1.04-3.86-1.51-5.79c-0.05-0.22,0.19-0.56,0.35-0.79
	c2.77-3.92,5.55-7.83,8.34-11.74c0.35-0.48,0.74-0.94,1.17-1.48c-0.46-0.63-0.95-0.17-1.32,0.28c-1.12,1.37-2.26,2.74-3.27,4.19
	c-3.18,4.63-6.55,9.16-9.37,14c-2.48,4.25-4.75,8.7-5.78,13.61c-0.08,0.4-0.01,0.84,0.26,1.27c0.64-1.75,1.28-3.49,1.99-5.42
	c0.42,0.84,0.76,1.52,1.1,2.2c0.12-0.02,0.24-0.05,0.36-0.07c-0.38-1.97-1.45-3.99,0.39-5.78c0.34,1.13,0.2,2.53,1.73,3.54
	c-0.48-2.42-1.66-4.5-0.32-6.62c0.58,1.57,1.15,3.03,1.66,4.52c0.09,0.25-0.03,0.68-0.2,0.89c-2.57,3.2-5.17,6.39-7.79,9.56
	c-0.2,0.25-0.69,0.49-0.96,0.41c-1.7-0.47-3.49-0.81-5.04-1.6c-5.53-2.82-10.78-6.07-15.3-10.4c-1.75-1.67-3.61-3.23-5.69-5.09
	c2.2-3.04,4.42-6.11,6.64-9.17c0.08,0.06,0.17,0.12,0.25,0.18c-1.37,2.23-2.74,4.46-4.11,6.69c0.15,0.1,0.3,0.2,0.45,0.3
	c2.43-3.41,4.87-6.82,7.46-10.45c-0.09-0.03-0.36-0.14-0.78-0.31c0.63-0.5,1.09-0.86,1.8-1.43c0.17,0.3,0.29,0.59,0.48,0.82
	c2.94,3.63,5.92,7.24,8.84,10.89c0.72,0.9,1.21,2,1.93,2.9c0.39,0.48,1.05,1.01,1.6,1.02c0.48,0.01,1.17-0.58,1.42-1.08
	c4.58-9.08,11.56-15.88,20.02-21.29c0.4-0.26,0.83-0.5,1.27-0.64c0.46-0.15,0.97-0.17,1.45-0.25c0.07,0.5,0.3,1.04,0.17,1.49
	c-0.59,2.12-1.16,4.26-1.97,6.3c-1,2.52-2.24,4.95-3.37,7.42C170.62,392.13,170.48,392.11,170.34,392.09z"/>
<path style="fill:#FFFFFF;" d="M84.36,377.72c3.63,4.48,7.85,8.23,12.12,11.92c0.16-0.13,0.31-0.25,0.47-0.38
	c-0.28-0.39-0.52-0.83-0.85-1.18c-2.21-2.3-4.58-4.48-6.63-6.92c-1.34-1.6-2.31-3.54-3.29-5.41c-0.31-0.6-0.24-1.49-0.13-2.21
	c0.21-1.4,0.56-2.77,0.86-4.18c0.05,0.02,0.19,0.03,0.28,0.1c6.28,5.11,12.54,10.24,18.84,15.32c0.89,0.71,0.99,1.22,0.37,2.2
	c-2,3.19-4.34,6.04-7.33,8.34c-2.18,1.67-4.62,2.77-7.33,3.08c-1.11,0.13-2.28-0.26-3.42-0.33c-0.76-0.05-1.74-0.25-2.24,0.13
	c-0.42,0.32-0.5,1.42-0.34,2.08c0.91,3.74,1.94,7.44,2.93,11.16c0.06,0.24,0.07,0.48,0.14,0.98c-0.73-0.29-1.27-0.48-1.8-0.71
	c-8.53-3.87-14.15-10.48-17.74-18.97c-0.13-0.32-0.27-0.64-0.36-0.97c-0.38-1.44-0.05-1.82,1.4-1.48c2.13,0.49,4.08-0.08,5.55-1.48
	c1.96-1.86,3.73-3.95,5.39-6.09C82.48,381.11,83.4,379.28,84.36,377.72z"/>
<path style="fill:#FFFFFF;" d="M164.29,402.32c-0.34-2.37-0.69-4.39-0.87-6.42c-0.05-0.54,0.43-1.13,0.67-1.7
	c0.11,0.02,0.22,0.03,0.33,0.05c0.34,1.56,0.55,3.17,1.04,4.68C165.9,400.28,165.41,401.15,164.29,402.32z"/>
<path style="fill:#FFFFFF;" d="M162.5,397.04c0.46,2.06,0.96,3.96,1.27,5.88c0.08,0.46-0.45,1.02-0.9,1.5
	C162.47,401.99,160.37,399.7,162.5,397.04z"/>
<path style="fill:#FFFFFF;" d="M266.68,132.21c-0.39,0.06-0.68,0.03-0.89,0.14c-0.28,0.15-0.5,0.41-0.74,0.62
	c0.28,0.21,0.53,0.54,0.84,0.6c1.71,0.37,1.64,0.35,1.57,2.19c-0.15,3.8-0.21,7.61-0.3,11.42c-0.01,0.55,0,1.1,0,1.83
	c-3.52-0.23-6.86-0.45-10.49-0.69c1.21-1.77,2.28-3.34,3.31-4.85c1.03,0.58,1.97,1.11,3.18,1.79c-0.1-0.55-0.08-0.67-0.13-0.7
	c-2.57-1.75-2.57-1.79-1.11-4.42c0.71-1.28,1.39-2.59,2.07-3.89c0.15-0.28,0.23-0.59,0.17-1.01c-1.32,0.45-1.68,1.74-2.33,2.74
	c-0.68,1.04-1.27,2.14-1.99,3.36c-1.7-2.02-3.3-3.93-4.91-5.84c-0.17,0.13-0.34,0.26-0.52,0.4c1.12,2.46,3.18,4.28,4.76,6.39
	c-0.96,1.77-1.87,3.53-2.88,5.24c-0.17,0.3-0.74,0.47-1.14,0.5c-1.03,0.07-2.06,0.02-3.09,0.02c-0.02,0.23-0.03,0.46-0.05,0.7
	c2.46,0.3,4.92,0.66,7.39,0.87c2.49,0.21,5,0.26,7.73,0.39c-0.2,5.78-0.41,11.62-0.62,17.47c-5.26,0.72-10.41,1.42-15.69,2.15
	c0.61-17.81,1.23-35.59,1.84-53.32c5.01-0.79,9.82-1.55,14.72-2.32C267.14,120.12,266.91,126.1,266.68,132.21z M260.35,157.76
	c-1.97-2.52-3.96-5.06-5.95-7.6c-0.1,0.07-0.2,0.13-0.3,0.2c0.9,3.21,3.47,5.39,5.41,8.09c-0.43,0.32-0.85,0.61-1.24,0.94
	c-1.59,1.33-3.19,2.64-4.72,4.03c-0.41,0.38-0.58,1.03-0.86,1.55c0.1,0.06,0.21,0.12,0.31,0.19c2.44-1.9,4.89-3.8,7.38-5.73
	c1.14,1.33,2.19,2.56,3.23,3.78c0.13-0.09,0.27-0.18,0.4-0.27c-0.86-1.37-1.71-2.75-2.59-4.15c1.51-1.23,3.03-2.46,4.54-3.68
	c-0.11-0.16-0.21-0.32-0.32-0.48C263.92,155.64,262.22,156.65,260.35,157.76z M264.82,128.14c0.14-0.07,0.27-0.13,0.41-0.2
	c-0.15-0.43-0.24-0.88-0.46-1.27c-0.7-1.24-1.38-2.51-2.2-3.67c-0.55-0.77-0.47-1.24,0.18-1.87c1.11-1.09,2.14-2.26,3.19-3.41
	c0.25-0.28,0.45-0.61,0.68-0.91c-0.12-0.1-0.24-0.21-0.37-0.31c-1.59,1.54-3.19,3.07-4.85,4.68c-0.28-0.33-0.52-0.63-0.78-0.91
	c-1.01-1.13-1.99-2.28-3.05-3.36c-0.28-0.29-0.8-0.36-1.21-0.52c-0.06,0.13-0.11,0.26-0.17,0.39c0.72,0.8,1.44,1.6,2.16,2.4
	c2.47,2.77,2.47,2.78-0.1,5.51c-1.19,1.27-2.4,2.53-3.59,3.79c0.08,0.11,0.15,0.22,0.23,0.32c0.52-0.34,1.09-0.64,1.56-1.04
	c1.73-1.48,3.43-2.99,5.16-4.51C262.52,124.65,263.67,126.4,264.82,128.14z M266.31,131.5c0.02-0.17,0.04-0.34,0.06-0.52
	c-2.98-0.52-5.95-1.03-8.93-1.55c-1.04-0.18-2.07-0.4-3.11-0.56c-0.2-0.03-0.42,0.08-0.63,0.13c0.06,0.18,0.07,0.47,0.2,0.54
	c0.37,0.19,0.78,0.36,1.19,0.43c3.13,0.53,6.27,1.04,9.41,1.52C265.08,131.58,265.7,131.5,266.31,131.5z"/>
<path style="fill:#FFFFFF;" d="M266.14,174.58c0,3.56,0.01,6.76,0,9.95c-0.01,2.9-0.02,2.91-2.81,3.36
	c-3.89,0.62-7.78,1.22-11.67,1.82c-0.46,0.07-0.93,0.07-1.51,0.11c-0.04-0.41-0.12-0.74-0.11-1.07c0.21-5.71,0.45-11.42,0.63-17.13
	c0.03-0.86,0.47-1.01,1.11-1.08c4.08-0.46,8.15-0.92,12.23-1.38c0.76-0.09,1.53-0.17,2.36-0.26c0,1.74,0,3.36,0,5
	c-3.13,0.48-5.24,2.64-7.78,4.3c-0.9-1.25-1.8-2.51-2.7-3.77c-0.16,0.09-0.32,0.18-0.47,0.28c0.74,1.41,1.48,2.82,2.25,4.3
	c-2.29,2.2-4.79,4.29-6.67,6.91c0.15,0.16,0.31,0.32,0.46,0.47c2.34-2.03,4.67-4.07,7.12-6.2c0.99,1.3,1.95,2.56,3.1,4.08
	c0.32-2.31-1.62-3.26-2.16-5.04C261.63,177.75,263.8,176.22,266.14,174.58z"/>
<path style="fill:#FFFFFF;" d="M260.01,111.7c0-3.58-0.03-7.06,0.02-10.54c0.02-1.14,0.5-2.14,1.79-3.01
	c0.17,1.85,0.37,3.48,0.46,5.13c0.13,2.37,0.17,4.74,0.26,7.11C262.58,111.54,262.46,111.62,260.01,111.7z"/>
<path style="fill:#FFFFFF;" d="M60.36,282.11c-1.63,0.21-3.27,0.42-4.87,0.63C56.54,280.64,57.87,280.46,60.36,282.11z"/>
<path style="fill:#FFFFFF;" d="M179.04,185c1.52-1.55,2.8-2.92,4.16-4.2c0.74-0.7,1.44-0.49,2.04,0.37c0.86,1.23,1.68,1.33,2.8,0.34
	c1.33-1.17,2.55-2.47,3.88-3.62c0.9-0.78,1.88-1.73,3.21-1.24c1.38,0.5,1.51,1.87,1.77,3.1c0.08,0.38,0.14,0.77,0.23,1.14
	c0.26,0.99,0.89,1.19,1.77,0.78c0.08-0.04,0.14-0.1,0.22-0.14c2.94-1.77,4.17-1.12,4.8,2.61C195.75,184.42,187.59,184.7,179.04,185z
	"/>
<path style="fill:#FFFFFF;" d="M333.92,140.27c0,0.54,0,0.94,0,1.6c-0.69-0.43-1.23-0.77-1.77-1.12c0.02-0.11,0.03-0.22,0.05-0.34
	C332.74,140.37,333.28,140.33,333.92,140.27z"/>
<path d="M260.35,157.76c1.87-1.11,3.58-2.12,5.28-3.13c0.11,0.16,0.21,0.32,0.32,0.48c-1.51,1.23-3.02,2.46-4.54,3.68
	c0.88,1.41,1.73,2.78,2.59,4.15c-0.13,0.09-0.27,0.18-0.4,0.27c-1.05-1.22-2.09-2.45-3.23-3.78c-2.49,1.93-4.93,3.83-7.38,5.73
	c-0.1-0.06-0.21-0.12-0.31-0.19c0.28-0.52,0.45-1.17,0.86-1.55c1.53-1.39,3.14-2.7,4.72-4.03c0.39-0.33,0.81-0.62,1.24-0.94
	c-1.94-2.7-4.51-4.88-5.41-8.09c0.1-0.07,0.2-0.13,0.3-0.2C256.39,152.7,258.38,155.24,260.35,157.76z"/>
<path d="M264.82,128.14c-1.15-1.74-2.3-3.49-3.23-4.88c-1.73,1.52-3.43,3.03-5.16,4.51c-0.47,0.4-1.04,0.7-1.56,1.04
	c-0.08-0.11-0.15-0.22-0.23-0.32c1.2-1.26,2.4-2.52,3.59-3.79c2.58-2.74,2.58-2.74,0.1-5.51c-0.71-0.8-1.44-1.6-2.16-2.4
	c0.06-0.13,0.11-0.26,0.17-0.39c0.41,0.17,0.92,0.23,1.21,0.52c1.06,1.08,2.04,2.23,3.05,3.36c0.25,0.28,0.49,0.58,0.78,0.91
	c1.66-1.6,3.25-3.14,4.85-4.68c0.12,0.1,0.24,0.21,0.37,0.31c-0.22,0.31-0.42,0.63-0.68,0.91c-1.05,1.15-2.08,2.32-3.19,3.41
	c-0.64,0.63-0.72,1.1-0.18,1.87c0.82,1.16,1.5,2.42,2.2,3.67c0.22,0.39,0.31,0.85,0.46,1.27
	C265.09,128.01,264.96,128.07,264.82,128.14z"/>
<path d="M266.31,131.5c-0.61,0-1.22,0.08-1.81-0.01c-3.14-0.48-6.28-0.99-9.41-1.52c-0.41-0.07-0.82-0.24-1.19-0.43
	c-0.12-0.06-0.13-0.35-0.2-0.54c0.21-0.05,0.43-0.16,0.63-0.13c1.04,0.17,2.07,0.38,3.11,0.56c2.98,0.52,5.95,1.03,8.93,1.55
	C266.34,131.16,266.32,131.33,266.31,131.5z"/>
</svg>
