<?xml version="1.0" encoding="UTF-8"?>
<svg width="210px" height="210px" viewBox="0 0 210 210" version="1.1" xmlns="http://www.w3.org/2000/svg" xmlns:xlink="http://www.w3.org/1999/xlink">
    <!-- Generator: Sketch 50 (54983) - http://www.bohemiancoding.com/sketch -->
    <title>Oval 2 Copy 2</title>
    <desc>Created with Sketch.</desc>
    <defs>
        <polygon id="path-1" points="0.000248123436 0.00663043102 81.5174812 0.00663043102 81.5174812 30.8256881 0.000248123436 30.8256881"></polygon>
        <polygon id="path-3" points="0.149425382 0.320737934 55.3436976 0.320737934 55.3436976 53.3966161 0.149425382 53.3966161"></polygon>
    </defs>
    <g id="-" stroke="none" stroke-width="1" fill="none" fill-rule="evenodd">
        <g id="solución-" transform="translate(-557.000000, -1692.000000)">
            <g id="Oval-2-Copy-2" transform="translate(557.000000, 1692.000000)">
                <circle fill="#F8F8F8" cx="105" cy="105" r="105"></circle>
                <path d="M130.139935,89.8503493 C132.924994,86.4113095 138.849109,86.1675339 142.256252,90.1924496 C145.829731,94.4157603 150.40549,94.5600476 151.530237,94.5268848 C151.066568,101.198424 146.363468,106.461417 140.643464,106.461417 C134.616989,106.461417 129.713433,100.61953 129.713433,93.4406579 C129.714651,92.1961805 129.864536,90.9918475 130.139935,89.8503493 M127.718621,99.7235525 C127.924561,99.6956259 128.117705,99.6083554 128.288306,99.4716316 C130.339172,104.980728 135.102592,108.853211 140.645902,108.853211 C146.187383,108.853211 150.948975,104.983637 153.002278,99.4780315 C153.170442,99.6101008 153.359931,99.6956259 153.565871,99.7235525 C154.626033,99.8614399 155.711786,98.402277 155.989621,96.4625446 C156.267457,94.5228121 155.635015,92.839655 154.573634,92.7000222 C154.40547,92.6779137 154.231823,92.697695 154.065487,92.7523845 C153.750485,84.5728109 147.852569,78.0275229 140.645902,78.0275229 C133.438624,78.0275229 127.538881,84.5728109 127.224488,92.7547117 C127.055106,92.6988586 126.881458,92.6779137 126.70842,92.7000222 C125.648258,92.839655 125.017035,94.5228121 125.29487,96.4625446 C125.570878,98.402277 126.65724,99.8626035 127.718621,99.7235525" id="Fill-1" fill="#000000"></path>
                <path d="M158.36686,89.9998175 C157.791965,85.6278657 155.965611,81.5882153 153.078197,78.3970571 C149.49142,74.4301346 144.701246,72.2477064 139.59682,72.2477064 C134.48993,72.2477064 129.702221,74.4301346 126.114828,78.3970571 C123.20708,81.6095015 121.375796,85.6852202 120.813841,90.0908752 C119.962282,90.565676 119.407105,91.4662011 119.452086,92.4772963 L119.797146,100.359108 C119.856299,101.673532 120.913046,102.723652 122.234133,102.862604 C123.192908,105.446513 124.762931,107.789771 126.809261,109.697843 C126.73039,110.358307 127.036015,111.035327 127.657123,111.422618 L129.241935,112.411836 C130.117525,112.959956 131.290114,112.720486 131.859463,111.882045 C132.429428,111.040057 132.181108,109.916618 131.304902,109.370272 L129.718241,108.380463 C129.204965,108.059396 128.590634,108.009728 128.054559,108.193618 C126.44818,106.66101 125.182549,104.826848 124.340849,102.809979 L124.860904,102.788102 C125.106759,102.77805 125.340291,102.737251 125.563348,102.670436 L124.99215,89.7124536 C124.765396,89.6633771 124.525702,89.6420909 124.281696,89.6521427 L123.898432,89.6669248 C125.295926,81.3919091 131.801542,75.1160237 139.595588,75.1160237 C147.388402,75.1160237 153.894018,81.3907266 155.294592,89.6604207 L155.075849,89.6521427 C154.831842,89.6420909 154.593997,89.6633771 154.364779,89.7124536 L153.796662,102.670436 C154.01787,102.737251 154.252634,102.77805 154.497873,102.788102 L156.705642,102.877977 C158.216512,102.938879 159.494467,101.812484 159.559166,100.361473 L159.905459,92.4796614 C159.955985,91.3982035 159.317624,90.4438716 158.36686,89.9998175" id="Fill-3" fill="#000000"></path>
                <g id="Group-7" stroke-width="1" transform="translate(47.201835, 110.779817)">
                    <mask id="mask-2" fill="white">
                        <use xlink:href="#path-1"></use>
                    </mask>
                    <g id="Clip-6"></g>
                    <path d="M54.4782298,0.00663043102 L53.1917098,0.00663043102 L41.6595528,10.8200492 L30.1267754,0.00663043102 L27.0407402,0.00663043102 C12.1074312,0.00663043102 0.000248123436,11.357463 0.000248123436,25.3593048 L0.000248123436,30.080288 C0.000248123436,30.32922 0.0132746038,30.5769887 0.0213386155,30.8259207 L81.498872,30.8259207 C81.5038344,30.578152 81.5174812,30.3303832 81.5174812,30.080288 L81.5174812,25.3593048 C81.5187219,11.3586263 69.4115388,0.00663043102 54.4782298,0.00663043102" id="Fill-5" fill="#000000" mask="url(#mask-2)"></path>
                </g>
                <path d="M148.886369,109.816514 L148.485264,109.816514 C147.467075,110.282796 146.400137,110.848162 145.23138,111.203119 L140.814293,129.184695 L136.308345,111.16232 C135.892431,111.036424 135.476516,110.866814 135.068624,110.691958 C135.129715,111.482888 134.915587,112.265076 134.449071,112.941768 C133.728317,113.98857 132.507725,114.611057 131.186548,114.611057 C130.433706,114.611057 129.70061,114.404144 129.068099,114.014799 L127.480959,113.037938 C126.686155,112.550091 126.102393,111.825606 125.847537,111.002618 C124.20486,111.678727 122.698558,112.606628 121.376147,113.717544 C127.178588,118.182775 131.200741,124.742195 132.273233,131.972477 L165.687098,131.972477 C165.693886,131.972477 165.663031,131.628594 165.663031,131.47647 L165.663031,125.578005 C165.663031,116.807244 158.171015,109.816514 148.886369,109.816514" id="Fill-8" fill="#0081FC"></path>
                <g id="Group-12" stroke-width="1" transform="translate(60.688073, 53.944954)">
                    <mask id="mask-4" fill="white">
                        <use xlink:href="#path-3"></use>
                    </mask>
                    <g id="Clip-11"></g>
                    <path d="M41.3075202,40.9246358 C34.1975538,52.6781859 20.3575477,48.7859402 14.9206242,41.7701643 C14.5698749,41.3174958 14.2402327,40.8519274 13.9360431,40.3763909 C16.469508,41.4752262 19.1525844,42.2621189 21.9132602,42.7024739 C22.4725966,43.6863829 23.5819575,44.3448632 24.8452755,44.3137862 L28.0709269,44.2322824 C29.8519881,44.1871328 31.2568474,42.7857367 31.209667,41.1028887 C31.1637281,39.420627 29.679407,38.091353 27.8964835,38.1365026 L24.6714529,38.2180064 C23.6260339,38.2443925 22.7116028,38.7398652 22.1448168,39.4833674 C18.4026639,38.8418915 14.8250217,37.4926813 11.6434468,35.5254495 C9.82327554,29.9016881 10.7172205,24.4813929 13.9850859,24.0721149 C18.4939208,23.5086247 22.0759086,20.2514049 22.0759086,20.2514049 C18.3610706,25.0120471 20.3513398,30.7747754 20.3513398,30.7747754 C20.3513398,30.7747754 19.9527893,27.5175556 28.0442327,24.5112972 C36.1369177,21.5050387 37.7286364,17.370627 37.7286364,17.370627 C40.3812939,24.1360279 45.5543795,24.5112972 45.5543795,24.5112972 C45.5543795,24.5112972 45.5518963,33.9082736 41.3075202,40.9246358 M53.0908321,35.0364268 C55.1313856,24.7933355 53.2783122,14.0342489 46.3943153,7.44123734 C42.6279514,3.16668608 35.9128107,0.320503391 28.2528199,0.320503391 C21.565615,0.320503391 15.6003948,2.488856 11.6844193,5.88328361 C2.4556792,13.0714487 3.00011651,26.7306629 3.84936422,35.5377631 C5.04253242,47.9427571 0.149425382,52.578505 0.149425382,52.578505 C8.23962722,52.326371 16.2075324,48.8193626 16.2075324,48.8193626 C28.3627006,58.9703957 39.95667,49.0691512 39.95667,49.0691512 C44.9950431,52.2038221 55.3436976,52.5767459 55.3436976,52.5767459 C55.3436976,52.5767459 50.570404,47.6906231 53.0908321,35.0364268" id="Fill-10" fill="#000000" mask="url(#mask-4)"></path>
                </g>
            </g>
        </g>
    </g>
</svg>