<?xml version="1.0" encoding="UTF-8"?>
<svg width="210px" height="210px" viewBox="0 0 210 210" version="1.1" xmlns="http://www.w3.org/2000/svg" xmlns:xlink="http://www.w3.org/1999/xlink">
    <!-- Generator: Sketch 50 (54983) - http://www.bohemiancoding.com/sketch -->
    <title>Oval 2 Copy 2</title>
    <desc>Created with Sketch.</desc>
    <defs>
        <polygon id="path-1" points="0 0.0854311927 101.006815 0.0854311927 101.006815 61.651156 0 61.651156"></polygon>
        <radialGradient cx="49.9998663%" cy="49.998123%" fx="49.9998663%" fy="49.998123%" r="54.0541838%" gradientTransform="translate(0.499999,0.499981),scale(0.862069,1.000000),translate(-0.499999,-0.499981)" id="radialGradient-3">
            <stop stop-color="#FFFFFF" offset="0%"></stop>
            <stop stop-color="#EFF0F0" offset="100%"></stop>
        </radialGradient>
    </defs>
    <g id="-" stroke="none" stroke-width="1" fill="none" fill-rule="evenodd">
        <g id="solución-" transform="translate(-975.000000, -1696.000000)">
            <g id="Oval-2-Copy-2" transform="translate(975.000000, 1696.000000)">
                <circle fill="#F8F8F8" cx="105" cy="105" r="105"></circle>
                <g id="Group-3" stroke-width="1" transform="translate(51.055046, 79.954128)">
                    <mask id="mask-2" fill="white">
                        <use xlink:href="#path-1"></use>
                    </mask>
                    <g id="Clip-2"></g>
                    <path d="M94.3600259,55.4948257 L6.51660328,55.4948257 L6.51660328,6.24198165 L94.4905379,6.24198165 L94.4905379,55.4948257 L94.3600259,55.4948257 Z M94.3600259,0.0852110092 L6.51660328,0.0852110092 C2.86739494,0.0852110092 -0.00013983427,2.79434862 -0.00013983427,6.24198165 L-0.00013983427,55.4948257 C-0.00013983427,58.9424587 2.86739494,61.651156 6.51660328,61.651156 L94.4905379,61.651156 C98.1397462,61.651156 101.006815,58.9424587 101.006815,55.4948257 L101.006815,6.24198165 C100.876303,2.79434862 98.0092342,0.0852110092 94.3600259,0.0852110092 Z" id="Fill-1" fill="#000000" mask="url(#mask-2)"></path>
                </g>
                <path d="M183.990826,73.2105953 C183.990826,88.6391079 171.268337,101.146789 155.573815,101.146789 C139.878452,101.146789 127.155963,88.6391079 127.155963,73.2105953 C127.155963,57.7820827 139.878452,45.2752294 155.573815,45.2752294 C171.268337,45.2752294 183.990826,57.7820827 183.990826,73.2105953" id="Fill-8" fill="#0081FC"></path>
                <path d="M164.753101,61.987607 L153.968554,76.6725048 C153.898231,76.7674901 153.790234,76.82549 153.673866,76.8322146 C153.560847,76.835577 153.447828,76.7901857 153.367459,76.7027656 L148.120854,70.8565456 C146.942943,69.5452439 144.928689,69.4384905 143.621852,70.6211837 C142.314177,71.8047176 142.210367,73.82967 143.389116,75.1426528 L150.802341,83.4046941 C151.631985,84.3268082 152.826641,84.8269521 154.063992,84.7655899 C155.297158,84.7033871 156.441582,84.0897652 157.173277,83.0903179 L169.883337,65.786179 C170.9273,64.363921 170.624241,62.3591425 169.209407,61.3117823 C168.640125,60.8906527 167.977079,60.6880734 167.319893,60.6880734 C166.34123,60.6880734 165.376799,61.1377826 164.753101,61.987607" id="Fill-10" fill="url(#radialGradient-3)"></path>
                <path d="M110.076916,101.146789 L133.639131,101.146789 C135.402872,101.146789 136.788991,99.875064 136.788991,98.2568807 C136.788991,96.638284 135.402872,95.3669725 133.639131,95.3669725 L110.076916,95.3669725 C108.312724,95.3669725 106.926606,96.638284 106.926606,98.2568807 C106.926606,99.875064 108.312724,101.146789 110.076916,101.146789" id="Fill-4" fill="#000000"></path>
                <path d="M110.068101,113.669725 L126.904826,113.669725 C128.663632,113.669725 130.045872,112.398 130.045872,110.779817 C130.045872,109.16122 128.663632,107.889908 126.904826,107.889908 L110.068101,107.889908 C108.308845,107.889908 106.926606,109.16122 106.926606,110.779817 C106.926606,112.398 108.308845,113.669725 110.068101,113.669725" id="Fill-6" fill="#000000"></path>
                <path d="M83.6774235,99.6030686 C86.6666519,99.6030686 89.1362166,101.944551 89.1362166,104.77972 C89.1362166,107.614449 86.6666519,109.955931 83.6774235,109.955931 C80.6881951,109.955931 78.2186305,107.614449 78.2186305,104.77972 C78.2186305,101.944551 80.6881951,99.6030686 83.6774235,99.6030686 M67.4311927,126.964741 C67.4311927,128.690439 68.8609651,130.045872 70.6807177,130.045872 C72.5000055,130.045872 73.929778,128.690439 73.929778,126.964741 C73.929778,121.788089 78.3487788,117.597487 83.8075719,117.597487 C89.2659001,117.597487 93.6849009,121.788089 93.6849009,126.964741 C93.6849009,128.690439 95.1146734,130.045872 96.934426,130.045872 C98.7537138,130.045872 100.183486,128.690439 100.183486,126.964741 C100.183486,121.048442 96.6741293,115.995212 91.4756329,113.406886 C94.0748811,111.311805 95.7644854,108.230675 95.7644854,104.77972 C95.7644854,98.4935972 90.4358407,93.440367 83.8075719,93.440367 C77.179303,93.440367 71.8501935,98.4935972 71.8501935,104.77972 C71.8501935,108.230675 73.5397978,111.311805 76.1395108,113.406886 C70.9405496,115.995212 67.4311927,121.171863 67.4311927,126.964741" id="Fill-8" fill="#000000"></path>
            </g>
        </g>
    </g>
</svg>