<?xml version="1.0" encoding="UTF-8"?>
<svg width="210px" height="210px" viewBox="0 0 210 210" version="1.1" xmlns="http://www.w3.org/2000/svg" xmlns:xlink="http://www.w3.org/1999/xlink">
    <!-- Generator: Sketch 50 (54983) - http://www.bohemiancoding.com/sketch -->
    <title>icon2</title>
    <desc>Created with Sketch.</desc>
    <defs>
        <polygon id="path-1" points="0 209.548356 209.548356 209.548356 209.548356 -5.68434189e-14 0 -5.68434189e-14"></polygon>
    </defs>
    <g id="-" stroke="none" stroke-width="1" fill="none" fill-rule="evenodd">
        <g id="solución-" transform="translate(-188.000000, -1103.000000)">
            <g id="icon2" transform="translate(188.000000, 1103.000000)">
                <path d="M209.548356,104.774178 C209.548356,162.639247 162.639534,209.548068 104.774466,209.548068 C46.9088219,209.548068 0,162.639247 0,104.774178 C0,46.9091096 46.9088219,0.000287671233 104.774466,0.000287671233 C162.639534,0.000287671233 209.548356,46.9091096 209.548356,104.774178" id="Fill-1" fill="#F8F8F8" fill-rule="evenodd"></path>
                <mask id="mask-2" fill="white">
                    <use xlink:href="#path-1"></use>
                </mask>
                <g id="Clip-4"></g>
                <polygon id="Fill-3" fill="#000000" fill-rule="evenodd" mask="url(#mask-2)" points="116.168548 67.2224384 123.043315 67.2224384 123.043315 49.6054521 116.168548 49.6054521"></polygon>
                <path d="M130.13257,58.1992274 L109.077912,58.1992274 C107.179282,58.1992274 105.640816,56.6601863 105.640816,54.7615562 L105.640816,51.3244603 C105.640816,49.4258301 107.179282,47.886789 109.077912,47.886789 L130.13257,47.886789 C132.0312,47.886789 133.570241,49.4258301 133.570241,51.3244603 L133.570241,54.7615562 C133.570241,56.6601863 132.0312,58.1992274 130.13257,58.1992274" id="Fill-5" fill="#0081FC" fill-rule="evenodd" mask="url(#mask-2)"></path>
                <path d="M90.3867041,132.53474 L47.4178274,132.53474 C44.5716082,132.53474 42.2621836,130.225315 42.2621836,127.378521 C42.2621836,124.531726 44.5716082,122.222301 47.4178274,122.222301 L90.3867041,122.222301 C93.2329233,122.222301 95.5429233,124.531726 95.5429233,127.378521 C95.5429233,130.225315 93.2329233,132.53474 90.3867041,132.53474" id="Fill-6" fill="#000000" fill-rule="evenodd" mask="url(#mask-2)"></path>
                <path d="M90.3867041,111.909748 L25.9339644,111.909748 C23.0871699,111.909748 20.7777452,109.600323 20.7777452,106.753529 C20.7777452,103.906734 23.0871699,101.59731 25.9339644,101.59731 L90.3867041,101.59731 C93.2329233,101.59731 95.5429233,103.906734 95.5429233,106.753529 C95.5429233,109.600323 93.2329233,111.909748 90.3867041,111.909748" id="Fill-7" fill="#000000" fill-rule="evenodd" mask="url(#mask-2)"></path>
                <path d="M90.3867041,91.2848137 L77.925937,91.2848137 C75.0797178,91.2848137 72.7697178,88.975389 72.7697178,86.1285945 C72.7697178,83.2818 75.0797178,80.9723753 77.925937,80.9723753 L90.3867041,80.9723753 C93.2329233,80.9723753 95.5429233,83.2818 95.5429233,86.1285945 C95.5429233,88.975389 93.2329233,91.2848137 90.3867041,91.2848137" id="Fill-8" fill="#000000" fill-rule="evenodd" mask="url(#mask-2)"></path>
                <path d="M62.0274986,91.2848137 L47.4178274,91.2848137 C44.5716082,91.2848137 42.2621836,88.975389 42.2621836,86.1285945 C42.2621836,83.2818 44.5716082,80.9723753 47.4178274,80.9723753 L62.0274986,80.9723753 C64.8737178,80.9723753 67.1837178,83.2818 67.1837178,86.1285945 C67.1837178,88.975389 64.8737178,91.2848137 62.0274986,91.2848137" id="Fill-9" fill="#0081FC" fill-rule="evenodd" mask="url(#mask-2)"></path>
                <path d="M119.605586,63.7852274 C101.335011,63.7852274 85.7685452,75.2075014 79.5536959,91.2848712 L95.5430384,91.2848712 C98.3898329,91.2848712 100.699258,93.5948712 100.699258,96.4410904 C100.699258,99.2878849 98.3898329,101.59731 95.5430384,101.59731 L76.975011,101.59731 C76.7724904,103.291118 76.6367096,105.005638 76.6367096,106.754104 C76.6367096,108.501995 76.7724904,110.216515 76.975011,111.910323 L83.5120521,111.910323 C86.3588466,111.910323 88.6682712,114.219748 88.6682712,117.066542 C88.6682712,119.913337 86.3588466,122.222762 83.5120521,122.222762 L79.5536959,122.222762 C85.7685452,138.300132 101.335011,149.722405 119.605586,149.722405 C143.336737,149.722405 162.574463,130.485255 162.574463,106.754104 C162.574463,83.0229534 143.336737,63.7852274 119.605586,63.7852274" id="Fill-10" fill="#000000" fill-rule="evenodd" mask="url(#mask-2)"></path>
                <path d="M125.205049,106.753874 C125.205049,103.906504 122.8962,101.597655 120.048255,101.597655 C117.200885,101.597655 114.892036,103.906504 114.892036,106.753874 C114.892036,109.601819 117.200885,111.910093 120.048255,111.910093 C122.8962,111.910093 125.205049,109.601819 125.205049,106.753874" id="Fill-11" fill="#0081FC" fill-rule="evenodd" mask="url(#mask-2)"></path>
                <path d="M97.2616438,131.259321 C96.8220822,131.259321 96.3825205,131.091321 96.0465205,130.755896 C95.3756712,130.084471 95.3756712,128.997074 96.0465205,128.325649 L118.833534,105.538636 C119.504959,104.867211 120.592356,104.867211 121.263781,105.538636 C121.935205,106.21006 121.935205,107.298033 121.263781,107.969458 L98.4767671,130.755896 C98.1413425,131.091321 97.7017808,131.259321 97.2616438,131.259321" id="Fill-12" fill="#0081FC" fill-rule="evenodd" mask="url(#mask-2)"></path>
                <path d="M120.048312,140.699079 C114.210888,140.699079 108.430422,139.168093 103.32771,136.274696 C102.502093,135.808093 102.211545,134.757518 102.679874,133.931326 C103.148203,133.109162 104.198778,132.810559 105.023244,133.286942 C109.609874,135.885189 114.805216,137.261408 120.048312,137.261408 C136.870175,137.261408 150.555847,123.575162 150.555847,106.753874 C150.555847,89.9325863 136.870175,76.2463397 120.048312,76.2463397 C119.098997,76.2463397 118.329764,75.4776822 118.329764,74.5272164 C118.329764,73.577326 119.098997,72.8086685 120.048312,72.8086685 C138.766504,72.8086685 153.993518,88.0356822 153.993518,106.753874 C153.993518,125.472066 138.766504,140.699079 120.048312,140.699079" id="Fill-13" fill="#FFFFFF" fill-rule="evenodd" mask="url(#mask-2)"></path>
                <path d="M32.9918055,86.1342329 C32.9918055,88.8354658 30.8020521,91.0252192 28.1008192,91.0252192 C25.399011,91.0252192 23.2092575,88.8354658 23.2092575,86.1342329 C23.2092575,83.433 25.399011,81.2426712 28.1008192,81.2426712 C30.8020521,81.2426712 32.9918055,83.433 32.9918055,86.1342329" id="Fill-14" fill="#000000" fill-rule="evenodd" mask="url(#mask-2)"></path>
            </g>
        </g>
    </g>
</svg>