<svg id="Layer_1" enable-background="new 0 0 256 256" height="512" viewBox="0 0 256 256" width="512" xmlns="http://www.w3.org/2000/svg"><g id="Layer_61"><g><path d="m233.5 36.8h-211c-6.6 0-12 5.4-12 12v140 .9c.6 6.1 5.8 10.7 11.9 10.6h211.2c6.1.1 11.3-4.5 11.9-10.6 0-.3 0-.6 0-.9v-140c0-6.7-5.4-12-12-12z" fill="#3a70bf"/><path d="m233.6 190.2c.9.1 1.7-.5 1.9-1.4v-.1-140c0-1.1-.9-2-2-2h-211c-1.1 0-2 .9-2 2v140 .2c.2.8 1 1.4 1.9 1.3z" fill="#f5c84c"/><path d="m248.6 200.2h-241.2c-2.7 0-4.9 2.2-4.9 4.9 0 7.8 6.3 14.1 14.1 14.1h222.8c7.8 0 14.1-6.3 14.1-14.1 0-2.7-2.2-4.8-4.9-4.9z" fill="#edf4fc"/><path d="m233.5 46.8h-211c-1.1 0-2 .9-2 2v8.5h215v-8.5c0-1.1-.9-2-2-2z" fill="#edf4fc"/><path d="m36 46.8h-13.5c-1.1 0-2 .9-2 2v8.5h15.5z" fill="#9be5f9"/><path d="m84 200.2v1.7c0 3.7 3 6.8 6.8 6.8h75.4c3.7 0 6.8-3 6.8-6.8v-1.7z" fill="#c7d7e5"/><path d="m66.6 21.9c-4-.7-7.1-3.8-7.9-7.7 0-.1-.1-.2-.2-.1-.1 0-.1.1-.1.1-.8 4-3.9 7-7.9 7.7-.1 0-.2.1-.1.2 0 .1.1.1.1.1 4 .7 7.1 3.8 7.9 7.7 0 .1.1.2.2.1.1 0 .1-.1.1-.1.8-4 3.9-7 7.9-7.7.1 0 .2-.1.1-.2 0 0 0-.1-.1-.1z" fill="#3caadc"/><circle cx="105.7" cy="233.6" fill="#f5c84c" r="3"/><circle cx="88.7" cy="10.6" fill="#f5c84c" r="3"/><circle cx="202.7" cy="21.6" fill="#87d147" r="3"/><path d="m141.3 237.9h-2.1v-2.1c0-1.5-1.3-2.8-2.8-2.8s-2.8 1.3-2.8 2.8v2.1h-2.1c-1.5 0-2.8 1.3-2.8 2.8s1.3 2.8 2.8 2.8h2.1v2.1c0 1.5 1.3 2.8 2.8 2.8s2.8-1.3 2.8-2.8v-2.1h2.1c1.5 0 2.8-1.3 2.8-2.8s-1.3-2.8-2.8-2.8z" fill="#ef4460"/><path d="m69.7 105.5-6.7-6.9c-.8-.8-1.9-1.3-3-1.3h-21.3c-2.3 0-4.2 1.9-4.2 4.2v38.2c0 2.3 1.9 4.2 4.2 4.2h27.9c2.3 0 4.2-1.9 4.2-4.2v-31.3c0-1.1-.4-2.1-1.1-2.9z" fill="#edf4fc"/><circle cx="52.7" cy="117.9" fill="#c7d7e5" r="9.2"/><path d="m61.9 144v-6.6c0-.9-.7-1.5-1.5-1.5h-15.3c-.9 0-1.5.7-1.5 1.5v6.6z" fill="#c7d7e5"/><path d="m219.9 105.5h-85.9v31h85.9c.9 0 1.6-.7 1.6-1.6v-27.9c0-.8-.7-1.5-1.6-1.5z" fill="#3caadc"/><path d="m85.5 105.5c-.9 0-1.6.7-1.6 1.6v27.9c0 .9.7 1.6 1.6 1.6h23.5v-31h-23.5z" fill="#87d147"/><g fill="#ef4460"><path d="m109 105.5h25v31h-25z"/><path d="m134 131.6v-12l-17.5-14.1h-7.5v5.9z"/><path d="m109 123.4v13.1h16.2z"/></g><path d="m248.6 197.8h-4c2.2-2.5 3.4-5.7 3.4-9v-140c0-8-6.5-14.5-14.5-14.5h-211c-8 0-14.5 6.5-14.5 14.5v140c0 3.3 1.2 6.5 3.4 9h-4c-4.1 0-7.4 3.3-7.4 7.4 0 9.2 7.4 16.6 16.6 16.6h222.8c9.2 0 16.6-7.4 16.6-16.6 0-4.1-3.3-7.4-7.4-7.4zm-235.6-149c0-5.2 4.3-9.5 9.5-9.5h211c5.2 0 9.5 4.3 9.5 9.5v140c-.1 5.1-4.3 9.1-9.4 9h-211.2c-5.1.1-9.3-3.9-9.4-9zm157.4 154c-.4 2-2.2 3.5-4.2 3.5h-75.4c-2.1 0-3.8-1.5-4.2-3.5zm69 14h-222.8c-6.4 0-11.6-5.2-11.6-11.6 0-1.3 1.1-2.4 2.4-2.4h74.1c.4 4.8 4.4 8.5 9.2 8.5h75.4c4.8 0 8.8-3.7 9.2-8.5h73.1c1.3 0 2.4 1.1 2.4 2.4.2 6.4-5 11.5-11.4 11.6z"/><path d="m22.4 192.8h211.2c2.3.1 4.3-1.7 4.4-4v-140c0-2.5-2-4.5-4.5-4.5h-211c-2.5 0-4.5 2-4.5 4.5v140c.1 2.3 2.1 4 4.4 4zm16.1-143.6h194.5v5.5h-194.5zm-15.5 0h10.5v5.5h-10.5zm0 10.6h210v128h-210z"/><path d="m59.7 151h-14c-1.4 0-2.5 1.1-2.5 2.5s1.1 2.5 2.5 2.5h14c1.4 0 2.5-1.1 2.5-2.5s-1.1-2.5-2.5-2.5z"/><path d="m54.1 160h-2.8c-1.4 0-2.5 1.1-2.5 2.5s1.1 2.5 2.5 2.5h2.8c1.4 0 2.5-1.1 2.5-2.5s-1.1-2.5-2.5-2.5z"/><path d="m64.8 96.9c-1.3-1.3-3-2-4.8-2h-21.3c-3.7 0-6.7 3-6.7 6.7v38.2c0 3.7 3 6.7 6.7 6.7h27.9c3.7 0 6.7-3 6.7-6.7v-31.3c0-1.7-.7-3.4-1.9-4.7zm-5.4 44.6h-13.4v-3.1h13.4zm8.9-1.7c0 .9-.8 1.7-1.7 1.7h-2.3v-4.1c0-2.2-1.8-4-4-4h-15.2c-2.2 0-4 1.8-4 4v4.1h-2.3c-.9 0-1.7-.8-1.7-1.7v-38.2c0-.9.8-1.7 1.7-1.7h21.2c.5 0 .9.2 1.2.5l6.7 6.9c.3.3.5.7.5 1.2z"/><path d="m52.7 106.2c-6.5 0-11.7 5.2-11.7 11.7s5.2 11.7 11.7 11.7 11.7-5.2 11.7-11.7c0-6.4-5.3-11.7-11.7-11.7zm0 18.4c-3.7 0-6.7-3-6.7-6.7s3-6.7 6.7-6.7 6.7 3 6.7 6.7c0 3.7-3 6.7-6.7 6.7z"/><path d="m219.9 103h-134.4c-2.2 0-4.1 1.8-4.1 4.1v27.9c0 2.2 1.8 4.1 4.1 4.1h134.4c2.2 0 4.1-1.8 4.1-4.1v-27.9c0-2.3-1.8-4.1-4.1-4.1zm-113.4 31h-20v-26h20zm5 0v-5.4l6.6 5.4zm20 0h-5.4l-14.6-11.8v-5.6l20 16.2zm0-7.6-20-16.2v-2.2h4.2l15.8 12.8zm0-12-7.9-6.4h7.9zm87.5 19.6h-82.5v-26h82.5z"/><path d="m84.5 97.5h25c1.4 0 2.5-1.1 2.5-2.5s-1.1-2.5-2.5-2.5h-25c-1.4 0-2.5 1.1-2.5 2.5s1.1 2.5 2.5 2.5z"/><path d="m221.5 92.5h-87.5c-1.4 0-2.5 1.1-2.5 2.5s1.1 2.5 2.5 2.5h87.5c1.4 0 2.5-1.1 2.5-2.5s-1.1-2.5-2.5-2.5z"/><path d="m134.5 144.5h-25c-1.4 0-2.5 1.1-2.5 2.5s1.1 2.5 2.5 2.5h25c1.4 0 2.5-1.1 2.5-2.5s-1.1-2.5-2.5-2.5z"/></g></g></svg>