<?xml version="1.0"?>
<svg xmlns="http://www.w3.org/2000/svg" id="Capa_1" enable-background="new 0 0 512 512" height="512px" viewBox="0 0 512 512" width="512px" class=""><g><g><g><path d="m399.159 156.546h-167.998c-6.158 0-10.163-6.48-7.409-11.988l25.287-50.574c1.166-2.332 1.166-5.077 0-7.409l-25.287-50.575c-2.754-5.508 1.251-11.988 7.409-11.988h167.998z" fill="#edf6ff" data-original="#EDF6FF" class="" style="fill:#CC0022" data-old_color="#edf6ff"/><path d="m371.159 24.015h28v132.532h-28z" fill="#d8e2f3" data-original="#D8E2F3" class=""/><path d="m427.292 227.916h-33.133v-212.366c0-4.418 3.582-8 8-8h17.133c4.418 0 8 3.582 8 8z" fill="#817d84" data-original="#817D84" class=""/><path d="m419.292 7.55h-17.133c-1.037 0-2.024.204-2.933.562 2.965 1.171 5.067 4.056 5.067 7.438v212.367h23v-212.367c-.001-4.418-3.582-8-8.001-8z" fill="#756e79" data-original="#756E79" class=""/><path d="m341.997 118.294h-39.461c-6.158 0-10.163-6.48-7.409-11.988l19.731-39.461c3.053-6.105 11.765-6.105 14.818 0l19.731 39.461c2.753 5.507-1.252 11.988-7.41 11.988z" fill="#c1e3a0" data-original="#C1E3A0" class="active-path" style="fill:#FFFFFF" data-old_color="#c1e3a0"/><g><path d="m150.916 388.482h32v33.133h-32z" fill="#edf6ff" data-original="#EDF6FF" class="" style="fill:#CC0022" data-old_color="#edf6ff"/><path d="m304.25 305.648h32v33.133h-32z" fill="#edf6ff" data-original="#EDF6FF" class="" style="fill:#CC0022" data-old_color="#edf6ff"/><path d="m333.311 250.948v74.833c0 4.418-3.582 8-8 8h-146.622v74.833c0 4.418-3.582 8-8 8h-146.622v79.55c0 4.575 3.708 8.283 8.283 8.283h447.3c4.575 0 8.283-3.709 8.283-8.283v-245.216z" fill="#817d84" data-original="#817D84" class=""/><path d="m464.933 250.948v245.217c0 4.575-3.708 8.283-8.283 8.283h23c4.575 0 8.283-3.708 8.283-8.283v-245.217z" fill="#756e79" data-original="#756E79" class=""/><g fill="#edf6ff"><path d="m496.5 255.948h-171.756c-4.418 0-8-3.582-8-8v-17.133c0-4.418 3.582-8 8-8h171.756c4.418 0 8 3.582 8 8v17.133c0 4.418-3.582 8-8 8z" data-original="#EDF6FF" class="" style="fill:#CC0022" data-old_color="#EDF6FF"/><path d="m170.689 421.615h-155.189c-4.418 0-8-3.582-8-8v-17.133c0-4.418 3.582-8 8-8h163.189v25.133c0 4.418-3.582 8-8 8z" data-original="#EDF6FF" class="" style="fill:#CC0022" data-old_color="#EDF6FF"/><path d="m325.311 338.781h-155.189c-4.418 0-8-3.582-8-8v-17.133c0-4.418 3.582-8 8-8h163.189v25.133c0 4.419-3.582 8-8 8z" data-original="#EDF6FF" class="" style="fill:#CC0022" data-old_color="#EDF6FF"/></g><path d="m496.5 222.815h-23c4.418 0 8 3.582 8 8v17.133c0 4.418-3.582 8-8 8h23c4.418 0 8-3.582 8-8v-17.133c0-4.419-3.582-8-8-8z" fill="#d8e2f3" data-original="#D8E2F3" class=""/><path d="m310.311 305.648v25.133c0 4.418-3.582 8-8 8h23c4.418 0 8-3.582 8-8v-25.133z" fill="#d8e2f3" data-original="#D8E2F3" class=""/><path d="m155.689 388.482v25.133c0 4.418-3.582 8-8 8h23c4.418 0 8-3.582 8-8v-25.133z" fill="#d8e2f3" data-original="#D8E2F3" class=""/></g></g><g><path d="m496.5 215.315h-61.707v-199.763c0-8.547-6.953-15.5-15.5-15.5h-17.134c-8.547 0-15.5 6.953-15.5 15.5v.963h-155.498c-5.51 0-10.529 2.798-13.426 7.485-2.897 4.688-3.155 10.429-.691 15.357l25.287 50.574c.109.219.109.481 0 .7l-25.287 50.574c-2.464 4.929-2.206 10.67.691 15.357 2.896 4.688 7.916 7.485 13.426 7.485h155.498v51.267h-61.914c-8.547 0-15.5 6.953-15.5 15.5v17.133c0 8.547 6.953 15.5 15.5 15.5h1.066v34.7h-92.959c-4.142 0-7.5 3.357-7.5 7.5s3.358 7.5 7.5 7.5h92.959v18.134h-155.689c-.276 0-.5-.225-.5-.5v-17.134c0-.275.224-.5.5-.5h32.729c4.142 0 7.5-3.357 7.5-7.5s-3.358-7.5-7.5-7.5h-32.729c-8.547 0-15.5 6.953-15.5 15.5v17.134c0 8.547 6.953 15.5 15.5 15.5h1.067v34.699h-155.689c-8.547 0-15.5 6.953-15.5 15.5v17.134c0 8.547 6.953 15.5 15.5 15.5h1.067v67.05c0 8.703 7.081 15.783 15.783 15.783h25.625c4.142 0 7.5-3.357 7.5-7.5s-3.358-7.5-7.5-7.5h-25.625c-.432 0-.783-.352-.783-.783v-17.35h448.866v17.35c0 .432-.352.783-.783.783h-391.651c-4.142 0-7.5 3.357-7.5 7.5s3.358 7.5 7.5 7.5h391.65c8.703 0 15.783-7.08 15.783-15.783v-232.716h1.067c8.547 0 15.5-6.953 15.5-15.5v-17.133c.001-8.546-6.952-15.5-15.499-15.5zm-265.339-66.266c-.12 0-.436 0-.666-.371-.23-.372-.088-.656-.035-.763l25.287-50.574c2.21-4.42 2.21-9.698 0-14.118l-25.287-50.575c-.053-.106-.195-.391.035-.763.23-.371.546-.371.666-.371h155.498v117.534h-155.498zm170.498-133.497c0-.275.224-.5.5-.5h17.134c.276 0 .5.225.5.5v199.764h-18.134zm-386.659 398.063v-17.134c0-.275.224-.5.5-.5h155.689v18.134h-155.689c-.276 0-.5-.224-.5-.5zm465.433 50.2h-448.866v-34.7h147.122c4.142 0 7.5-3.357 7.5-7.5v-75.333h147.122c4.142 0 7.5-3.357 7.5-7.5v-75.334h139.622zm16.567-215.867c0 .275-.224.5-.5.5h-171.755c-.276 0-.5-.225-.5-.5v-17.133c0-.275.224-.5.5-.5h171.755c.276 0 .5.225.5.5z" data-original="#000000" class=""/><path d="m336.384 63.493c-2.69-5.382-8.1-8.726-14.117-8.726s-11.427 3.344-14.117 8.725l-19.73 39.461c-2.464 4.929-2.206 10.67.691 15.357 2.896 4.688 7.915 7.485 13.426 7.485h39.461c5.51 0 10.529-2.799 13.426-7.485 2.897-4.688 3.155-10.429.691-15.357zm6.28 46.931c-.229.372-.547.372-.667.372h-39.461c-.12 0-.436 0-.666-.371-.23-.372-.088-.656-.035-.763l19.731-39.462c.07-.141.216-.433.7-.433s.63.292.701.434l19.731 39.461c.053.107.196.391-.034.762z" data-original="#000000" class=""/><path d="m140.033 114.349h33.133c4.142 0 7.5-3.357 7.5-7.5s-3.358-7.5-7.5-7.5h-33.133c-4.142 0-7.5 3.357-7.5 7.5 0 4.142 3.358 7.5 7.5 7.5z" data-original="#000000" class=""/><path d="m189.392 174.903-28.694 16.566c-3.587 2.071-4.816 6.658-2.745 10.245 1.389 2.406 3.91 3.751 6.502 3.751 1.272 0 2.562-.324 3.743-1.006l28.694-16.566c3.587-2.071 4.816-6.658 2.745-10.245s-6.658-4.815-10.245-2.745z" data-original="#000000" class=""/><path d="m455.141 174.903c-3.588-2.071-8.175-.843-10.245 2.745-2.071 3.587-.842 8.174 2.745 10.245l28.694 16.566c1.181.682 2.471 1.006 3.743 1.006 2.592 0 5.113-1.345 6.502-3.751 2.071-3.587.842-8.174-2.745-10.245z" data-original="#000000" class=""/><path d="m463.867 106.849c0 4.143 3.358 7.5 7.5 7.5h33.133c4.142 0 7.5-3.357 7.5-7.5s-3.358-7.5-7.5-7.5h-33.133c-4.142 0-7.5 3.357-7.5 7.5z" data-original="#000000" class=""/><path d="m451.398 39.8c1.273 0 2.562-.324 3.743-1.006l28.694-16.567c3.587-2.071 4.816-6.658 2.745-10.245-2.071-3.588-6.66-4.814-10.245-2.745l-28.694 16.567c-3.587 2.071-4.816 6.658-2.745 10.245 1.389 2.406 3.91 3.751 6.502 3.751z" data-original="#000000" class=""/><path d="m160.698 22.227 28.694 16.567c1.181.682 2.471 1.006 3.743 1.006 2.592 0 5.113-1.345 6.502-3.751 2.071-3.587.842-8.174-2.745-10.245l-28.694-16.568c-3.588-2.07-8.174-.844-10.245 2.745-2.071 3.587-.842 8.174 2.745 10.246z" data-original="#000000" class=""/></g></g></g> </svg>
