<?xml version="1.0" encoding="utf-8"?>
<!-- Generator: Adobe Illustrator 21.1.0, SVG Export Plug-In . SVG Version: 6.00 Build 0)  -->
<svg version="1.1" id="Capa_1" xmlns="http://www.w3.org/2000/svg" xmlns:xlink="http://www.w3.org/1999/xlink" x="0px" y="0px"
	 viewBox="0 0 1253.1 467.6" style="enable-background:new 0 0 1253.1 467.6;" xml:space="preserve">
<style type="text/css">
	.st0{fill:#0A5CA0;}
	.st1{fill:#0080F8;}
	.st2{fill:#FFFFFF;}
	.st3{fill:#E9F5FF;}
	.st4{fill:#C7E1F2;}
</style>
<g>
	<g>
		<path class="st0" d="M59.6,473.6c69.7-58.5,116.3-125.9,179-122c26.9,1.6,50.5,16.5,73.4,32.1l0,0c0.8,0.5,1.6,1.1,2.4,1.6
			c0,0,0.1,0,0.1,0.1c0.8,0.6,1.6,1.1,2.4,1.7c0.3,0.2,0.6,0.4,0.9,0.6c1.1,0.8,2.3,1.6,3.4,2.4c0.4,0.3,0.8,0.5,1.1,0.8
			c1.4,1,2.8,1.9,4.2,2.9c0.5,0.3,1,0.7,1.5,1c0.8,0.5,1.5,1,2.3,1.5c0.4,0.2,0.7,0.5,1.1,0.7c0.4,0.3,0.8,0.5,1.2,0.8
			c0.4,0.3,0.8,0.5,1.2,0.8c1.1,0.7,2.2,1.4,3.3,2.1c1.3,0.8,2.6,1.7,3.9,2.5c1.7,1.1,3.4,2.1,5.1,3.1c1.5,0.9,3,1.7,4.5,2.6
			c8.3,4.6,16.7,8.4,25.3,10.7c0.3,0.1,0.6,0.2,0.9,0.2c2.7,0.7,5.5,1.3,8.2,1.6c0.4,0.1,0.8,0.1,1.3,0.2c0.4,0.1,0.8,0.1,1.3,0.1
			c0.8,0.1,1.7,0.2,2.5,0.2c54.5,3.3,107.9-42.7,158.7-39.6c48.4,3,75.4,50.5,91.6,91.5"/>
		<path class="st1" d="M207.5,465.9c1-0.9,2-1.7,3.1-2.6c6.2-5.2,12.6-10.6,19.1-16c2.2-1.8,4.4-3.6,6.6-5.4
			c5-4.1,10.1-8.2,15.3-12.3c1.3-1,2.6-2,3.8-3.1c4.1-3.2,8.2-6.5,12.4-9.8c2.3-1.8,4.5-3.5,6.8-5.3c2.4-1.9,4.9-3.7,7.3-5.6
			c1.1-0.8,2.2-1.6,3.2-2.4c3.9-2.9,7.7-5.8,11.7-8.7c1.3-0.9,2.5-1.9,3.8-2.8c3.8-2.8,7.6-5.5,11.5-8.3l0,0l0,0
			c99.4-71,219.7-135,331.3-128.2c91.9,5.6,62.1,151.9,128.8,156c17.8,1.1,35.9-14.9,65-21.6l0,0c0.6-0.1,1.2-0.3,1.8-0.4
			c1.2-0.3,2.4-0.5,3.7-0.7c1.2-0.2,2.5-0.4,3.8-0.6c0.6-0.1,1.3-0.2,1.9-0.3c0.7-0.1,1.3-0.2,2-0.2c0.7-0.1,1.3-0.1,2-0.2
			c0.6-0.1,1.2-0.1,1.8-0.1c0.4,0,0.8-0.1,1.3-0.1c0.3,0,0.7,0,1-0.1c1.4-0.1,2.7-0.1,4.1-0.1c0,0,0.1,0,0.2,0c1.4,0,2.8,0,4.3,0
			c0.2,0,0.3,0,0.5,0c1.3,0,2.7,0.1,4.1,0.2c0.5,0,0.9,0.1,1.4,0.1c0.3,0,0.5,0,0.8,0.1c0.9,0.1,1.7,0.2,2.6,0.3
			c0.3,0,0.6,0.1,1,0.1c0.6,0.1,1.1,0.2,1.7,0.2c0.6,0.1,1.1,0.2,1.7,0.3c0.4,0.1,0.9,0.2,1.3,0.2c0.4,0.1,0.9,0.2,1.3,0.3
			c1.5,0.3,2.9,0.6,4.4,1c0.3,0.1,0.7,0.2,1,0.3c0,0,0,0,0.1,0c0.9,0.2,1.7,0.5,2.6,0.7c3.5,1,7.1,2.3,10.7,3.8
			c0.7,0.3,1.3,0.6,2,0.9c0.2,0.1,0.3,0.2,0.5,0.2c0.5,0.2,1,0.5,1.5,0.7c0.7,0.3,1.3,0.6,2,1c0.6,0.3,1.2,0.6,1.8,0.9
			c0.1,0,0.1,0.1,0.2,0.1c0.7,0.3,1.4,0.7,2,1.1c0.7,0.4,1.4,0.7,2,1.1c0.7,0.4,1.4,0.8,2,1.2c1.4,0.8,2.7,1.7,4.1,2.6
			c0.6,0.4,1.2,0.8,1.7,1.1c0.1,0,0.2,0.1,0.2,0.2c0.7,0.5,1.3,0.9,2,1.4s1.3,1,2,1.5c0.6,0.4,1.2,0.9,1.8,1.3
			c0.8,0.6,1.5,1.2,2.3,1.8c0.7,0.5,1.3,1.1,2,1.6c0.6,0.5,1.1,1,1.7,1.4c0.1,0.1,0.2,0.2,0.3,0.2c0.6,0.5,1.1,1,1.7,1.5
			c1.7,1.5,3.4,3.2,5.1,4.8c0.3,0.3,0.6,0.6,1,1c7.3,7.5,14.2,16.3,20.5,26.6c0.3,0.4,0.5,10.8,0.8,11.2l10.1,7.6
			c-64,1-130.2,3.5-191.8,6l-24-0.2c-45.5,0.6-85-0.7-128.5,0"/>
		<g>
			<path class="st0" d="M187.5,473.9c1-0.9,12-9.7,13.1-10.6c6.2-5.2,12.6-10.6,19.1-16c2.2-1.8,4.4-3.6,6.6-5.4
				c5-4.1,10.1-8.2,15.3-12.3c1.3-1,2.6-2,3.8-3.1c4.1-3.2,8.2-6.5,12.4-9.8c2.3-1.8,4.5-3.5,6.8-5.3c2.4-1.9,4.9-3.7,7.3-5.6
				c1.1-0.8,12.2-11.6,13.2-12.4c3.9-2.9,7.7-5.8,11.7-8.7c1.3-0.9,2.5-1.9,3.8-2.8c3.8-2.8,7.6,4.5,11.5,1.7l0,0
				c0.8,0.5,1.6,1.1,2.3,1.6c0,0,0.1,0,0.1,0.1c0.8,0.6,1.6,1.1,2.4,1.7c0.3,0.2,0.6,0.4,0.9,0.6c1.1,0.8,2.3,1.6,3.4,2.4
				c0.4,0.3,0.8,0.5,1.1,0.8c1.4,1,2.8,1.9,4.2,2.9c0.5,0.3,1,0.7,1.5,1c0.8,0.5,1.5,1,2.3,1.5c0.4,0.2,0.7,0.5,1.1,0.7
				c0.4,0.3,0.8,0.5,1.2,0.8c0.4,0.3,0.8,0.5,1.2,0.8c1.1,0.7,2.2,1.4,3.3,2.1c1.3,0.8,2.6,1.7,3.9,2.5c1.7,1.1,3.4,2.1,5.1,3.1
				c1.5,0.9,3,1.7,4.5,2.6c8.3,4.6,16.7,8.4,25.3,10.7c0.3,0.1,0.6,0.2,0.9,0.2c2.7,0.7,5.5,1.3,8.2,1.6c0.4,0.1,0.8,0.1,1.3,0.2
				c0.4,0.1,0.8,0.1,1.3,0.1c0.8,0.1,1.7,0.2,2.5,0.2c54.5,3.3,107.9-42.7,158.7-39.6c48.4,3,75.4,50.5,91.6,91.5"/>
		</g>
		<path class="st1" d="M760,473.6c1.3-1.3,6.8-22.4,8.2-23.7c0.7-0.7,1.4,8.6,2.1,7.9l0,0c76.2-75.7,134.5-146.3,200.6-148.2
			c72.7-2.1,129,56,170.9,114.9l0,0c0.8,1.1,1.6,2.2,2.4,3.4c0.6,0.9,1.2,1.7,1.8,2.6c8.9,13,17.2,26.3,24.8,39.4
			c0.6,1,1.1,3,1.7,3.9"/>
		<g>
			<path class="st0" d="M976.7,473.7c-43.8,0.7-100,0.4-150.9,0.3c-23.5,0-48.2,0.1-65.2,0c0.5-0.6,14.4-17.8,14.9-18.4
				c1.4-1.6,2.8-3.3,4.3-5c2-2.2,4-4.5,6.1-6.9c1-1.2,2.1-2.3,3.2-3.5c0.2-0.2,0.4-0.4,0.6-0.6c2-2.2,4-4.4,6.1-6.6
				c1.1-1.2,2.3-2.5,3.4-3.7c1.5-1.6,3-3.2,4.5-4.8c0.3-0.3,0.5-0.5,0.8-0.8c1.8-1.9,3.6-3.8,5.5-5.8c1.3-1.3,2.5-2.6,3.8-4
				c1.2-1.2,2.3-2.4,3.5-3.6c4.5-4.7,9.2-9.5,14-14.3c1.9-1.9,3.8-3.8,5.7-5.7c0.3-0.2,0.6-0.3,0.9-0.5c0.4-0.1,0.8-0.2,1.3-0.3
				c1.2-0.3,2.4-0.5,3.7-0.7c1.2-0.2,2.5-0.4,3.8-0.6c0.6-0.1,1.3-0.2,1.9-0.3c0.7-0.1,1.3-0.2,2-0.2c0.7-0.1,1.3-0.1,2-0.2
				c0.6-0.1,1.2-0.1,1.8-0.1c0.4,0,0.8-0.1,1.3-0.1c0.3,0,0.7,0,1-0.1c1.4-0.1,2.7-0.1,4.1-0.1c0,0,0.1,0,0.2,0c1.4,0,2.8,0,4.3,0
				c0.2,0,0.3,0,0.5,0c1.3,0,2.7,0.1,4.1,0.2c0.5,0,0.9,0.1,1.4,0.1c0.3,0,0.5,0,0.8,0.1c0.9,0.1,1.7,0.2,2.6,0.3
				c0.3,0,0.6,0.1,1,0.1c0.6,0.1,1.1,0.2,1.7,0.2c0.6,0.1,1.1,0.2,1.7,0.3c0.4,0.1,0.9,0.2,1.3,0.2c0.4,0.1,0.9,0.2,1.3,0.3
				c1.5,0.3,2.9,0.6,4.4,1c0.3,0.1,0.7,0.2,1,0.3c0,0,0,0,0.1,0c0.9,0.2,1.7,0.5,2.6,0.7c3.5,1,7.1,2.3,10.7,3.8
				c0.7,0.3,1.3,0.6,2,0.9c0.2,0.1,0.3,0.2,0.5,0.2c0.5,0.2,1,0.5,1.5,0.7c0.7,0.3,1.3,0.6,2,1c0.6,0.3,1.2,0.6,1.8,0.9
				c0.1,0,0.1,0.1,0.2,0.1c0.7,0.3,1.4,0.7,2,1.1c0.7,0.4,1.4,0.7,2,1.1c0.7,0.4,1.4,0.8,2,1.2c1.4,0.8,2.7,1.7,4.1,2.6
				c0.6,0.4,1.2,0.8,1.7,1.1c0.1,0,0.2,0.1,0.2,0.2c0.7,0.5,1.3,0.9,2,1.4s1.3,1,2,1.5c0.6,0.4,1.2,0.9,1.8,1.3
				c0.8,0.6,1.5,1.2,2.3,1.8c0.7,0.5,1.3,1.1,2,1.6c0.6,0.5,1.1,1,1.7,1.4c0.1,0.1,0.2,0.2,0.3,0.2c0.6,0.5,1.1,1,1.7,1.5
				c1.7,1.5,3.4,3.2,5.1,4.8c0.3,0.3,0.6,0.6,1,1c7.3,7.5,14.2,16.3,20.5,26.6c0.3,0.4,0.5,0.8,0.8,1.2
				C961.8,450.9,976.3,473,976.7,473.7z"/>
		</g>
	</g>
</g>
<rect x="59.6" y="469.5" class="st2" width="1375.6" height="10.7"/>
<g>
	<path class="st3" d="M483.8,182.3c-2-0.7-3.7,0.2-5.5,2c-1.8-1.5-4.4-7.5-12.5-7.5c-2.2,0-4.2,0.7-6.2,1.8
		c-2.6-5.7-8.3-9.9-14.1-9.9c-3.1,0-6.2,1.1-8.8,4c-1.1-11.2-11.2-20.5-22-20.5c-11.4,0-22,11.2-24.4,23.3c-2-3.7-5.7-6.6-11.2-6.6
		c-9.5,0-17.8,7.3-19.6,16.9c-1.1-2.2-3.1-3.7-5.3-3.7c-3.3,0-7,2.9-8.1,7H488C488.9,186.5,486.4,183.2,483.8,182.3z"/>
	<path class="st3" d="M485.6,180.5c-3.3,0-8.1,0.9-8.1,0.9c-1.3,0-3.1-3.3-5.1-3.3c-2.9,0-4.8,3.7-7,3.7c-4.8,0-7-13.6-14.9-13.6
		c-9.9,0-9.2,13.6-15.4,13.6c-4.2,0-7.3-7.9-12.7-7.9c-6.2,0-10.3,11-13.4,11c-2.4,0-4.8-4-8.3-4c-3.3,0-5.9,4.8-7.5,7.5h103.5
		C495.5,182.3,490.8,180.5,485.6,180.5z"/>
</g>
<path class="st4" d="M979.1,252.8c-1.1,0-2.2,0.4-2.9,1c-0.8-2.5-2.9-4-5.2-4c-1.4,0-2.8,0.6-4,2c-1.1-4.3-2.9-7.7-7.7-7.7
	c-7,0-8.9,6.4-9.3,6.3c0,0-0.2-22.6-18.5-22.6c-15.1,0-15.4,14.3-16.6,24c0-6.6-4.3-13.2-11.1-13.2s-10.9,7.5-10.9,13.9
	c-0.5-2-2.4-5.8-6.8-5.9c-3.8,0-6.1,4.4-6.4,7.9c-0.7-1.8-1.4-2.7-2.9-2.7c-1.7,0-3.6,1.4-3.6,3.4h108.6
	C981.8,253.5,980.5,252.8,979.1,252.8z"/>
</svg>
