<?xml version="1.0" encoding="utf-8"?>
<!-- Generator: Adobe Illustrator 21.1.0, SVG Export Plug-In . SVG Version: 6.00 Build 0)  -->
<svg version="1.1" id="Capa_1" xmlns="http://www.w3.org/2000/svg" xmlns:xlink="http://www.w3.org/1999/xlink" x="0px" y="0px"
	 viewBox="0 0 1932.7 595.3" style="enable-background:new 0 0 1932.7 595.3;" xml:space="preserve">
<style type="text/css">
	.st0{fill:#DC0028;}
	.st1{fill:#FFFFFF;}
</style>
<path class="st0" d="M470.6,83.5c5.6,2.8,12,4.5,16.7,8.5c15.2,12.9,14.7,34.6-0.1,49.4c-10.4,10.3-20.7,20.7-30.5,31.6
	c-20.5,22.7-38.6,47.1-51.3,75.2c-14.3,31.5-18.6,64.7-16.2,98.9c2.3,32.6,9.9,64,18.4,95.4c3.8,14.1-1.9,28.4-14,36.1
	c-12.2,7.7-27.8,6.6-39-2.9c-6-5-9-11.7-10.9-19.2c-6.6-25.8-14.3-51.2-24.8-75.8c-18.6-43.7-46.5-79.3-88.4-103
	c-23.9-13.5-49.2-23.4-75.5-31.2c-10.7-3.2-21.5-6-32.2-9c-17.6-4.9-27.9-22.2-23.4-39.4c4.7-18,21.8-27.9,40.1-23.8
	c25.1,5.7,50.2,12,75.5,16.2c63.4,10.6,120.3-5,170.1-45.3c17.7-14.3,34.3-30,50.9-45.6c7.4-6.9,14.4-13.7,24.6-16.1
	C464,83.5,467.3,83.5,470.6,83.5z"/>
<path class="st1" d="M1290.9,115.5c0-7.7,0-14.6,0-21.8c25.7,0,51.1,0,76.8,0c0,7.2,0,14.1,0,21.8c-2.9,0-5.8,0-8.7,0
	c-6.5,0-9.6,3.1-9.6,9.7c0,36.8,0.3,73.7-0.2,110.5c-0.1,9.5-1.5,19.4-4.3,28.5c-6.4,21.4-21.7,34.2-42.9,40c-17.8,4.9-36,5-53.9,1
	c-31.1-6.9-50.5-29.7-51.3-61.7c-0.8-33-0.3-66-0.3-99c0-6.3,0-12.7,0-19c0-6.6-3.5-10.1-9.9-10.1c-2.8,0-5.6,0-8.6,0
	c0-7.4,0-14.3,0-21.7c28.5,0,57,0,85.8,0c0,7.1,0,14,0,21.7c-2.6,0-5.2,0-7.8,0c-7.6,0-10.5,2.9-10.5,10.3
	c0.1,38.3,0.1,76.6,0.2,115c0,3.6,0.5,7.3,1.3,10.9c4.7,22.6,31.1,32.9,50.2,19.7c7.8-5.4,10.1-13.7,11.3-22.5
	c0.5-3.8,0.7-7.6,0.7-11.5c0-37,0-74,0-111c0-8.1-2.8-10.9-11.1-10.9C1295.9,115.5,1293.6,115.5,1290.9,115.5z"/>
<path class="st1" d="M658.1,229.3c0,4.9,0,9.3,0,13.8c0,10.2,0,20.3,0,30.5c0,5.6,3.4,8.9,8.9,8.9c3.8,0,7.6,0,11.7,0
	c0,7.4,0,14.3,0,21.7c-29.2,0-58.4,0-88.1,0c0-6.9,0-14,0-21.7c2.7,0,5.5,0,8.3,0c6.7,0,9.9-3.2,9.9-10c0-48.8,0-97.7,0-146.5
	c0-7.8-2.9-10.6-10.8-10.6c-2.3,0-4.6,0-7.4,0c0-7.3,0-14.4,0-21.6c0.8-0.1,1.6-0.4,2.4-0.4c32.7,0,65.3-0.2,98,0.3
	c9.2,0.2,18.6,2,27.5,4.5c30,8.5,45.5,29.4,46,60.6c0.5,29.9-12.5,52-38,62.1c-9.6,3.8-20.1,6-30.4,7.3c-10.5,1.4-21.3,0.8-31.9,1
	C662.3,229.3,660.5,229.3,658.1,229.3z M658.4,197.7c7.4,0,14.5,0.1,21.6,0c3.5-0.1,7-0.2,10.4-0.9c12.8-2.3,19.3-8.5,21.8-21.3
	c2-10,1.9-20.2-0.5-30.2c-2.5-10.9-9.3-17.9-20.2-19.3c-10.8-1.4-21.8-1.3-33.1-1.8C658.4,149.1,658.4,173.2,658.4,197.7z"/>
<path class="st1" d="M863.8,166.6c0-7.5,0-14.4,0-21.8c1.5-0.1,2.9-0.3,4.3-0.3c15.2,0,30.3,0,45.5,0c10.9,0,14.8,3.9,14.8,14.7
	c0,30.8,0,61.6,0,92.5c0,2.2,0,4.3,0.2,6.5c0.8,9,6,14.3,15,15.2c9.2,0.9,17.4-2,25-7c1.1-0.7,1.9-2.7,1.9-4.1
	c0.1-29.2,0.1-58.3,0.1-87.5c0-4.1-4.1-8.1-8.3-8.2c-3.3-0.1-6.6,0-10.2,0c0-7.4,0-14.5,0-22.1c3.2,0,6.3,0,9.5,0
	c12.5,0,25,0,37.5,0c14.7,0,17.7,2.9,17.7,17.4c0,36.1,0.2,72.3-0.2,108.4c-0.1,8.1,4,13.4,12.5,12.2c1.9-0.3,3.9,0,6.2,0
	c0,7.5,0,14.5,0,22.1c-8.4,0-16.5,0-24.6,0c-7.8,0-15.7,0-23.5,0c-9.9,0-13.5-3.5-13.8-13.5c0-1.3-0.2-2.6-0.4-5.2
	c-2.1,2.1-3.6,3.5-5,4.9c-15.4,15.2-33.8,19.9-54.7,15.3c-18.6-4.1-30-18.4-30.4-39.4c-0.6-30-0.3-60-0.6-89.9
	c0-2.5-1.2-5.5-2.9-7.4c-1.4-1.6-4.1-2.4-6.4-2.8C870.1,166.3,867.2,166.6,863.8,166.6z"/>
<path class="st1" d="M1795.7,214.5c-0.6-10.2-0.4-20-1.8-29.6c-1.3-8.9-7.7-13.5-17.9-14.3c-6-0.5-12-0.2-18,0.1
	c-4.7,0.2-7.4,3.5-7.5,8.2c-0.1,5.6,0,11.3,0,17.3c-9.4,0-18.4,0-28.2,0c0-4.8,0-9.6,0-14.3c0-9.2-0.1-18.3,0.1-27.5
	c0-1.7,1.5-4.4,2.8-4.7c23.4-6.5,47.3-10.1,71.6-7.3c30.2,3.5,44.6,20.4,44.7,50.9c0.1,26.5,0,53,0,79.5c0,6.4,3.3,9.7,9.7,9.7
	c2.8,0,5.6,0,8.7,0c0,7.4,0,14.4,0,22.1c-1.8,0-3.6,0-5.3,0c-14,0-28,0-42,0c-10.8,0-14.4-3.6-14.6-14.3c0-1-0.1-2-0.2-4.2
	c-2,1.9-3.4,3.1-4.7,4.4c-14.9,14.8-32.6,20.1-53.1,15.9c-14.8-3-25.4-11.5-29-26.3c-2.2-8.7-3.5-18.2-2.5-27.1
	c2.3-21.2,17.6-35.1,40.4-37.4c11.7-1.2,23.6-0.8,35.4-1.1C1787.6,214.5,1791.1,214.5,1795.7,214.5z M1795.2,239.3
	c-5.4,0-10.2-0.2-15,0c-5.4,0.3-11.1,0.2-16.3,1.5c-7.5,1.9-10.6,8-10.1,17.3c0.5,8.9,3.9,13.3,11.9,14.9c10.2,2,19.4-1.1,27.9-6.6
	c0.8-0.5,1.6-1.8,1.6-2.8C1795.2,255.6,1795.2,247.7,1795.2,239.3z"/>
<path class="st1" d="M1161.6,146.5c0,14.7,0,29,0,43.7c-8.1,0-16.2,0-25,0c0-4.8-0.1-9.7,0-14.7c0.2-4.7-2.9-7.8-6.5-8
	c-8.5-0.6-17.3-0.8-25.7,0.5c-7.9,1.2-12.2,7.3-12.6,14.1c-0.5,9.2,2.6,14.9,11.1,17.9c7.8,2.7,16.1,4,24,6.6
	c7.5,2.5,15.1,5.2,22.1,8.9c14.8,7.8,20.9,20.9,20,37.3c-1.7,30.6-19,49.4-49.6,53.6c-21.7,3-43.2,0.9-64.4-4.2
	c-3.2-0.8-4.6-2-4.5-5.7c0.3-13.3,0.1-26.6,0.1-40.2c8.4,0,16.4,0,25.1,0c0,5.4,0,10.8,0,16.2c0,4.6,3.3,9,7.8,9.3
	c8.6,0.5,17.3,1,25.9,0.3c9.9-0.8,14.7-6.4,15.9-16.2c1.3-9.9-2-16.3-11.2-19.8c-6.3-2.4-13.2-3.5-19.6-5.7
	c-7.8-2.7-15.9-5.1-23.1-9c-12.7-6.9-18.8-18.5-19.7-32.8c-1.9-30.4,13.4-49.8,43.4-55.2C1117.5,139.4,1139.5,142.2,1161.6,146.5z"
	/>
<path class="st1" d="M1462.8,282.5c0,7.5,0,14.4,0,21.7c-27.6,0-55,0-82.8,0c0-6.9,0-14,0-21.7c2.7,0,5.5,0,8.2,0
	c6.9,0,10.2-3.3,10.2-10.2c0-52,0-103.9,0-155.9c0-6.6-3.3-9.9-10-9.9c-2.8,0-5.6,0-8.6,0c0-7.6,0-14.6,0-22.4c2.6,0,5.1,0,7.5,0
	c14.3,0,28.7-0.2,43,0.1c11,0.3,14,3.8,14,14.8c0,57.6,0,115.3,0.1,172.9c0,2.6,0.9,5.6,2.5,7.5c1.4,1.7,4.3,2.5,6.7,2.9
	C1456.6,282.9,1459.6,282.5,1462.8,282.5z"/>
<path class="st1" d="M854.5,282.5c0,7.4,0,14.4,0,21.7c-27.4,0-54.8,0-82.6,0c0-7,0-14,0-21.7c2.8,0,5.6,0,8.4,0
	c6.7,0,9.9-3.2,9.9-10c0-52,0-104,0-156c0-6.8-3.2-10-9.9-10c-2.7,0-5.3,0-8.4,0c0-7.4,0-14.6,0-22.4c5.6,0,11.1,0,16.5,0
	c11.7,0.1,23.3-0.1,35,0.3c9.6,0.4,12.6,3.9,12.6,13.5c0,57.5,0,115,0,172.5c0,9.9,2.3,12.1,12.3,12.1
	C850.4,282.5,852.3,282.5,854.5,282.5z"/>
<path class="st1" d="M1581.8,166.6c0-7.5,0-14.4,0-22.1c1.7,0,3.5,0,5.3,0c13.5,0,27,0,40.5,0c12.5,0,16,3.5,16.1,16
	c0,1.5,0,3,0,6.1c15.2-18,32.3-28.7,55.9-24.1c0,21,0,41.7,0,62.7c-8.8,0-17.4,0-26.8,0c0-5.5,0-11.1,0-16.6c0-6.7-3.8-9.5-10.3-7.6
	c-16.3,4.5-16.3,4.5-16.3,21.3c0,23.3,0,46.6,0,70c0,7.1,3.2,10.2,10.2,10.2c3.8,0,7.6,0,11.8,0c0,7.4,0,14.4,0,21.8
	c-28.7,0-57.3,0-86.2,0c0-7.1,0-14.2,0-21.8c2.9,0,5.7,0,8.5,0c6.7,0,9.9-3.3,9.9-10.1c0-31.6,0-63.3,0-94.9
	c0-7.4-3.5-10.9-10.8-10.9C1587,166.6,1584.5,166.6,1581.8,166.6z"/>
<path class="st1" d="M1491.5,167.4c-6.6,0-12.4,0-18.5,0c0-7.3,0-14.4,0-22.1c2.2,0,4.3-0.3,6.4,0c6.9,1,10.6-3,13.1-8.4
	c4.9-10.2,9.6-20.5,14.2-30.8c1.2-2.8,2.8-4,6-3.9c8.1,0.2,16.3,0.1,24.8,0.1c0,14.4,0,28.3,0,42.8c11.3,0,22.3,0,33.6,0
	c0,7.6,0,14.6,0,22.2c-11,0-21.9,0-33.2,0c-0.1,2.1-0.2,3.7-0.2,5.3c0,33.3,0,66.7,0,100c0,6.7,3.3,9.9,10,9.9c8,0,15.9,0,24.4,0
	c0,6.9,0.1,13.4-0.1,19.8c0,1-1.7,2.7-2.6,2.8c-16.9,0.7-34,2.6-50.8,1.3c-17.4-1.4-26-12.4-26.8-29.9c-0.5-11.5-0.2-23-0.2-34.5
	c0-22.8,0-45.7,0-68.5C1491.5,171.7,1491.5,169.9,1491.5,167.4z"/>
<path class="st1" d="M805.3,474.5c-13.6-11.1-12.4-21.8,5.5-38.7c-10.8-7.4-13.8-18-11.9-30.2c1.9-12.7,13.1-22.3,28.5-23.8
	c7.5-0.7,15.2,0.4,22.8,0.6c5.8,0.2,11.6,0.3,17.5,0.4c5.8,0.1,11.6,0,17.8,0c0,4.5,0,8.5,0,13.2c-3.2,0-6.3,0-9.5,0
	c-2.4,0-3.7,0.7-2.9,3.7c6.8,24.6-5.5,41.3-31.5,42.7c-4.6,0.3-9.4,0.1-13.9-0.6c-4.7-0.8-6.2,1.9-6.7,5.4c-0.5,3.8,2.1,5.4,5.6,5.4
	c9.8,0.1,19.7,0.1,29.5,0.2c2.7,0,5.3,0.2,8,0.5c9.4,1.1,17.7,4.4,20.9,14.4c3.5,10.7,2.1,20.8-5.6,29.4c-5.6,6.3-13,9.7-21.1,11.7
	c-15.4,4-31,4-46.5,0.4c-12.1-2.8-18.6-11.1-15.7-20.8C797.3,483.4,801.9,479.4,805.3,474.5z M837.3,477.5c-4.5,0-9-0.1-13.5,0.1
	c-1.4,0.1-3.4,0.8-4.1,1.8c-5.2,7.8-1.2,17.4,8.1,19.1c3.4,0.6,7.1,1.3,10.4,0.7c5.6-1,11.3-2.5,16.5-4.9c4.2-2,5.6-8.3,3.9-12.4
	c-1.7-4.1-5.5-4.4-9.2-4.4C845.3,477.4,841.3,477.5,837.3,477.5z M823.7,411.5c0,1-0.1,2,0,3c0.7,7.8,5.4,12.5,12.7,12.8
	c7.3,0.3,12.4-3.9,13.6-11.8c0.4-2.9,0.3-6-0.2-8.9c-1.3-7.5-6.2-11.2-13.8-10.8C827.9,396.4,823.6,401.8,823.7,411.5z"/>
<path class="st1" d="M604.2,440.8c1.6-0.1,2.6-0.2,3.5-0.2c4.3,0,8.6,0,13.7,0c0,5.2,0.1,10.2,0,15.1c-0.1,4.3,1.9,6.7,6.1,6.9
	c7.4,0.3,15,0.9,22.3,0c7.2-0.8,10.6-5.4,11.6-12.5c1.2-8.2-1.1-14.3-7.4-17.5c-4.1-2.1-8.7-3.3-13-4.9c-5.2-1.9-10.5-3.3-15.5-5.6
	c-15.4-7.1-21.7-18.5-20.8-37.3c0.7-14.3,9.7-25.9,24.3-31c12.6-4.4,25.5-4.2,38.5-2.7c6.4,0.7,12.7,2.2,19.2,3.4
	c0,10.7,0,20.6,0,30.6c0,1-0.1,1.9-0.2,3.2c-5.5,0-10.8,0-16.8,0c0-4.4-0.1-8.8,0-13.2c0.1-3.9-1.6-6.6-5.7-6.7
	c-6.9-0.2-14-0.7-20.8,0.4c-7.1,1.2-10.8,6.4-11.2,12.9c-0.5,8,1.8,12.3,9.1,15.5c4.1,1.8,8.5,2.9,12.7,4.5
	c6.2,2.3,12.7,4.2,18.6,7.2c14,7,19.2,18.9,18.4,34.2c-0.8,14.5-6.7,25.8-20.1,32.1c-5.8,2.7-12.3,4.6-18.6,5.2
	c-14.8,1.5-29.6,0.2-44.1-3.3c-2.3-0.6-3.9-1.2-3.9-4.1C604.3,462.3,604.2,451.8,604.2,440.8z"/>
<path class="st1" d="M996.1,466c0,2.9,0,5.5,0,8.2c0,1.3-0.2,2.6-0.3,4.4c-10.7,0-21.3,0.4-31.9-0.2c-5.2-0.3-4.9-5.5-5.5-10.3
	c-1.6,1.5-2.7,2.5-3.8,3.6c-8.6,8-18.8,10.5-30.1,8.5c-11.9-2.1-19.3-9.9-19.8-22.3c-0.7-16.3-0.4-32.6-0.5-49
	c-0.1-11.4,0-11.4-11.1-13.6c0-3.9,0-7.8,0-12.6c6.2,0,12.2,0,18.3,0c4.2,0,8.3-0.1,12.5,0c5.6,0.2,7.8,2.4,7.8,8
	c0,17.8,0,35.7,0,53.5c0,15.2,8.1,20,21.7,13.2c2.7-1.4,3.9-3,3.8-6.2c-0.2-15.5-0.1-31-0.1-46.5c0-7.6-0.8-8.4-8.5-8.9
	c-0.8-0.1-1.6-0.3-2.6-0.5c0-4.1,0-8,0-12.4c11.2,0,22.3-0.3,33.4,0.1c4.2,0.2,5.3,3.8,5.3,7.8c-0.1,21,0,42,0,63
	C984.8,464.7,984.8,464.7,996.1,466z"/>
<path class="st1" d="M1174.5,430.8c-0.7,5.8-1,11.6-2.3,17.3c-6,25.6-25.7,35.8-50.6,32c-16.7-2.5-27.1-12.9-31.7-28.8
	c-3.9-13.6-3.8-27.3,0.1-40.9c5.7-19.8,23.1-31.4,43.8-29.3c23.9,2.4,37.9,16.7,39.8,40.8c0.2,3,0.4,6,0.5,9
	C1174.2,430.7,1174.4,430.7,1174.5,430.8z M1146.4,431c-0.9-7.3-1.4-14.7-2.9-22c-1.6-7.5-6.2-10.7-13-10.7
	c-6.6,0.1-11.1,3.3-12.7,10.4c-3.3,14.6-3.4,29.4,0,44c1.7,7.5,6.2,10.7,13,10.7c6.7,0,11.3-3.5,12.8-10.9
	C1145,445.5,1145.5,438.3,1146.4,431z"/>
<path class="st1" d="M733,435.6c-0.8,19,9.8,29.3,27.9,27.5c5.7-0.6,11.4-1.9,17.8-3c0,4,0.2,8.3-0.1,12.5c-0.1,1.1-1.5,2.6-2.6,3.1
	c-17.7,7.1-35.3,8-52.3-1.6c-7.2-4.1-12.1-10.5-14.9-18.2c-6.4-18.2-5.9-36.4,2.7-53.8c8.3-16.8,26.5-24.5,45.1-19.9
	c17.1,4.3,27.1,17.9,27.1,37.1c0,3.3-0.1,6.7,0,10c0.2,4.6-1.8,6.6-6.5,6.6c-12.8-0.1-25.6,0-38.5,0
	C737,435.6,735.2,435.6,733,435.6z M758.2,422.4c-0.7-6.1-1.2-11.8-2.2-17.4c-0.8-4.3-3.8-7-8.3-7.4c-4.4-0.4-7.8,1.5-10,5.3
	c-3.5,6-4.4,12.6-4.7,19.6C741.4,422.4,749.3,422.4,758.2,422.4z"/>
<path class="st1" d="M1187.9,449.8c5.3,0,10.1,0,15.6,0c0,3.2,0,6.3,0,9.4c-0.1,3.9,2,6,5.7,6.2c4.5,0.3,9,0.4,13.5,0.1
	c5.9-0.4,9.4-3.7,10.2-8.6c1.1-7.2-0.8-11.1-7.3-13.5c-3.4-1.3-7-2-10.5-3c-2.4-0.7-4.8-1.2-7.2-2c-12.7-4.5-18.9-12.8-19.1-25.1
	c-0.2-14.8,5.9-24.3,18.7-29.2c11.8-4.4,23.9-3.5,36-2.2c3.6,0.4,7.2,1.2,11,1.9c0,8.8,0,17.4,0,26.4c-4.7,0-9.5,0-14.8,0
	c0-2.8,0.5-5.7-0.2-8.3c-0.5-2-2.5-5-4-5.1c-5.2-0.5-10.6-0.4-15.7,0.5c-4.3,0.7-6.7,4.1-6.9,8.7c-0.2,4.6,1.6,8.2,6.1,9.9
	c2.9,1.1,6,1.9,9,2.8c4.3,1.3,8.7,2.2,12.9,3.8c10.2,3.7,17.8,10.1,18.4,21.8c0.6,11.8-2.2,22.6-12.7,29.2c-5.6,3.5-12.4,6-19,6.9
	c-11.9,1.6-23.9,0.6-35.7-2.3c-2.9-0.7-4.2-1.7-4.1-4.9C1188,465.3,1187.9,457.9,1187.9,449.8z"/>
<path class="st1" d="M1076.8,381.5c0,12.5,0,24.8,0,37.5c-5.2,0-10.4,0-16.1,0c0-3.1,0.1-6.2,0-9.4c-0.1-4.7-2.1-6.2-6.8-4.9
	c-0.2,0-0.3,0.1-0.5,0.2c-8.7,2.6-8.7,2.6-8.7,11.5c0,13.3,0,26.6,0,40c0,8.1,0.8,9,8.7,9c1.3,0,2.6,0,4.3,0c0,4.5,0,8.5,0,13
	c-17.1,0-34.2,0-51.5,0c0-4.2,0-8.3,0-12.3c0.4-0.2,0.7-0.5,1-0.5c10.1-0.6,10.1-0.6,10.1-10.7c0-16.7,0-33.3,0-50
	c0-7.9-0.7-8.6-8.8-9.1c-0.6,0-1.3-0.2-2.2-0.4c0-4,0-7.9,0-12.8c4,0,8,0,12.1,0c5.2,0,10.3,0,15.5,0c7.2,0,9.1,1.8,9.6,9
	c0.1,0.9,0.2,1.8,0.4,3.6C1052.8,385,1062.9,378.8,1076.8,381.5z"/>
</svg>
