<?xml version="1.0" encoding="UTF-8"?>
<svg width="210px" height="210px" viewBox="0 0 210 210" version="1.1" xmlns="http://www.w3.org/2000/svg" xmlns:xlink="http://www.w3.org/1999/xlink">
    <!-- Generator: Sketch 50 (54983) - http://www.bohemiancoding.com/sketch -->
    <title>icon3</title>
    <desc>Created with Sketch.</desc>
    <defs>
        <polygon id="path-1" points="0 0 209.999886 0 209.999886 210 0 210"></polygon>
    </defs>
    <g id="-" stroke="none" stroke-width="1" fill="none" fill-rule="evenodd">
        <g id="solución-" transform="translate(-564.000000, -1101.000000)">
            <g id="icon3" transform="translate(564.000000, 1101.000000)">
                <g id="Group-8" stroke-width="1" fill-rule="evenodd">
                    <g id="Group-3">
                        <mask id="mask-2" fill="white">
                            <use xlink:href="#path-1"></use>
                        </mask>
                        <g id="Clip-2"></g>
                        <path d="M209.999886,105 C209.999886,162.990245 162.99013,210 104.999886,210 C47.010212,210 -0.000114130435,162.990245 -0.000114130435,105 C-0.000114130435,47.0097554 47.010212,0 104.999886,0 C162.99013,0 209.999886,47.0097554 209.999886,105" id="Fill-1" fill="#F8F8F8" mask="url(#mask-2)"></path>
                    </g>
                    <path d="M158.041549,81.1986685 C158.041549,101.547554 141.545136,118.043397 121.19625,118.043397 C100.847364,118.043397 84.3515217,101.547554 84.3515217,81.1986685 C84.3515217,60.8497826 100.847364,44.3533696 121.19625,44.3533696 C141.545136,44.3533696 158.041549,60.8497826 158.041549,81.1986685" id="Fill-4" fill="#0081FC"></path>
                    <path d="M161.971745,120.500111 C161.971745,133.794595 151.194408,144.572503 137.899353,144.572503 C124.60487,144.572503 113.827533,133.794595 113.827533,120.500111 C113.827533,107.205628 124.60487,96.4277201 137.899353,96.4277201 C151.194408,96.4277201 161.971745,107.205628 161.971745,120.500111" id="Fill-6" fill="#0081FC"></path>
                </g>
                <text id="€" font-family="EncodeSans-Light, Encode Sans" font-size="36" font-weight="300" fill="#FFFFFF">
                    <tspan x="107.829293" y="91.1308974">€</tspan>
                </text>
                <text id="€" font-family="EncodeSans-Light, Encode Sans" font-size="24" font-weight="300" fill="#000000">
                    <tspan x="131.820652" y="125.842391">€</tspan>
                </text>
                <g id="Group-13" stroke-width="1" fill-rule="evenodd" transform="translate(46.793478, 65.625000)" fill="#000000">
                    <path d="M69.5598179,63.2691196 C64.1100897,82.0287391 44.4842201,92.8180598 25.7251712,87.3683315 C6.96555163,81.9186033 -3.82433967,62.2933043 1.62595924,43.5336848 C7.0756875,24.7740652 26.7009864,13.9841739 45.460606,19.4344728 C64.2202255,24.8842011 75.0095462,44.5095 69.5598179,63.2691196" id="Fill-9"></path>
                    <path d="M16.8302446,6.73078533 C16.8302446,10.2579864 13.9707065,13.1169538 10.4435054,13.1169538 C6.91630435,13.1169538 4.05733696,10.2579864 4.05733696,6.73078533 C4.05733696,3.20358424 6.91630435,0.344616848 10.4435054,0.344616848 C13.9707065,0.344616848 16.8302446,3.20358424 16.8302446,6.73078533" id="Fill-11"></path>
                </g>
                <text id="↓" font-family="LeroyMerlinSansOffice-Regular, Leroy Merlin Sans Office" font-size="24" font-weight="normal" letter-spacing="0.5807938" fill="#0081FC">
                    <tspan x="67.9076087" y="126.910326"> ↓</tspan>
                </text>
            </g>
        </g>
    </g>
</svg>