<?xml version="1.0" encoding="utf-8"?>
<!-- Generator: Adobe Illustrator 21.1.0, SVG Export Plug-In . SVG Version: 6.00 Build 0)  -->
<svg version="1.1" id="Capa_1" xmlns="http://www.w3.org/2000/svg" xmlns:xlink="http://www.w3.org/1999/xlink" x="0px" y="0px"
	 viewBox="0 0 33 204.7" style="enable-background:new 0 0 33 204.7;" xml:space="preserve">
<style type="text/css">
	.st0{clip-path:url(#SVGID_2_);}
	.st1{clip-path:url(#SVGID_4_);fill:#648EDD;}
	.st2{clip-path:url(#SVGID_6_);}
	.st3{clip-path:url(#SVGID_8_);fill:#648EDD;}
	.st4{clip-path:url(#SVGID_10_);}
	.st5{clip-path:url(#SVGID_12_);fill:#648EDD;}
	.st6{clip-path:url(#SVGID_14_);}
	.st7{clip-path:url(#SVGID_16_);fill:#648EDD;}
	.st8{clip-path:url(#SVGID_18_);}
	.st9{clip-path:url(#SVGID_20_);fill:#FFFFFF;}
	.st10{clip-path:url(#SVGID_22_);}
	.st11{clip-path:url(#SVGID_24_);fill:#FFFFFF;}
	.st12{clip-path:url(#SVGID_26_);}
	.st13{clip-path:url(#SVGID_28_);enable-background:new    ;}
	.st14{clip-path:url(#SVGID_30_);}
	.st15{clip-path:url(#SVGID_32_);}
	.st16{clip-path:url(#SVGID_34_);fill:#FFFFFF;}
	.st17{clip-path:url(#SVGID_36_);}
	.st18{clip-path:url(#SVGID_38_);enable-background:new    ;}
	.st19{clip-path:url(#SVGID_40_);}
	.st20{clip-path:url(#SVGID_42_);}
	.st21{clip-path:url(#SVGID_44_);fill:#FFFFFF;}
	.st22{clip-path:url(#SVGID_46_);}
	.st23{clip-path:url(#SVGID_48_);fill:#FFFFFF;}
	.st24{clip-path:url(#SVGID_50_);}
	.st25{clip-path:url(#SVGID_52_);fill:#FFFFFF;}
	.st26{clip-path:url(#SVGID_54_);}
	.st27{clip-path:url(#SVGID_56_);fill:#FFFFFF;}
	.st28{clip-path:url(#SVGID_58_);}
	.st29{clip-path:url(#SVGID_60_);fill:#FFFFFF;}
</style>
<g>
	<defs>
		<path id="SVGID_1_" d="M23.8,137.9c0,0-3.1-0.9-4.3-1.3c-1.2-0.4-1.8-2.6-1.1-3.3c0.7-0.7,1-1.6,1.3-2.2c0-0.1,0.1-0.2,0.2-0.2
			c0.3-0.1,0.6-0.5,0.7-1c0.2-0.6,0-1.2-0.4-1.2h-0.1c0-0.9,0.3-1.9,0.1-2.8c-0.4-1.5-1.8-2.8-4.1-2.8c-2.2,0-3.6,1.3-4.1,2.8
			c-0.3,0.9,0.1,1.9,0.1,2.8H12c-0.4,0-0.5,0.6-0.4,1.2c0.1,0.5,0.4,0.9,0.7,1c0.1,0,0.2,0.1,0.2,0.2c0.3,0.7,0.6,1.5,1.3,2.2
			c0.7,0.7,0.1,2.9-1.1,3.3c-1.2,0.4-4.3,1.3-4.3,1.3c-1.4,0.4-2.3,1.6-2.3,3.1v1.2h20V141C26.1,139.6,25.2,138.4,23.8,137.9"/>
	</defs>
	<clipPath id="SVGID_2_">
		<use xlink:href="#SVGID_1_"  style="overflow:visible;"/>
	</clipPath>
	<g class="st0">
		<defs>
			<rect id="SVGID_3_" x="-24.9" y="-146" width="320" height="596"/>
		</defs>
		<clipPath id="SVGID_4_">
			<use xlink:href="#SVGID_3_"  style="overflow:visible;"/>
		</clipPath>
		<rect x="1.1" y="118" class="st1" width="30" height="29.2"/>
	</g>
</g>
<g>
	<defs>
		<path id="SVGID_5_" d="M6.7,101.6h1.3v-0.7V95c0-0.4,0.3-0.7,0.7-0.7h14.4c0.4,0,0.7,0.3,0.7,0.7v5.9v0.7h1.3
			c0.4,0,0.7,0.3,0.7,0.7v2.6c0,0.4-0.3,0.7-0.7,0.7h-1.3v0.7v3.9v0.7v0.7v3.3c0,0.4-0.3,0.7-0.7,0.7h-2c-0.4,0-0.7-0.3-0.7-0.7
			v-1.5c-1.6,0.2-3.5,0.2-4.6,0.2c-1.1,0-2.9,0-4.6-0.2v1.5c0,0.4-0.3,0.7-0.7,0.7h-2c-0.4,0-0.7-0.3-0.7-0.7v-3.3v-0.7v-0.7v-3.9
			v-0.7H6.7c-0.4,0-0.7-0.3-0.7-0.7v-2.6C6.1,101.9,6.4,101.6,6.7,101.6z M13,111.4c-0.2,0-0.3,0.1-0.3,0.3c0,0.2,0.1,0.3,0.3,0.3
			h5.9c0.2,0,0.3-0.1,0.3-0.3c0-0.2-0.1-0.3-0.3-0.3H13z M13,110.1c-0.2,0-0.3,0.1-0.3,0.3c0,0.2,0.1,0.3,0.3,0.3h5.9
			c0.2,0,0.3-0.1,0.3-0.3c0-0.2-0.1-0.3-0.3-0.3H13z M13,108.8c-0.2,0-0.3,0.1-0.3,0.3c0,0.2,0.1,0.3,0.3,0.3h5.9
			c0.2,0,0.3-0.1,0.3-0.3c0-0.2-0.1-0.3-0.3-0.3H13z M13,107.5c-0.2,0-0.3,0.1-0.3,0.3c0,0.2,0.1,0.3,0.3,0.3h5.9
			c0.2,0,0.3-0.1,0.3-0.3c0-0.2-0.1-0.3-0.3-0.3H13z M20.5,107.5c-0.4,0-0.7,0.3-0.7,0.7v2.6c0,0.4,0.3,0.7,0.7,0.7h1.3
			c0.4,0,0.7-0.3,0.7-0.7v-2.6c0-0.4-0.3-0.7-0.7-0.7H20.5z M10,107.5c-0.4,0-0.7,0.3-0.7,0.7v2.6c0,0.4,0.3,0.7,0.7,0.7h1.3
			c0.4,0,0.7-0.3,0.7-0.7v-2.6c0-0.4-0.3-0.7-0.7-0.7H10z M22.3,99l-0.4-1.1c-0.1-0.4-0.4-1.1-0.8-1.4c-0.2-0.1-0.4-0.1-0.6-0.1
			h-9.2c-0.2,0-0.4,0-0.6,0.1c-0.3,0.3-0.6,1-0.8,1.4L9.6,99c0.1,0,0.3,0,0.4,0h4.6h2.6h4.6C22,99,22.1,99,22.3,99z M21.8,99.6h-3.9
			v0.7c0,0.4-0.3,0.7-0.7,0.7h-2.6c-0.4,0-0.7-0.3-0.7-0.7v-0.7H10c-0.7,0-1.3,0.6-1.3,1.3v1.3v2.6v0.7h14.4v-0.7v-2.6v-1.3
			C23.2,100.2,22.6,99.6,21.8,99.6z"/>
	</defs>
	<clipPath id="SVGID_6_">
		<use xlink:href="#SVGID_5_"  style="overflow:visible;"/>
	</clipPath>
	<g class="st2">
		<defs>
			<rect id="SVGID_7_" x="-24.9" y="-126" width="320" height="596"/>
		</defs>
		<clipPath id="SVGID_8_">
			<use xlink:href="#SVGID_7_"  style="overflow:visible;"/>
		</clipPath>
		<rect x="1.1" y="89.4" class="st3" width="29.7" height="31"/>
	</g>
</g>
<g>
	<defs>
		<path id="SVGID_9_" d="M6.1,48c0,5.5,4.5,10,10,10s10-4.5,10-10c0-5.5-4.5-10-10-10S6.1,42.5,6.1,48z M10.8,48.7
			c0,1.2,0.2,2.3,0.4,3.3H8.4c-0.5-1-0.9-2.1-0.9-3.3H10.8z M16.8,42.7v-3.2c0.9,0.4,1.8,1.5,2.4,3.2H16.8z M19.6,44.1
			c0.3,1,0.4,2.1,0.4,3.3h-3.3v-3.3H19.6z M15.4,42.7H13c0.6-1.7,1.5-2.8,2.4-3.2V42.7z M15.4,44.1v3.3h-3.3c0-1.2,0.2-2.3,0.4-3.3
			H15.4z M7.5,47.4c0.1-1.2,0.4-2.3,0.9-3.3h2.8c-0.2,1-0.4,2.1-0.4,3.3H7.5z M15.4,48.7V52h-2.9c-0.2-1-0.4-2.1-0.4-3.3H15.4z
			 M15.4,53.4v3.2c-0.9-0.4-1.8-1.5-2.4-3.2H15.4z M16.8,53.4h2.4c-0.6,1.7-1.5,2.8-2.4,3.2V53.4z M16.8,52v-3.3h3.3
			c0,1.2-0.2,2.3-0.4,3.3H16.8z M24.7,48.7c-0.1,1.2-0.4,2.3-0.9,3.3H21c0.2-1,0.4-2.1,0.4-3.3H24.7z M21.4,47.4
			c0-1.2-0.2-2.3-0.4-3.3h2.8c0.5,1,0.9,2.1,0.9,3.3H21.4z M20.6,42.7c-0.3-1.1-0.8-2-1.3-2.7c1.4,0.6,2.7,1.5,3.6,2.7H20.6z
			 M11.6,42.7H9.3c0.9-1.2,2.2-2.1,3.6-2.7C12.3,40.8,11.9,41.7,11.6,42.7z M11.5,53.4c0.3,1.1,0.8,2,1.3,2.7
			c-1.4-0.6-2.6-1.5-3.6-2.7H11.5z M20.6,53.4h2.3c-0.9,1.2-2.1,2.1-3.6,2.7C19.8,55.3,20.3,54.4,20.6,53.4z"/>
	</defs>
	<clipPath id="SVGID_10_">
		<use xlink:href="#SVGID_9_"  style="overflow:visible;"/>
	</clipPath>
	<g class="st4">
		<defs>
			<rect id="SVGID_11_" x="-24.9" y="-87" width="320" height="596"/>
		</defs>
		<clipPath id="SVGID_12_">
			<use xlink:href="#SVGID_11_"  style="overflow:visible;"/>
		</clipPath>
		<rect x="1.1" y="33" class="st5" width="30" height="30"/>
	</g>
</g>
<g>
	<defs>
		<path id="SVGID_13_" d="M19.8,76.7c0,2-1.7,3.7-3.7,3.7c-2,0-3.7-1.7-3.7-3.7c0-2,1.7-3.7,3.7-3.7C18.1,73,19.8,74.7,19.8,76.7z
			 M18.2,76.7c0-1.1-0.9-2.1-2.1-2.1c-1.1,0-2.1,0.9-2.1,2.1s0.9,2.1,2.1,2.1C17.2,78.8,18.2,77.8,18.2,76.7z M26.1,76.1v1.2
			c0,0.9-0.7,1.7-1.5,1.8l-0.9,0.2c-0.1,0.3-0.2,0.6-0.4,0.9l0.5,0.7c0.5,0.7,0.4,1.8-0.2,2.4l-0.8,0.8c-0.6,0.6-1.7,0.7-2.4,0.2
			l-0.7-0.5c-0.3,0.2-0.6,0.3-0.9,0.4l-0.2,0.9c-0.2,0.9-0.9,1.5-1.8,1.5h-1.2c-0.9,0-1.7-0.7-1.8-1.5l-0.2-0.9
			c-0.3-0.1-0.6-0.2-0.9-0.4l-0.7,0.5c-0.7,0.5-1.8,0.4-2.4-0.2l-0.8-0.8c-0.6-0.6-0.7-1.7-0.2-2.4l0.5-0.7
			c-0.1-0.3-0.3-0.6-0.4-0.9l-0.9-0.2c-0.9-0.2-1.5-0.9-1.5-1.8v-1.2c0-0.9,0.6-1.7,1.5-1.8l0.9-0.2c0.1-0.3,0.2-0.6,0.4-0.9
			l-0.5-0.7C7.9,71.7,8,70.7,8.6,70l0.8-0.8c0.6-0.6,1.7-0.7,2.4-0.2l0.7,0.5c0.3-0.1,0.6-0.3,0.9-0.4l0.2-0.9
			c0.2-0.9,0.9-1.5,1.8-1.5h1.2c0.9,0,1.7,0.7,1.8,1.5l0.2,0.9c0.3,0.1,0.6,0.2,0.9,0.4l0.7-0.5c0.7-0.5,1.8-0.4,2.4,0.2l0.8,0.8
			c0.6,0.6,0.7,1.7,0.2,2.4l-0.5,0.7c0.2,0.3,0.3,0.6,0.4,0.9l0.9,0.2C25.4,74.4,26.1,75.2,26.1,76.1z M24.5,76.1
			c0-0.1-0.1-0.2-0.2-0.2l-1.4-0.2c-0.3-0.1-0.6-0.3-0.6-0.6c-0.1-0.5-0.4-1-0.6-1.5c-0.2-0.3-0.1-0.6,0-0.9l0.8-1.1
			c0.1-0.1,0.1-0.2,0-0.3l-0.8-0.8c-0.1-0.1-0.2-0.1-0.3,0l-1.1,0.8c-0.3,0.2-0.6,0.2-0.9,0c-0.5-0.3-1-0.5-1.5-0.6
			c-0.3-0.1-0.5-0.3-0.6-0.6l-0.3-1.4c0-0.1-0.1-0.2-0.2-0.2h-1.2c-0.1,0-0.2,0.1-0.2,0.2L15,69.9c-0.1,0.3-0.3,0.6-0.6,0.6
			c-0.5,0.1-1,0.4-1.5,0.6c-0.3,0.2-0.6,0.1-0.9,0l-1.1-0.8c-0.1-0.1-0.2-0.1-0.3,0l-0.8,0.8c-0.1,0.1-0.1,0.2,0,0.3l0.8,1.1
			c0.2,0.3,0.2,0.6,0,0.9c-0.3,0.5-0.5,1-0.6,1.5c-0.1,0.3-0.3,0.6-0.7,0.6l-1.4,0.2c-0.1,0-0.2,0.1-0.2,0.2v1.2
			c0,0.1,0.1,0.2,0.2,0.2l1.4,0.2c0.3,0.1,0.6,0.3,0.6,0.6c0.1,0.5,0.4,1,0.6,1.5c0.2,0.3,0.1,0.6,0,0.9l-0.8,1.1
			c-0.1,0.1-0.1,0.2,0,0.3l0.8,0.8c0.1,0.1,0.2,0.1,0.3,0l1.1-0.8c0.3-0.2,0.6-0.2,0.9,0c0.5,0.3,1,0.5,1.5,0.6
			c0.3,0.1,0.6,0.3,0.6,0.7l0.2,1.4c0,0.1,0.1,0.2,0.2,0.2h1.2c0.1,0,0.2-0.1,0.2-0.2l0.2-1.4c0.1-0.3,0.3-0.6,0.6-0.6
			c0.5-0.1,1-0.4,1.5-0.6c0.3-0.2,0.6-0.1,0.9,0l1.1,0.8c0.1,0.1,0.2,0.1,0.3,0l0.8-0.8c0.1-0.1,0.1-0.2,0-0.3l-0.8-1.1
			c-0.2-0.3-0.2-0.6,0-0.9c0.3-0.5,0.5-1,0.6-1.5c0.1-0.3,0.3-0.5,0.6-0.6l1.4-0.3c0.1,0,0.2-0.1,0.2-0.2V76.1z"/>
	</defs>
	<clipPath id="SVGID_14_">
		<use xlink:href="#SVGID_13_"  style="overflow:visible;"/>
	</clipPath>
	<g class="st6">
		<defs>
			<rect id="SVGID_15_" x="-24.9" y="-106" width="320" height="596"/>
		</defs>
		<clipPath id="SVGID_16_">
			<use xlink:href="#SVGID_15_"  style="overflow:visible;"/>
		</clipPath>
		<rect x="1.1" y="61.7" class="st7" width="30" height="30"/>
	</g>
</g>
<g>
	<defs>
		<path id="SVGID_17_" d="M21.9,177.9H11c-1.4,0-2.5,1.2-2.5,2.6c0,0.5,0.4,0.8,0.8,0.8c0.5,0,0.8-0.4,0.8-0.8
			c0-0.5,0.4-0.9,0.9-0.9h10.9c0.5,0,0.9,0.4,0.9,0.9v15.8c0,0.5-0.4,0.9-0.9,0.9H11c-0.5,0-0.9-0.4-0.9-0.9c0-0.5-0.4-0.8-0.8-0.8
			c-0.5,0-0.8,0.4-0.8,0.8c0,1.4,1.1,2.6,2.5,2.6h10.9c1.4,0,2.5-1.2,2.5-2.6v-15.8C24.4,179,23.3,177.9,21.9,177.9z"/>
	</defs>
	<clipPath id="SVGID_18_">
		<use xlink:href="#SVGID_17_"  style="overflow:visible;"/>
	</clipPath>
	<g class="st8">
		<defs>
			<rect id="SVGID_19_" x="-25.6" y="-244.1" width="320" height="596"/>
		</defs>
		<clipPath id="SVGID_20_">
			<use xlink:href="#SVGID_19_"  style="overflow:visible;"/>
		</clipPath>
		<rect x="3.4" y="172.9" class="st9" width="26" height="31"/>
	</g>
</g>
<g>
	<defs>
		<path id="SVGID_21_" d="M12,192.5c-0.3,0.3-0.4,0.8,0,1.2c0.2,0.2,0.4,0.3,0.6,0.3c0.2,0,0.4-0.1,0.6-0.2l5-4.7
			c0.2-0.2,0.3-0.4,0.3-0.6c0-0.2-0.1-0.4-0.3-0.6l-5-4.7c-0.3-0.3-0.9-0.3-1.2,0c-0.3,0.3-0.3,0.9,0,1.2l3.5,3.2H7.3
			c-0.5,0-0.8,0.4-0.8,0.8c0,0.5,0.4,0.8,0.8,0.8h8.2L12,192.5z"/>
	</defs>
	<clipPath id="SVGID_22_">
		<use xlink:href="#SVGID_21_"  style="overflow:visible;"/>
	</clipPath>
	<g class="st10">
		<defs>
			<rect id="SVGID_23_" x="-25.6" y="-244.1" width="320" height="596"/>
		</defs>
		<clipPath id="SVGID_24_">
			<use xlink:href="#SVGID_23_"  style="overflow:visible;"/>
		</clipPath>
		<rect x="1.4" y="177.9" class="st11" width="22" height="21"/>
	</g>
</g>
<g>
	<defs>
		<rect id="SVGID_25_" x="7.4" y="149.5" width="15.9" height="21.1"/>
	</defs>
	<clipPath id="SVGID_26_">
		<use xlink:href="#SVGID_25_"  style="overflow:visible;"/>
	</clipPath>
	<g class="st12">
		<defs>
			<rect id="SVGID_27_" x="-23.3" y="-197.2" width="298.1" height="555.3"/>
		</defs>
		<clipPath id="SVGID_28_">
			<use xlink:href="#SVGID_27_"  style="overflow:visible;"/>
		</clipPath>
		<g class="st13">
			<g>
				<defs>
					<rect id="SVGID_29_" x="7.4" y="149.4" width="16.8" height="21.4"/>
				</defs>
				<clipPath id="SVGID_30_">
					<use xlink:href="#SVGID_29_"  style="overflow:visible;"/>
				</clipPath>
				<g class="st14">
					<defs>
						<path id="SVGID_31_" d="M22.8,166.2c-0.3,0-0.6,0.3-0.6,0.6v2.2c0,0.3-0.2,0.5-0.5,0.5h0H9c-0.3,0-0.5-0.2-0.5-0.5v-13.2H12
							c0.7,0,1.3-0.6,1.3-1.4v-3.6h8.5c0.3,0,0.5,0.2,0.5,0.5v3.1c0,0.3,0.2,0.6,0.6,0.6c0.3,0,0.6-0.3,0.6-0.6v-3.1
							c0-0.9-0.7-1.7-1.6-1.7h-8.5c-0.5,0-0.9,0.2-1.2,0.5l-4.1,4.3c-0.3,0.3-0.5,0.8-0.5,1.3v13.3c0,0.9,0.7,1.7,1.6,1.7h12.7
							c0.9,0,1.6-0.8,1.6-1.7v-2.2C23.3,166.4,23.1,166.2,22.8,166.2z M12.2,151.5v2.8c0,0.1-0.1,0.2-0.2,0.2H9.3L12.2,151.5z"/>
					</defs>
					<clipPath id="SVGID_32_">
						<use xlink:href="#SVGID_31_"  style="overflow:visible;"/>
					</clipPath>
					<g class="st15">
						<defs>
							<rect id="SVGID_33_" x="7.4" y="149.4" width="16.8" height="21.4"/>
						</defs>
						<clipPath id="SVGID_34_">
							<use xlink:href="#SVGID_33_"  style="overflow:visible;"/>
						</clipPath>
						<rect x="2.8" y="144.9" class="st16" width="25.2" height="30.4"/>
					</g>
				</g>
			</g>
		</g>
	</g>
</g>
<g>
	<defs>
		<rect id="SVGID_35_" x="15.9" y="153.3" width="13.2" height="14.1"/>
	</defs>
	<clipPath id="SVGID_36_">
		<use xlink:href="#SVGID_35_"  style="overflow:visible;"/>
	</clipPath>
	<g class="st17">
		<defs>
			<rect id="SVGID_37_" x="-23.3" y="-197.2" width="298.1" height="555.3"/>
		</defs>
		<clipPath id="SVGID_38_">
			<use xlink:href="#SVGID_37_"  style="overflow:visible;"/>
		</clipPath>
		<g class="st18">
			<g>
				<defs>
					<rect id="SVGID_39_" x="15.8" y="153.2" width="14" height="14.9"/>
				</defs>
				<clipPath id="SVGID_40_">
					<use xlink:href="#SVGID_39_"  style="overflow:visible;"/>
				</clipPath>
				<g class="st19">
					<defs>
						<path id="SVGID_41_" d="M27.4,153.7c-0.5-0.6-1.4-0.6-2,0l-8.9,9.5c-0.1,0.1-0.1,0.2-0.2,0.3l-0.4,3.1c0,0.3,0.2,0.6,0.5,0.7
							c0,0,0.1,0,0.1,0h0.1l2.9-0.5c0.1,0,0.2-0.1,0.3-0.2l8.9-9.5c0.5-0.6,0.5-1.5,0-2.1L27.4,153.7z M27.9,156.4l-8.8,9.3l-2,0.3
							l0.3-2.2l8.8-9.3c0.1-0.1,0.3-0.1,0.4,0c0,0,0,0,0,0l1.3,1.4C28,156.1,28,156.3,27.9,156.4C27.9,156.4,27.9,156.4,27.9,156.4
							L27.9,156.4z"/>
					</defs>
					<clipPath id="SVGID_42_">
						<use xlink:href="#SVGID_41_"  style="overflow:visible;"/>
					</clipPath>
					<g class="st20">
						<defs>
							<rect id="SVGID_43_" x="15.8" y="153.2" width="14" height="14.9"/>
						</defs>
						<clipPath id="SVGID_44_">
							<use xlink:href="#SVGID_43_"  style="overflow:visible;"/>
						</clipPath>
						<rect x="11.3" y="148.7" class="st21" width="22.5" height="23.4"/>
					</g>
				</g>
			</g>
		</g>
	</g>
</g>
<g>
	<defs>
		<path id="SVGID_45_" d="M19.6,154.7c0-0.3-0.2-0.6-0.6-0.6h-3.6c-0.3,0-0.6,0.3-0.6,0.6s0.2,0.6,0.6,0.6h3.6
			C19.4,155.3,19.6,155,19.6,154.7"/>
	</defs>
	<clipPath id="SVGID_46_">
		<use xlink:href="#SVGID_45_"  style="overflow:visible;"/>
	</clipPath>
	<g class="st22">
		<defs>
			<rect id="SVGID_47_" x="-23.3" y="-197.2" width="298.1" height="555.3"/>
		</defs>
		<clipPath id="SVGID_48_">
			<use xlink:href="#SVGID_47_"  style="overflow:visible;"/>
		</clipPath>
		<rect x="10.2" y="149.4" class="st23" width="14" height="10.5"/>
	</g>
</g>
<g>
	<defs>
		<path id="SVGID_49_" d="M19.3,158.4c0-0.3-0.2-0.6-0.6-0.6h-8c-0.3,0-0.6,0.3-0.6,0.6c0,0.3,0.2,0.6,0.6,0.6h8
			C19.1,159,19.3,158.7,19.3,158.4"/>
	</defs>
	<clipPath id="SVGID_50_">
		<use xlink:href="#SVGID_49_"  style="overflow:visible;"/>
	</clipPath>
	<g class="st24">
		<defs>
			<rect id="SVGID_51_" x="-23.3" y="-197.2" width="298.1" height="555.3"/>
		</defs>
		<clipPath id="SVGID_52_">
			<use xlink:href="#SVGID_51_"  style="overflow:visible;"/>
		</clipPath>
		<rect x="5.6" y="153.2" class="st25" width="18.4" height="10.5"/>
	</g>
</g>
<g>
	<defs>
		<path id="SVGID_53_" d="M16,162.1c0-0.3-0.2-0.6-0.6-0.6h-4.7c-0.3,0-0.6,0.3-0.6,0.6c0,0.3,0.2,0.6,0.6,0.6h4.7
			C15.8,162.7,16,162.5,16,162.1"/>
	</defs>
	<clipPath id="SVGID_54_">
		<use xlink:href="#SVGID_53_"  style="overflow:visible;"/>
	</clipPath>
	<g class="st26">
		<defs>
			<rect id="SVGID_55_" x="-23.3" y="-197.2" width="298.1" height="555.3"/>
		</defs>
		<clipPath id="SVGID_56_">
			<use xlink:href="#SVGID_55_"  style="overflow:visible;"/>
		</clipPath>
		<rect x="5.6" y="156.9" class="st27" width="15.1" height="10.5"/>
	</g>
</g>
<g>
	<defs>
		<path id="SVGID_57_" d="M28.2,19.5H6.3c-1,0-1.8,0.8-1.8,1.8c0,1,0.8,1.8,1.8,1.8h21.9c1,0,1.8-0.8,1.8-1.8
			C30,20.3,29.2,19.5,28.2,19.5z M28.2,12.2H6.3c-1,0-1.8,0.8-1.8,1.8s0.8,1.8,1.8,1.8h21.9c1,0,1.8-0.8,1.8-1.8
			S29.2,12.2,28.2,12.2z M6.3,8.5h21.9c1,0,1.8-0.8,1.8-1.8s-0.8-1.8-1.8-1.8H6.3c-1,0-1.8,0.8-1.8,1.8S5.3,8.5,6.3,8.5z"/>
	</defs>
	<clipPath id="SVGID_58_">
		<use xlink:href="#SVGID_57_"  style="overflow:visible;"/>
	</clipPath>
	<g class="st28">
		<defs>
			<rect id="SVGID_59_" x="-622.7" y="-50.8" width="701.1" height="934.8"/>
		</defs>
		<clipPath id="SVGID_60_">
			<use xlink:href="#SVGID_59_"  style="overflow:visible;"/>
		</clipPath>
		<rect x="-0.1" y="0.3" class="st29" width="34.7" height="27.4"/>
	</g>
</g>
</svg>
