<?xml version="1.0" encoding="UTF-8"?>
<svg width="212px" height="212px" viewBox="0 0 212 212" version="1.1" xmlns="http://www.w3.org/2000/svg" xmlns:xlink="http://www.w3.org/1999/xlink">
    <!-- Generator: Sketch 50 (54983) - http://www.bohemiancoding.com/sketch -->
    <title>Oval 2</title>
    <desc>Created with Sketch.</desc>
    <defs>
        <polygon id="path-1" points="0.297621695 0.322083108 55.4846373 0.322083108 55.4846373 55.6251144 0.297621695 55.6251144"></polygon>
        <polygon id="path-3" points="0.000120435043 0.333808842 110.370167 0.333808842 110.370167 33.7154453 0.000120435043 33.7154453"></polygon>
    </defs>
    <g id="-" stroke="none" stroke-width="1" fill="none" fill-rule="evenodd">
        <g id="solución-" transform="translate(-182.000000, -1695.000000)">
            <g id="Oval-2" transform="translate(183.000000, 1696.000000)">
                <circle stroke="#F8F8F8" fill="#F8F8F8" cx="105" cy="105" r="105"></circle>
                <g id="Group-4" transform="translate(44.311927, 51.055046)">
                    <g id="Group-3" transform="translate(33.715596, 0.000000)">
                        <mask id="mask-2" fill="white">
                            <use xlink:href="#path-1"></use>
                        </mask>
                        <g id="Clip-2"></g>
                        <path d="M28.0070982,49.2482445 C16.2970766,49.2482445 6.67402213,39.7411587 6.67402213,27.9151684 C6.67402213,16.2056163 16.1815774,6.58256179 28.0070982,6.58256179 C39.832619,6.58256179 49.3401743,16.0896476 49.3401743,27.9151684 C49.2237361,39.7411587 39.7166503,49.2482445 28.0070982,49.2482445 M28.0070982,0.32166055 C12.702986,0.32166055 0.297621695,12.7274943 0.297621695,28.0316066 C0.297621695,43.3352493 12.702986,55.6251144 27.8911295,55.6251144 C43.0792731,55.6251144 55.4846373,43.2197501 55.4846373,28.0316066 C55.4846373,12.843463 43.1952418,0.32166055 28.0070982,0.32166055 M37.3982153,34.8718818 C38.093558,35.7991619 37.9775893,37.1907863 37.1662779,38.0020977 C36.2389978,38.9298473 34.8473734,38.9298473 33.9200934,38.1180664 L25.8041624,31.2777911 C25.6881937,31.1618225 25.4562563,31.0458538 25.3402876,30.9298851 C24.644945,30.2340729 24.2970389,29.4227615 24.4130076,28.4950119 L24.4130076,28.3790432 L24.4130076,28.1475753 L25.3402876,13.6547744 L25.3402876,13.5388057 C25.4562563,12.3795882 26.4999746,11.4523081 27.6591921,11.4523081 C28.9348478,11.4523081 29.9780966,12.3795882 29.9780966,13.6547744 L30.789408,26.7559509 C30.789408,27.103857 31.0213454,27.5677318 31.2532828,27.7996692 L37.1662779,34.7559131 C37.2822466,34.7559131 37.2822466,34.7559131 37.3982153,34.8718818" id="Fill-1" fill="#009AFF" mask="url(#mask-2)"></path>
                    </g>
                    <g id="Group-6" transform="translate(0.000000, 64.541284)">
                        <mask id="mask-4" fill="white">
                            <use xlink:href="#path-3"></use>
                        </mask>
                        <g id="Clip-5"></g>
                        <path d="M106.179531,1.92036439 C104.084143,1.8030721 99.6604928,4.14844295 98.4965976,4.73490438 C94.1893841,6.84569066 88.3694368,10.2462172 84.4115332,12.9429901 C84.1786599,13.1775746 83.8293499,13.4121592 83.4800399,13.5294515 C81.7339614,14.7023743 79.8714463,15.4056532 77.8924945,15.8748223 C66.6009671,18.3370106 50.1876409,18.5715952 50.1876409,18.5715952 L49.2566191,18.5715952 C48.5579991,18.5715952 47.8593792,18.1029009 47.7429425,17.3991472 C47.6269773,16.578576 48.2086891,15.8748223 49.0232744,15.8748223 L73.4688443,13.5294515 C76.1464161,13.1775746 78.3582412,10.7153864 78.0089312,7.90084636 C77.7760579,5.08630637 75.0984861,2.97599496 72.4213858,3.21010466 L50.6529162,2.97599496 C49.139711,2.97599496 46.8119207,2.6241181 45.4151522,2.15494896 C31.446053,-1.94933131 23.5302459,1.92036439 19.339469,3.67927381 C18.4084471,2.15494896 16.6623686,1.09931839 14.6834168,1.21708554 L5.25440455,1.8030721 C2.11155758,2.03765667 -0.216704177,4.61761209 0.0161691392,7.66626179 L1.52937429,28.6563574 C1.76224761,31.705482 4.43934794,33.9330857 7.58266631,33.6985011 L17.0116786,33.1125145 C18.9906304,32.9952223 20.6202722,31.705482 21.3184207,30.06339 L62.5266269,31.8222994 C67.0667137,32.2914685 71.3739273,31.705482 75.4482675,29.5942208 L76.6121627,29.0082343 L107.692737,10.7153864 C109.205942,9.77704807 110.253872,8.25272322 110.370308,6.4938138 C110.370308,4.50031981 109.205942,2.15494896 106.179531,1.92036439" id="Fill-4" fill="#000000" mask="url(#mask-4)"></path>
                    </g>
                    <path d="M83.3075163,74.1743119 L83.3075163,72.4484438 C83.1916464,71.7579101 83.0757765,71.0678424 82.8440367,70.3773088 L82.8440367,70.2622199 C86.0874555,68.5363517 92.4588924,65.4298822 96.0499209,64.0492809 C97.7875003,63.3587472 99.5250796,63.3587472 101.146789,64.5091707 C99.8726893,64.9695264 98.7144594,65.5445052 97.6716304,66.004861 C93.9647319,67.8458181 87.5937642,71.2980203 84.3498762,73.4842442 C83.8863966,73.8290451 83.5392561,74.059223 83.3075163,74.1743119" id="Fill-9" fill="#000000"></path>
                    <path d="M93.440367,60.5372725 C90.8344997,61.6409712 85.8601854,63.1863282 83.4912587,64.4008885 L81.9516243,65.283758 C81.833154,65.3941726 81.7146836,65.5045872 81.477743,65.5045872 C80.7674008,64.7316852 79.9381086,64.0696448 78.9908257,63.5175719 C81.1223321,62.4138732 86.097126,60.9789308 88.229112,60.0956142 C90.1241574,59.5435414 91.9007325,59.5435414 93.440367,60.5372725" id="Fill-11" fill="#000000"></path>
                </g>
            </g>
        </g>
    </g>
</svg>