<?xml version="1.0" encoding="UTF-8"?>
<svg width="210px" height="210px" viewBox="0 0 210 210" version="1.1" xmlns="http://www.w3.org/2000/svg" xmlns:xlink="http://www.w3.org/1999/xlink">
    <!-- Generator: Sketch 50 (54983) - http://www.bohemiancoding.com/sketch -->
    <title>icon</title>
    <desc>Created with Sketch.</desc>
    <defs>
        <path d="M105,0.0383333333 C47.0103989,0.0383333333 0,46.8 0,104.482778 C0,162.165556 47.0103989,208.927222 105,208.927222 C162.989601,208.927222 210,162.165556 210,104.482778" id="path-1"></path>
    </defs>
    <g id="-" stroke="none" stroke-width="1" fill="none" fill-rule="evenodd">
        <g id="solución-" transform="translate(-976.000000, -1080.000000)">
            <g id="icon" transform="translate(976.000000, 1080.000000)">
                <path d="M210,105 C210,162.683333 162.99016,209.444444 105,209.444444 C47.0098404,209.444444 0,162.683333 0,105 C0,47.3166667 47.0098404,0.555555556 105,0.555555556 C162.99016,0.555555556 210,47.3166667 210,105" id="Fill-2" fill="#F8F8F8"></path>
                <g id="Group-6" stroke-width="1" transform="translate(0.000000, 0.517222)">
                    <mask id="mask-2" fill="white">
                        <use xlink:href="#path-1"></use>
                    </mask>
                    <g id="Clip-5"></g>
                    <path d="M220.862027,217.931111 C220.862027,278.597778 171.420431,327.777778 110.431069,327.777778 C49.4417074,327.777778 0.000111702128,278.597778 0.000111702128,217.931111 C0.000111702128,157.264444 78.609367,115.485556 138.491202,126.992222 C218.146548,142.298889 224.482851,48.6588889 278.792984,50.46 C309.158649,51.4666667 220.862027,185.331667 220.862027,217.931111" id="Fill-4" fill="#0081FC" mask="url(#mask-2)"></path>
                </g>
                <g id="Group-19" stroke-width="1" transform="translate(29.042553, 50.517222)">
                    <path d="M96.6946117,47.6213333 C87.4026702,63.6302222 64.1725372,63.6302222 54.8805957,47.6213333 C45.5886543,31.6124444 57.2034415,11.6013333 75.7873245,11.6013333 L75.787883,11.6013333 C94.371766,11.6013333 105.986553,31.6124444 96.6946117,47.6213333 M75.7873245,0.383555556 C48.5225106,0.383555556 31.4817926,29.7424444 45.1139202,53.2302222 C45.1139202,53.2302222 72.8998245,97.5485556 75.7873245,97.5485556 C78.6748245,97.5485556 106.461287,53.2302222 106.461287,53.2302222 C120.093973,29.743 103.052697,0.383555556 75.7873245,0.383555556" id="Fill-7" fill="#000000"></path>
                    <path d="M75.7878271,7.7545 C54.2270824,7.7545 40.7513378,30.9717222 51.5317101,49.5445 C62.312641,68.1178333 89.2630133,68.1178333 100.043386,49.5445 C110.823758,30.9717222 97.3485718,7.7545 75.7878271,7.7545" id="Fill-9" fill="#000000"></path>
                    <path d="M153.217061,27.9997222 C149.378418,34.6130556 139.782646,34.6130556 135.944561,27.9997222 C132.106476,21.3869444 136.904082,13.1208333 144.580811,13.1208333 C152.25754,13.1208333 157.055705,21.3869444 153.217061,27.9997222 M144.580811,8.48694444 C133.317886,8.48694444 126.278976,20.6147222 131.910439,30.3163889 C131.910439,30.3163889 143.387832,48.6236111 144.580811,48.6236111 C145.773231,48.6236111 157.251184,30.3169444 157.251184,30.3169444 C162.882646,20.6147222 155.843737,8.48694444 144.580811,8.48694444" id="Fill-11" fill="#0081FC"></path>
                    <path d="M144.580923,11.5316667 C135.674354,11.5316667 130.108237,21.1222222 134.561242,28.7944444 C139.014247,36.4666667 150.14704,36.4666667 154.600045,28.7944444 C159.053609,21.1222222 153.486934,11.5316667 144.580923,11.5316667" id="Fill-13" fill="#0081FC"></path>
                    <path d="M12.2395372,38.2172778 C10.3026223,41.5539444 5.46089362,41.5539444 3.52453723,38.2172778 C1.58762234,34.8806111 4.00876596,30.7095 7.88203723,30.7095 C11.7553085,30.7095 14.1764521,34.8806111 12.2395372,38.2172778 M7.88203723,28.3717222 C2.19863298,28.3717222 -1.35293617,34.4906111 1.48876596,39.3861667 C1.48876596,39.3861667 7.27996277,48.6233889 7.88203723,48.6233889 C8.48355319,48.6233889 14.2753085,39.3861667 14.2753085,39.3861667 C17.1164521,34.4906111 13.564883,28.3717222 7.88203723,28.3717222" id="Fill-15" fill="#0081FC"></path>
                    <path d="M2.82623138,38.6181111 C5.07311968,42.4892222 10.6906197,42.4892222 12.937508,38.6181111 C15.1843963,34.747 12.3756463,29.9081111 7.88186968,29.9081111 C3.38809309,29.9081111 0.579343085,34.747 2.82623138,38.6181111 Z" id="Fill-17" fill="#0081FC"></path>
                </g>
            </g>
        </g>
    </g>
</svg>