<?xml version="1.0" encoding="utf-8"?>
<!-- Generator: Adobe Illustrator 21.1.0, SVG Export Plug-In . SVG Version: 6.00 Build 0)  -->
<svg version="1.1" id="Capa_1" xmlns="http://www.w3.org/2000/svg" xmlns:xlink="http://www.w3.org/1999/xlink" x="0px" y="0px"
	 viewBox="0 0 356 116" style="enable-background:new 0 0 356 116;" xml:space="preserve">
<style type="text/css">
	.st0{fill:none;}
	.st1{fill:#262626;}
	.st2{fill:#333333;}
	.st3{fill:#212121;}
	.st4{opacity:0.6;fill:#BABBBC;}
	.st5{opacity:0.2;}
	.st6{fill:#262624;}
	.st7{fill:#363635;}
	.st8{fill:#464956;}
	.st9{fill:#282828;}
	.st10{fill:#FFFFFF;}
	.st11{fill:#1A1A1A;}
	.st12{fill:#BD3645;}
	.st13{fill:#474747;}
	.st14{fill:#2B3D52;}
	.st15{fill:#4477DD;}
	.st16{fill:#666666;}
	.st17{opacity:0.6;}
</style>
<g>
	<g>
		<line class="st0" x1="295.3" y1="-3" x2="293.8" y2="-3"/>
		<line class="st0" x1="295.3" y1="-3" x2="293.8" y2="-3"/>
		<polygon class="st1" points="126.3,74.6 131.8,84.9 134.6,90 187.5,90 187.5,74.6 		"/>
		<g>
			<g>
				<path class="st1" d="M19.4,70.4v4.5c0,1.3,1.1,2.4,2.4,2.4h163.3c1.3,0,2.4-1.1,2.4-2.4v-5.3"/>
			</g>
		</g>
		<g>
			<g>
				<path class="st2" d="M10,70.4v4.5c0,1.3,1.1,2.4,2.4,2.4H13c1.3,0,2.4-1.1,2.4-2.4v-5.3"/>
			</g>
		</g>
		<polygon class="st1" points="228.5,76.3 237,76.3 240.8,71 224.7,71 		"/>
		<path class="st1" d="M219.3,70.8h24.2l-1.2,2.3h-21.8L219.3,70.8z"/>
		<g>
			<path class="st3" d="M268.8,61.3V13.7c0-3.8-3.1-6.9-6.9-6.9H19.3c-3.8,0-6.9,3.1-6.9,6.9v47.6c0,3.8,3.1,6.9,6.9,6.9H262
				C265.8,68.2,268.8,65.1,268.8,61.3z"/>
		</g>
		<g>
			<g>
				<g>
					<path class="st2" d="M150,86.9c0,3.1,2.5,5.5,5.5,5.5h29c3.1,0,5.5-2.5,5.5-5.5v-5.1c0-3.1-2.5-5.5-5.5-5.5h-29
						c-3.1,0-5.5,2.5-5.5,5.5V86.9z"/>
				</g>
				<path class="st4" d="M150,88v1.8c0,1.5,1.2,2.7,2.7,2.7h34.7c1.5,0,2.7-1.2,2.7-2.7V88c0,1.5-1.2,2.7-2.7,2.7h-34.7
					C151.2,90.7,150,89.5,150,88z"/>
			</g>
		</g>
		<g class="st5">
		</g>
		<polygon class="st1" points="134.9,85.5 138.8,87.9 141.9,82.9 144.5,78.6 149.3,70.8 145.3,68.4 141,75.5 138.5,79.6 		"/>
		<polygon class="st1" points="95,85.5 99,87.9 101.6,83.7 104.3,79.3 108.2,72.9 112.3,79.7 115.6,85.1 117.4,87.9 121.3,85.5 
			118.6,81.1 115.7,76.3 110.8,68.4 108.2,70 105.5,68.4 100.8,76 98.3,80.1 		"/>
		<polygon class="st1" points="26,70.8 31.1,79.1 34.3,84.4 36.5,87.9 40.4,85.5 37.4,80.6 34.5,75.9 29.9,68.4 		"/>
		<polygon class="st1" points="54,85.5 57.9,87.9 60.6,83.5 63.3,79.2 67.7,72 72,79 75.3,84.3 77.5,87.9 81.5,85.5 78.4,80.5 
			75.5,75.8 71,68.4 67.7,70.4 64.5,68.4 59.9,75.9 57.3,80 		"/>
		<g>
			<path class="st1" d="M69.7,92.1c0,0.7,0,1.3,0.1,2l4.3,0.1c-0.1-0.6-0.1-1.3-0.1-2c0-1.1,0.2-2.1,0.4-3.1
				c1.6-6.1,7.2-10.6,13.8-10.4c6.6,0.2,12,4.9,13.2,11.1c0.2,1,0.3,2.1,0.3,3.1c0,0.7-0.1,1.3-0.2,2l4.3,0.1c0.1-0.6,0.1-1.3,0.2-2
				c0-1.1,0-2.1-0.2-3.1c-1.3-8.5-8.6-15.2-17.5-15.4C79.3,74.3,71.7,80.6,70,89C69.8,90,69.7,91.1,69.7,92.1z"/>
			<g>
				<g>
					<path class="st6" d="M72.1,92.2c0,0.7,0,1.3,0.1,2l3.7,0.1c-0.1-0.6-0.1-1.3-0.1-2c0.2-6.6,5.7-11.9,12.3-11.7
						c6.6,0.2,11.9,5.7,11.7,12.3c0,0.7-0.1,1.3-0.2,2l3.7,0.1c0.1-0.6,0.2-1.3,0.2-2c0.1-5-2.1-9.5-5.7-12.5
						c-2.6-2.1-5.9-3.5-9.6-3.6c-3.6-0.1-7,1.1-9.7,3.1C74.7,82.8,72.2,87.2,72.1,92.2z"/>
				</g>
			</g>
			<g>
				
					<ellipse transform="matrix(2.429075e-02 -0.9997 0.9997 2.429075e-02 -6.9086 178.0853)" class="st7" cx="87.8" cy="92.6" rx="13.9" ry="13.9"/>
			</g>
			<path class="st8" d="M80.1,92.4c0,0.8,0.1,1.5,0.3,2.2"/>
		</g>
		<g>
			<path class="st1" d="M110.3,92.1c0,0.7,0,1.3,0.1,2l4.3,0.1c-0.1-0.6-0.1-1.3-0.1-2c0-1.1,0.2-2.1,0.4-3.1
				c1.6-6.1,7.2-10.6,13.8-10.4c6.6,0.2,12,4.9,13.2,11.1c0.2,1,0.3,2.1,0.3,3.1c0,0.7-0.1,1.3-0.2,2l4.3,0.1c0.1-0.6,0.1-1.3,0.2-2
				c0-1.1,0-2.1-0.2-3.1c-1.3-8.5-8.6-15.2-17.5-15.4c-8.9-0.2-16.5,6.1-18.2,14.5C110.4,90,110.3,91.1,110.3,92.1z"/>
			<g>
				<g>
					<path class="st6" d="M112.7,92.2c0,0.7,0,1.3,0.1,2l3.7,0.1c-0.1-0.6-0.1-1.3-0.1-2c0.2-6.6,5.7-11.9,12.3-11.7
						c6.6,0.2,11.9,5.7,11.7,12.3c0,0.7-0.1,1.3-0.2,2l3.7,0.1c0.1-0.6,0.2-1.3,0.2-2c0.1-5-2.1-9.5-5.7-12.5
						c-2.6-2.1-5.9-3.5-9.6-3.6c-3.6-0.1-7,1.1-9.7,3.1C115.3,82.8,112.8,87.2,112.7,92.2z"/>
				</g>
			</g>
			<g>
				
					<ellipse transform="matrix(2.429075e-02 -0.9997 0.9997 2.429075e-02 32.7185 218.6869)" class="st7" cx="128.4" cy="92.6" rx="13.9" ry="13.9"/>
			</g>
		</g>
		<g>
			<path class="st1" d="M29,92.1c0,0.7,0,1.3,0.1,2l4.3,0.1c-0.1-0.6-0.1-1.3-0.1-2c0-1.1,0.2-2.1,0.4-3.1
				c1.6-6.1,7.2-10.6,13.8-10.4c6.6,0.2,12,4.9,13.2,11.1c0.2,1,0.3,2.1,0.3,3.1c0,0.7-0.1,1.3-0.2,2l4.3,0.1c0.1-0.6,0.1-1.3,0.2-2
				c0-1.1,0-2.1-0.2-3.1c-1.3-8.5-8.6-15.2-17.5-15.4c-8.9-0.2-16.5,6.1-18.2,14.5C29.2,90,29.1,91.1,29,92.1z"/>
			<g>
				<g>
					<path class="st6" d="M31.5,92.2c0,0.7,0,1.3,0.1,2l3.7,0.1c-0.1-0.6-0.1-1.3-0.1-2c0.2-6.6,5.7-11.9,12.3-11.7
						c6.6,0.2,11.9,5.7,11.7,12.3c0,0.7-0.1,1.3-0.2,2l3.7,0.1c0.1-0.6,0.2-1.3,0.2-2c0.1-5-2.1-9.5-5.7-12.5
						c-2.6-2.1-5.9-3.5-9.6-3.6c-3.6-0.1-7,1.1-9.7,3.1C34.1,82.8,31.6,87.2,31.5,92.2z"/>
				</g>
			</g>
			<g>
				
					<ellipse transform="matrix(2.429075e-02 -0.9997 0.9997 2.429075e-02 -46.5357 137.4836)" class="st7" cx="47.2" cy="92.6" rx="13.9" ry="13.9"/>
			</g>
			<path class="st8" d="M44.5,99.7"/>
			<path class="st8" d="M49.2,99.8"/>
		</g>
		<path class="st1" d="M23,73.5h162.7v-2.2H23V73.5z"/>
		<rect x="194.4" y="79" class="st1" width="18.2" height="6.1"/>
		<path class="st3" d="M280.8,33.2V12.3h2.6c0,0,41.8,1,41.7,14.2c0,8-15.9,9.5-15.9,9.5L280.8,33.2z"/>
		<path class="st2" d="M280.8,21.1v11.3h45.8c-1.5-7.5-1.2-11.3-7.7-11.3C305.3,21.1,323.9,21.1,280.8,21.1z"/>
		<path class="st9" d="M280.8,24.2V34h42.6c-1.2-6.5-0.5-9.8-6.5-9.8C303.4,24.2,320.3,24.2,280.8,24.2z"/>
		<path class="st3" d="M291.6,72.5h-10.8V26.4c0.9,0,10,0,10.8,0V72.5z"/>
		<rect x="320.2" y="70.9" class="st10" width="9.7" height="5.9"/>
		<polyline class="st1" points="271,80.1 241.9,80.1 239.4,75.9 210.7,75.9 207.6,80.1 207.6,94.5 332.7,94.5 335.8,80.1 		"/>
		<polygon class="st7" points="248.7,92.3 242.9,92.3 241.4,88.9 241.4,80.1 248.7,80.1 		"/>
		<g>
			<path class="st11" d="M335.4,67.1c1.7,0,3.1,1.4,3.1,3.1V75c0,1.7-1.4,3.1-3.1,3.1h-1.2c-1.7,0-4.5-0.2-6.2-0.4l-6.6-1
				c-1.7-0.2-3.1-1.9-3.1-3.6v-2.9c0-1.7,1.4-3.1,3.1-3.1H335.4z"/>
		</g>
		<g>
			<g>
				<path class="st3" d="M334.5,36l-40.6,1.3c-2.8,0.1-5,2.4-5,5.2v34.5c0,2.8,2.3,4.9,5,4.7l40-2.4c2.8-0.2,5-2.6,5-5.3v-4.6
					c0-2.8-0.6-5.9-1.3-7c-0.7-1.1-1.6-4.3-1.9-7l-1.4-11.6c-0.6-3.8,0.2-3.3,1.5-4.2l-0.6-2.9C335.5,36.3,334.8,36,334.5,36z
					 M309.3,44.3c0-2.8,2.3-5,5-5h5.1c2.8,0,5.4,2,5.8,4.4c0.4,2.4,1.2,6.6,1.7,9.3l0.2,0.9c0.5,2.7-0.2,4.7-1.5,4.5
					c-1.3-0.2-4.6-0.8-7.4-1.3l-4-0.7c-2.7-0.5-4.9-3.1-4.9-5.9V44.3z M292,44.3c0-2.8,2.3-5,5-5h1.4c2.8,0,5,2.3,5,5v5.3
					c0,2.8-0.5,4.9-1.2,4.8c-0.7-0.1-3.2-0.6-5.7-1s-4.5-3-4.5-5.8V44.3z"/>
			</g>
		</g>
		<path class="st7" d="M280.5,71.2v1.3H305c4.5,0,8.7,2.4,11.9,5.6c0.6,0.6,1.2,1.3,1.7,2h2.2c-0.8-1.2-1.7-2.3-2.7-3.4
			c-3.6-3.6-8.2-5.5-13.2-5.5H280.5z"/>
		<polygon class="st7" points="297.6,80.2 285.3,80.2 285.3,75.5 309.4,78.7 317.3,78.1 337.7,78.1 337.7,80.2 322.5,80.2 		"/>
		
			<image style="overflow:visible;" width="160" height="62" xlink:href="B9114AB07FCF97A9.png"  transform="matrix(0.24 0 0 0.24 284.36 72.28)">
		</image>
		<polygon class="st7" points="207.6,91 207.6,94.5 314.1,94.5 337.3,91 		"/>
		<path class="st7" d="M284.1,92.6c0,0.5,0,1,0.1,1.5c0,0.2,0,0.3,0,0.5h4.3c0-0.2-0.1-0.5-0.1-0.7c0-0.4-0.1-0.8-0.1-1.3
			c0-1.1,0.1-2.1,0.4-3.1c0.9-4,3.6-7.4,7.2-9.2h-7c-2.4,2.5-4,5.7-4.6,9.2C284.2,90.5,284.1,91.5,284.1,92.6z"/>
		<path class="st12" d="M280.8,72.8"/>
		<g>
			<path class="st13" d="M336.9,80.2c1.7,0,3.1,1.4,3.1,3.1v9.3c0,1.7-1.4,3.1-3.1,3.1h-24.4c-1.7,0-3.1-1.4-3.1-3.1v-9.3
				c0-1.7,1.4-3.1,3.1-3.1H336.9z"/>
		</g>
		<path class="st7" d="M324.6,90.4c-0.7-3.7-2.1-7.7-4.6-10.3h-4.8c3.8,1.9,3.8,6.1,4.8,10.3c0.2,1.1,0.4,2.2,0.4,3.3
			c0,0.5-2.6,0.9-2.6,1.3c0,0.2-0.1,0.5-0.1,0.7h7.1c0-0.2,0-0.4,0.1-0.5c0-0.5,0.1-1,0.1-1.5C324.9,92.6,324.8,91.5,324.6,90.4z"/>
		<path class="st14" d="M332,78.7"/>
		<path class="st1" d="M286.5,92.1c0,0.7,0,1.3,0.1,2l4.3,0.1c-0.1-0.6-0.1-1.3-0.1-2c0-1.1,0.2-2.1,0.4-3.1
			c1.6-6.1,7.2-10.6,13.8-10.4c6.6,0.2,12,4.9,13.2,11.1c0.2,1,0.3,2.1,0.3,3.1c0,0.7-0.1,1.3-0.2,2l4.3,0.1c0.1-0.6,0.1-1.3,0.2-2
			c0-1.1,0-2.1-0.2-3.1c-1.3-8.5-8.6-15.2-17.5-15.4c-8.9-0.2-16.5,6.1-18.2,14.5C286.6,90,286.5,91.1,286.5,92.1z"/>
		<path class="st6" d="M288.9,92.2c0,0.7,0,1.3,0.1,2l3.7,0.1c-0.1-0.6-0.1-1.3-0.1-2c0.2-6.6,5.7-11.9,12.3-11.7
			c6.6,0.2,11.9,5.7,11.7,12.3c0,0.7-0.1,1.3-0.2,2l3.7,0.1c0.1-0.6,0.2-1.3,0.2-2c0.1-5-2.1-9.5-5.7-12.5c-2.6-2.1-5.9-3.5-9.6-3.6
			c-3.6-0.1-7,1.1-9.7,3.1C291.5,82.8,289,87.2,288.9,92.2z"/>
		
			<ellipse transform="matrix(2.429075e-02 -0.9997 0.9997 2.429075e-02 204.6491 394.8459)" class="st7" cx="304.6" cy="92.6" rx="13.9" ry="13.9"/>
		<path class="st1" d="M197.1,92.1c0,0.7,0,1.3,0.1,2l4.3,0.1c-0.1-0.6-0.1-1.3-0.1-2c0-1.1,0.2-2.1,0.4-3.1
			c1.6-6.1,7.2-10.6,13.8-10.4c6.6,0.2,12,4.9,13.2,11.1c0.2,1,0.3,2.1,0.3,3.1c0,0.7-0.1,1.3-0.2,2l4.3,0.1c0.1-0.6,0.1-1.3,0.2-2
			c0-1.1,0-2.1-0.2-3.1c-1.3-8.5-8.6-15.2-17.5-15.4c-8.9-0.2-16.5,6.1-18.2,14.5C197.3,90,197.2,91.1,197.1,92.1z"/>
		<path class="st6" d="M199.6,92.2c0,0.7,0,1.3,0.1,2l3.7,0.1c-0.1-0.6-0.1-1.3-0.1-2c0.2-6.6,5.7-11.9,12.3-11.7
			c6.6,0.2,11.9,5.7,11.7,12.3c0,0.7-0.1,1.3-0.2,2l3.7,0.1c0.1-0.6,0.2-1.3,0.2-2c0.1-5-2.1-9.5-5.7-12.5c-2.6-2.1-5.9-3.5-9.6-3.6
			c-3.6-0.1-7,1.1-9.7,3.1C202.2,82.8,199.7,87.2,199.6,92.2z"/>
		
			<ellipse transform="matrix(2.429075e-02 -0.9997 0.9997 2.429075e-02 117.4612 305.5137)" class="st7" cx="215.2" cy="92.6" rx="13.9" ry="13.9"/>
		<path class="st3" d="M280.8,24.9c0-0.3,0.3-0.6,0.6-0.6c42.4,0,33.1,0,46.6,0c6.3,0,6.4,8,7.8,15.2c0.1,0.4-0.5-0.9-0.9-0.9
			l-54.1-1.3c-0.3,0,0-2,0-2.3V24.9z"/>
		<g>
			<g>
				<path class="st2" d="M245.3,86.9c0,3.1,2.5,5.5,5.5,5.5h24.4c3.1,0,5.5-2.5,5.5-5.5v-5.1c0-3.1-2.5-5.5-5.5-5.5h-24.4
					c-3.1,0-5.5,2.5-5.5,5.5V86.9z"/>
			</g>
			<path class="st4" d="M245.3,88v1.8c0,1.5,1.2,2.7,2.7,2.7h30.1c1.5,0,2.7-1.2,2.7-2.7V88c0,1.5-1.2,2.7-2.7,2.7H248
				C246.5,90.7,245.3,89.5,245.3,88z"/>
		</g>
		<rect x="194.4" y="76.9" class="st1" width="2.7" height="8.3"/>
		<path class="st15" d="M11.7,71.2h257.2v1.2H11.7V71.2z"/>
		<path class="st11" d="M12.5,71.3h256.4V59.2H12.5V71.3z"/>
	</g>
	<path class="st16" d="M63.6,23.5c-0.1-0.1-0.3-0.2-0.4-0.2c-0.2,0-0.3,0.1-0.4,0.2c-0.1,0.1-0.2,0.3-0.2,0.4c0,0,0,0,0,0
		c0-0.2,0.1-0.3,0.2-0.4c0.1-0.1,0.3-0.2,0.4-0.2C63.3,23.3,63.5,23.4,63.6,23.5c0.1,0.1,0.2,0.3,0.2,0.4c0,0,0,0,0,0
		C63.8,23.7,63.7,23.6,63.6,23.5z"/>
	<g class="st17">
		<path class="st10" d="M108.6,38.2h-2.4v-7.9h2.4V38.2z"/>
		<path class="st10" d="M122.9,40.9c-0.2-0.2-0.4-0.3-0.7-0.3c-0.3,0-0.5,0.1-0.7,0.3c-0.2,0.2-0.3,0.4-0.3,0.7c0,0,0,0,0,0
			c0-0.3,0.1-0.5,0.3-0.7c0.2-0.2,0.4-0.3,0.7-0.3C122.5,40.6,122.7,40.7,122.9,40.9c0.2,0.2,0.3,0.4,0.3,0.7c0,0,0,0,0,0
			C123.2,41.3,123.1,41,122.9,40.9z"/>
		<path class="st10" d="M108.1,40.9c-0.2-0.2-0.4-0.3-0.7-0.3s-0.5,0.1-0.7,0.3c-0.2,0.2-0.3,0.4-0.3,0.7c0,0,0,0,0,0
			c0-0.3,0.1-0.5,0.3-0.7c0.2-0.2,0.4-0.3,0.7-0.3S107.9,40.7,108.1,40.9c0.2,0.2,0.3,0.4,0.3,0.7c0,0,0,0,0,0
			C108.4,41.3,108.3,41,108.1,40.9z"/>
		<path class="st10" d="M114.5,40.9c-0.2-0.2-0.4-0.3-0.7-0.3s-0.5,0.1-0.7,0.3c-0.2,0.2-0.3,0.4-0.3,0.7c0,0,0,0,0,0
			c0-0.3,0.1-0.5,0.3-0.7c0.2-0.2,0.4-0.3,0.7-0.3S114.4,40.7,114.5,40.9c0.2,0.2,0.3,0.4,0.3,0.7c0,0,0,0,0,0
			C114.8,41.3,114.7,41,114.5,40.9z"/>
		<path class="st10" d="M123.8,40c-0.4-0.4-1-0.6-1.6-0.6s-1.1,0.2-1.6,0.6c-0.1,0.1-0.2,0.2-0.2,0.3h-4.7c-0.1-0.1-0.1-0.2-0.2-0.3
			c-0.4-0.4-1-0.6-1.6-0.6s-1.1,0.2-1.6,0.6c-0.1,0.1-0.2,0.2-0.2,0.3h-2.9c-0.1-0.1-0.1-0.2-0.2-0.3c-0.4-0.4-1-0.6-1.6-0.6
			c-0.6,0-1.1,0.2-1.6,0.6c-0.4,0.4-0.6,1-0.6,1.6c0,0.7,0.2,1.2,0.6,1.6c0.4,0.4,1,0.6,1.6,0.6c0.6,0,1.1-0.2,1.6-0.6
			c0.3-0.3,0.5-0.6,0.6-1h2.2c0.1,0.4,0.3,0.7,0.6,1c0.4,0.4,1,0.6,1.6,0.6s1.1-0.2,1.6-0.6c0.3-0.3,0.5-0.6,0.6-1h4.1
			c0.1,0.4,0.3,0.7,0.6,1c0.4,0.4,1,0.6,1.6,0.6c0.6,0,1.1-0.2,1.6-0.6c0.4-0.4,0.6-1,0.6-1.6C124.4,40.9,124.2,40.4,123.8,40z
			 M108.4,41.6c0,0.3-0.1,0.6-0.3,0.7c-0.2,0.2-0.4,0.3-0.7,0.3s-0.5-0.1-0.7-0.3c-0.2-0.2-0.3-0.4-0.3-0.7c0,0,0,0,0,0c0,0,0,0,0,0
			c0-0.3,0.1-0.5,0.3-0.7c0.2-0.2,0.4-0.3,0.7-0.3s0.5,0.1,0.7,0.3C108.3,41,108.4,41.3,108.4,41.6
			C108.4,41.6,108.4,41.6,108.4,41.6C108.4,41.6,108.4,41.6,108.4,41.6z M114.8,41.6c0,0.3-0.1,0.6-0.3,0.7
			c-0.2,0.2-0.4,0.3-0.7,0.3s-0.5-0.1-0.7-0.3c-0.2-0.2-0.3-0.4-0.3-0.7c0,0,0,0,0,0c0,0,0,0,0,0c0-0.3,0.1-0.5,0.3-0.7
			c0.2-0.2,0.4-0.3,0.7-0.3s0.5,0.1,0.7,0.3S114.8,41.3,114.8,41.6C114.8,41.6,114.8,41.6,114.8,41.6
			C114.8,41.6,114.8,41.6,114.8,41.6z M123.2,41.6c0,0.3-0.1,0.6-0.3,0.7c-0.2,0.2-0.4,0.3-0.7,0.3c-0.3,0-0.5-0.1-0.7-0.3
			c-0.2-0.2-0.3-0.4-0.3-0.7c0,0,0,0,0,0c0,0,0,0,0,0c0-0.3,0.1-0.5,0.3-0.7c0.2-0.2,0.4-0.3,0.7-0.3c0.3,0,0.5,0.1,0.7,0.3
			C123.1,41,123.2,41.3,123.2,41.6C123.2,41.6,123.2,41.6,123.2,41.6C123.2,41.6,123.2,41.6,123.2,41.6z"/>
		<path class="st10" d="M113.9,42.6c-0.3,0-0.5-0.1-0.7-0.3c-0.2-0.2-0.3-0.4-0.3-0.7c0,0,0,0,0,0c0,0.3,0.1,0.5,0.3,0.7
			C113.4,42.5,113.6,42.6,113.9,42.6c0.3,0,0.5-0.1,0.7-0.3c0.2-0.2,0.3-0.4,0.3-0.7c0,0,0,0,0,0c0,0.3-0.1,0.5-0.3,0.7
			C114.4,42.5,114.1,42.6,113.9,42.6z"/>
		<path class="st10" d="M107.4,42.6c-0.3,0-0.5-0.1-0.7-0.3c-0.2-0.2-0.3-0.4-0.3-0.7c0,0,0,0,0,0c0,0.3,0.1,0.5,0.3,0.7
			C106.9,42.5,107.1,42.6,107.4,42.6c0.3,0,0.5-0.1,0.7-0.3c0.2-0.2,0.3-0.4,0.3-0.7c0,0,0,0,0,0c0,0.3-0.1,0.5-0.3,0.7
			C107.9,42.5,107.7,42.6,107.4,42.6z"/>
		<path class="st10" d="M122.2,42.6c-0.3,0-0.5-0.1-0.7-0.3c-0.2-0.2-0.3-0.4-0.3-0.7c0,0,0,0,0,0c0,0.3,0.1,0.5,0.3,0.7
			C121.7,42.5,122,42.6,122.2,42.6c0.3,0,0.5-0.1,0.7-0.3c0.2-0.2,0.3-0.4,0.3-0.7c0,0,0,0,0,0c0,0.3-0.1,0.5-0.3,0.7
			C122.7,42.5,122.5,42.6,122.2,42.6z"/>
		<path class="st10" d="M129.2,40.9c-0.2-0.2-0.4-0.3-0.7-0.3s-0.5,0.1-0.7,0.3c-0.2,0.2-0.3,0.4-0.3,0.7c0,0,0,0,0,0
			c0-0.3,0.1-0.5,0.3-0.7c0.2-0.2,0.4-0.3,0.7-0.3S129,40.7,129.2,40.9c0.2,0.2,0.3,0.4,0.3,0.7c0,0,0,0,0,0
			C129.5,41.3,129.4,41,129.2,40.9z"/>
		<path class="st10" d="M137.5,40.9c-0.2-0.2-0.4-0.3-0.7-0.3c-0.3,0-0.5,0.1-0.7,0.3c-0.2,0.2-0.3,0.4-0.3,0.7c0,0,0,0,0,0
			c0-0.3,0.1-0.5,0.3-0.7c0.2-0.2,0.4-0.3,0.7-0.3C137.1,40.6,137.3,40.7,137.5,40.9c0.2,0.2,0.3,0.4,0.3,0.7c0,0,0,0,0,0
			C137.8,41.3,137.7,41,137.5,40.9z"/>
		<path class="st10" d="M138.4,40c-0.4-0.4-1-0.6-1.6-0.6c-0.6,0-1.1,0.2-1.6,0.6c-0.1,0.1-0.2,0.2-0.2,0.3h-4.7
			c-0.1-0.1-0.1-0.2-0.2-0.3c-0.4-0.4-1-0.6-1.6-0.6c-0.6,0-1.1,0.2-1.6,0.6c-0.4,0.4-0.6,1-0.6,1.6c0,0.7,0.2,1.2,0.6,1.6
			c0.4,0.4,1,0.6,1.6,0.6c0.6,0,1.1-0.2,1.6-0.6c0.3-0.3,0.5-0.6,0.6-1h4.1c0.1,0.4,0.3,0.7,0.6,1c0.4,0.4,1,0.6,1.6,0.6
			c0.6,0,1.1-0.2,1.6-0.6c0.4-0.4,0.6-1,0.6-1.6C139,40.9,138.8,40.4,138.4,40z M129.5,41.6c0,0.3-0.1,0.6-0.3,0.7
			c-0.2,0.2-0.4,0.3-0.7,0.3s-0.5-0.1-0.7-0.3c-0.2-0.2-0.3-0.4-0.3-0.7c0,0,0,0,0,0c0,0,0,0,0,0c0-0.3,0.1-0.5,0.3-0.7
			c0.2-0.2,0.4-0.3,0.7-0.3s0.5,0.1,0.7,0.3S129.5,41.3,129.5,41.6C129.5,41.6,129.5,41.6,129.5,41.6
			C129.5,41.6,129.5,41.6,129.5,41.6z M137.8,41.6c0,0.3-0.1,0.6-0.3,0.7c-0.2,0.2-0.4,0.3-0.7,0.3c-0.3,0-0.5-0.1-0.7-0.3
			c-0.2-0.2-0.3-0.4-0.3-0.7c0,0,0,0,0,0c0,0,0,0,0,0c0-0.3,0.1-0.5,0.3-0.7c0.2-0.2,0.4-0.3,0.7-0.3c0.3,0,0.5,0.1,0.7,0.3
			C137.7,41,137.8,41.3,137.8,41.6C137.8,41.6,137.8,41.6,137.8,41.6C137.8,41.6,137.8,41.6,137.8,41.6z"/>
		<path class="st10" d="M112.7,30.7c0.5-0.1,1.3-0.3,2.2-0.4c0.9-0.1,1.9-0.2,3.1-0.2c1,0,1.9,0.1,2.6,0.4c0.7,0.3,1.2,0.7,1.7,1.2
			c0.4,0.5,0.7,1.2,0.9,1.9s0.3,1.6,0.3,2.5v2.1H121v-1.6c0-0.8-0.1-1.5-0.2-2.1c-0.1-0.6-0.3-1-0.6-1.4c-0.3-0.4-0.6-0.6-1-0.8
			s-1-0.2-1.6-0.2c-0.2,0-0.5,0-0.8,0s-0.5,0-0.8,0.1c-0.2,0-0.5,0.1-0.7,0.1c-0.2,0-0.3,0.1-0.4,0.1v5.9h-2.4V30.7z"/>
		<path class="st10" d="M127.3,30.7c0.5-0.1,1.3-0.3,2.2-0.4c0.9-0.1,1.9-0.2,3.1-0.2c1,0,1.9,0.1,2.6,0.4c0.7,0.3,1.2,0.7,1.7,1.2
			s0.7,1.2,0.9,1.9c0.2,0.8,0.3,1.6,0.3,2.5v2.1h-2.4v-1.6c0-0.8-0.1-1.5-0.2-2.1s-0.3-1-0.6-1.4c-0.3-0.4-0.6-0.6-1-0.8
			c-0.4-0.2-1-0.2-1.6-0.2c-0.3,0-0.5,0-0.8,0s-0.5,0-0.8,0.1s-0.5,0.1-0.7,0.1c-0.2,0-0.3,0.1-0.4,0.1v5.9h-2.4L127.3,30.7
			L127.3,30.7z"/>
		<path class="st10" d="M146.8,30c0.2,0,0.4,0,0.7,0s0.5,0.1,0.8,0.1c0.3,0,0.5,0.1,0.7,0.1c0.2,0,0.4,0.1,0.5,0.1l-0.4,2.1
			c-0.2-0.1-0.5-0.1-0.9-0.2c-0.4-0.1-1-0.1-1.7-0.1c-0.4,0-0.9,0-1.3,0.1c-0.4,0.1-0.7,0.2-0.9,0.2v11.1h-2.4V30.9
			c0.6-0.2,1.3-0.4,2.1-0.6C144.8,30.1,145.8,30,146.8,30z"/>
		<path class="st10" d="M163.4,36.9c0,1.1-0.1,2-0.5,2.9c-0.3,0.8-0.7,1.6-1.3,2.2c-0.6,0.6-1.2,1.1-2,1.4c-0.8,0.3-1.6,0.5-2.5,0.5
			s-1.7-0.2-2.5-0.5c-0.8-0.3-1.4-0.8-2-1.4c-0.6-0.6-1-1.3-1.3-2.2S151,38,151,36.9c0-1,0.1-2,0.5-2.8c0.3-0.9,0.7-1.6,1.3-2.2
			c0.6-0.6,1.2-1.1,2-1.4c0.8-0.3,1.6-0.5,2.5-0.5s1.7,0.2,2.5,0.5s1.4,0.8,2,1.4c0.6,0.6,1,1.3,1.3,2.2
			C163.3,34.9,163.4,35.9,163.4,36.9z M161,36.9c0-1.5-0.3-2.7-1-3.6c-0.7-0.9-1.6-1.3-2.7-1.3s-2.1,0.4-2.7,1.3
			c-0.7,0.9-1,2.1-1,3.6c0,1.5,0.3,2.7,1,3.6c0.7,0.9,1.6,1.3,2.7,1.3s2.1-0.4,2.7-1.3C160.6,39.6,161,38.4,161,36.9z"/>
		<path class="st10" d="M177.3,43.2c-0.6,0.1-1.3,0.3-2.1,0.4c-0.9,0.1-1.9,0.2-3.1,0.2c-1,0-1.9-0.1-2.6-0.4
			c-0.7-0.3-1.3-0.7-1.7-1.3c-0.4-0.5-0.7-1.2-0.9-1.9c-0.2-0.7-0.3-1.6-0.3-2.5v-7.4h2.4v6.9c0,1.6,0.3,2.8,0.8,3.5
			c0.5,0.7,1.4,1,2.6,1c0.3,0,0.5,0,0.8,0c0.3,0,0.5,0,0.8-0.1c0.2,0,0.5-0.1,0.6-0.1c0.2,0,0.3-0.1,0.4-0.1V30.3h2.4V43.2z"/>
		<path class="st10" d="M183.6,30.3h5v2h-5v6.1c0,0.7,0.1,1.2,0.1,1.6c0.1,0.4,0.3,0.8,0.5,1s0.5,0.4,0.8,0.5
			c0.3,0.1,0.7,0.1,1.1,0.1c0.7,0,1.3-0.1,1.7-0.2c0.4-0.2,0.7-0.3,0.9-0.3l0.5,2c-0.2,0.1-0.7,0.3-1.2,0.4c-0.6,0.2-1.3,0.3-2,0.3
			c-0.9,0-1.6-0.1-2.2-0.3c-0.6-0.2-1.1-0.6-1.4-1c-0.4-0.5-0.6-1-0.8-1.7s-0.2-1.4-0.2-2.3V26.6l2.4-0.4L183.6,30.3L183.6,30.3z"/>
		<path class="st10" d="M190.6,36.9c0-1.2,0.2-2.2,0.5-3.1c0.3-0.9,0.8-1.6,1.4-2.2c0.6-0.6,1.2-1,1.9-1.3s1.5-0.4,2.2-0.4
			c1.8,0,3.2,0.6,4.1,1.7c1,1.1,1.4,2.8,1.4,5.1c0,0.1,0,0.2,0,0.4c0,0.2,0,0.3,0,0.4h-9.1c0.1,1.4,0.5,2.4,1.2,3.1
			c0.7,0.7,1.8,1.1,3.3,1.1c0.8,0,1.5-0.1,2.1-0.2c0.6-0.1,1-0.3,1.3-0.4l0.3,2c-0.3,0.1-0.8,0.3-1.5,0.5c-0.7,0.2-1.5,0.3-2.5,0.3
			c-1.2,0-2.1-0.2-3-0.5c-0.8-0.3-1.5-0.8-2.1-1.4c-0.6-0.6-1-1.3-1.2-2.2C190.8,38.9,190.6,38,190.6,36.9z M199.7,35.6
			c0-1.1-0.3-1.9-0.8-2.6c-0.6-0.7-1.3-1-2.3-1c-0.6,0-1,0.1-1.4,0.3s-0.8,0.5-1.1,0.8c-0.3,0.3-0.5,0.7-0.7,1.2
			c-0.2,0.4-0.3,0.9-0.3,1.4L199.7,35.6L199.7,35.6z"/>
	</g>
</g>
</svg>
