<?xml version="1.0" encoding="utf-8"?>
<!-- Generator: Adobe Illustrator 21.1.0, SVG Export Plug-In . SVG Version: 6.00 Build 0)  -->
<svg version="1.1" id="Capa_1" xmlns="http://www.w3.org/2000/svg" xmlns:xlink="http://www.w3.org/1999/xlink" x="0px" y="0px"
	 viewBox="0 0 102.8 101.8" style="enable-background:new 0 0 102.8 101.8;" xml:space="preserve">
<style type="text/css">
	.st0{fill:#0080F8;}
</style>
<path class="st0" d="M97.1,26.8c0,0-3.1-14.8-16.5-20c-6.3-2.5-17.8-3.7-29.1-3.7S28.6,4.3,22.4,6.7C8.9,11.9,5.8,26.8,5.8,26.8
	c-2,8.4-2.7,16.9-2.6,24.4c0,7.5,0.6,16.1,2.6,24.4c0,0,3.1,14.8,16.5,20c6.3,2.4,17.8,3.6,29.1,3.7c11.3-0.1,22.8-1.2,29.1-3.7
	c13.4-5.2,16.5-20,16.5-20c2-8.4,2.7-16.9,2.6-24.4C99.8,43.6,99.2,35.1,97.1,26.8z M39,31.3c3.5-0.3,6.5,2.2,6.9,5.6
	c0.3,3.5-2.2,6.5-5.6,6.9c-3.5,0.3-6.5-2.2-6.9-5.6C33,34.7,35.5,31.6,39,31.3z M38,69.9c-0.6,0.7-1.5,1.1-2.4,1.1
	c-0.8,0-1.6-0.3-2.2-0.8c-1.3-1.2-1.4-3.3-0.2-4.6L63.3,32c1.2-1.3,3.3-1.4,4.6-0.2c1.3,1.2,1.4,3.3,0.2,4.6L38,69.9z M63.7,70.7
	c-3.5,0.3-6.5-2.2-6.9-5.6c-0.3-3.5,2.2-6.5,5.6-6.9c3.5-0.3,6.5,2.2,6.9,5.6C69.7,67.3,67.2,70.4,63.7,70.7z"/>
</svg>
